<mxfile host="app.diagrams.net" agent="Mozilla/5.0 (Macintosh; Intel Mac OS X 10_15_7) AppleWebKit/537.36 (KHTML, like Gecko) Chrome/131.0.0.0 Safari/537.36" version="24.7.17">
  <diagram name="Página-1" id="MtWf-XRx_TU9yk_ZEOb2">
    <mxGraphModel dx="954" dy="615" grid="0" gridSize="10" guides="1" tooltips="1" connect="1" arrows="1" fold="1" page="0" pageScale="1" pageWidth="850" pageHeight="1100" math="0" shadow="0">
      <root>
        <mxCell id="0" />
        <mxCell id="1" parent="0" />
        <mxCell id="sFQSTO7u5scVZ7wd1ChE-2" value="CSS" style="swimlane;fontStyle=1;align=center;verticalAlign=middle;childLayout=stackLayout;horizontal=1;startSize=29;horizontalStack=0;resizeParent=1;resizeParentMax=0;resizeLast=0;collapsible=0;marginBottom=0;html=1;whiteSpace=wrap;" vertex="1" parent="1">
          <mxGeometry x="220" y="160" width="140" height="54" as="geometry" />
        </mxCell>
        <mxCell id="sFQSTO7u5scVZ7wd1ChE-10" style="edgeStyle=orthogonalEdgeStyle;rounded=0;orthogonalLoop=1;jettySize=auto;html=1;entryX=0.5;entryY=1;entryDx=0;entryDy=0;" edge="1" parent="1" source="sFQSTO7u5scVZ7wd1ChE-7" target="sFQSTO7u5scVZ7wd1ChE-2">
          <mxGeometry relative="1" as="geometry" />
        </mxCell>
        <mxCell id="sFQSTO7u5scVZ7wd1ChE-7" value="&lt;b&gt;SAAS&lt;/b&gt;&lt;br&gt;&lt;br&gt;SASS é um pré-processador de CSS com mais funcionalidades, fornecendo recursos avançados como variáveis, mixins, loops, aninhamento e herança.&lt;br&gt;&lt;blockquote&gt;&lt;p&gt;&lt;strong&gt;Nota:&lt;/strong&gt; O SASS precisa ser compilado para CSS antes de ser usado no navegador.&lt;/p&gt;&lt;/blockquote&gt;" style="rounded=0;whiteSpace=wrap;html=1;" vertex="1" parent="1">
          <mxGeometry x="155" y="260" width="270" height="160" as="geometry" />
        </mxCell>
        <mxCell id="sFQSTO7u5scVZ7wd1ChE-13" style="edgeStyle=orthogonalEdgeStyle;rounded=0;orthogonalLoop=1;jettySize=auto;html=1;entryX=0.5;entryY=1;entryDx=0;entryDy=0;" edge="1" parent="1" source="sFQSTO7u5scVZ7wd1ChE-12" target="sFQSTO7u5scVZ7wd1ChE-7">
          <mxGeometry relative="1" as="geometry" />
        </mxCell>
        <mxCell id="sFQSTO7u5scVZ7wd1ChE-12" value="&lt;b&gt;SCSS&lt;/b&gt;&lt;br&gt;&lt;br&gt;SCSS é uma variação do SASS com sintaxe semelhante ao CSS. Combina o poder do SASS com a familiaridade da sintaxe do CSS.&lt;br&gt;&lt;blockquote&gt;&lt;p&gt;&lt;strong&gt;Nota:&lt;/strong&gt; SCSS é amplamente utilizado por ser mais acessível para quem já conhece CSS..&lt;/p&gt;&lt;/blockquote&gt;" style="rounded=0;whiteSpace=wrap;html=1;" vertex="1" parent="1">
          <mxGeometry x="155" y="470" width="270" height="160" as="geometry" />
        </mxCell>
        <mxCell id="sFQSTO7u5scVZ7wd1ChE-15" style="edgeStyle=orthogonalEdgeStyle;rounded=0;orthogonalLoop=1;jettySize=auto;html=1;entryX=0.5;entryY=1;entryDx=0;entryDy=0;" edge="1" parent="1" source="sFQSTO7u5scVZ7wd1ChE-14" target="sFQSTO7u5scVZ7wd1ChE-2">
          <mxGeometry relative="1" as="geometry">
            <Array as="points">
              <mxPoint x="585" y="230" />
              <mxPoint x="290" y="230" />
            </Array>
          </mxGeometry>
        </mxCell>
        <mxCell id="sFQSTO7u5scVZ7wd1ChE-14" value="&lt;b&gt;Less&lt;/b&gt;&lt;br&gt;&lt;br&gt;LESS é outro pré-processador de CSS. Similar ao SASS, mas usa uma sintaxe mais próxima do CSS.&lt;br&gt;&lt;blockquote&gt;&lt;p&gt;&lt;strong&gt;Nota:&lt;/strong&gt;&amp;nbsp;&lt;span style=&quot;background-color: initial;&quot;&gt;LESS foi projetado para ser compilado no cliente (navegador), mas também pode ser processado no servidor.&lt;/span&gt;&lt;span style=&quot;background-color: initial;&quot;&gt;&amp;nbsp;&lt;/span&gt;&lt;/p&gt;&lt;/blockquote&gt;" style="rounded=0;whiteSpace=wrap;html=1;" vertex="1" parent="1">
          <mxGeometry x="450" y="260" width="270" height="160" as="geometry" />
        </mxCell>
        <mxCell id="sFQSTO7u5scVZ7wd1ChE-16" value="" style="shape=image;verticalLabelPosition=bottom;labelBackgroundColor=default;verticalAlign=top;aspect=fixed;imageAspect=0;image=data:image/png,iVBORw0KGgoAAAANSUhEUgAABbIAAAImCAYAAACGtXxWAAAMPmlDQ1BJQ0MgUHJvZmlsZQAASImVVwdYU8kWnluSkEBooUsJvQkiUgJICaGF3hFshCRAKDEGgoodXVRw7SICNnRVRMEKiB1RLCyKvS8WFJR1sWBX3qSArvvK9+b75s5//znznzPnztx7BwC1kxyRKAdVByBXmC+ODfanj0tOoZN6ABlgsOoBZQ43T8SMjg4HsAy1fy/vbgBE2l51kGr9s/+/Fg0eP48LABINcRovj5sL8UEA8CquSJwPAFHKm0/LF0kxrEBLDAOEeLEUZ8hxlRSnyfFemU18LAviVgCUVDgccQYAqpchTy/gZkAN1X6InYQ8gRAANTrEPrm5U3gQp0JsA21EEEv1GWk/6GT8TTNtWJPDyRjG8rnIilKAIE+Uw5nxf6bjf5fcHMmQDytYVTLFIbHSOcO83cqeEibFKhD3CdMioyDWhPiDgCezhxilZEpCEuT2qCE3jwVzBnQgduJxAsIgNoQ4SJgTGa7g09IFQWyI4QpBpwvy2fEQ60G8mJ8XGKew2SyeEqvwhTaki1lMBX+OI5b5lfp6IMlOYCr0X2fy2Qp9TLUwMz4JYgrEFgWCxEiIVSF2zMuOC1PYjC3MZEUO2YglsdL4LSCO5QuD/eX6WEG6OChWYV+Smzc0X2xzpoAdqcD78zPjQ+T5wVq5HFn8cC7YZb6QmTCkw88bFz40Fx4/IFA+d6yHL0yIU+h8EOX7x8rH4hRRTrTCHjfj5wRLeTOIXfIK4hRj8cR8uCDl+ni6KD86Xh4nXpjFCY2Wx4OvAOGABQIAHUhgTQNTQBYQdPQ19sE7eU8Q4AAxyAB84KBghkYkyXqE8BoHCsGfEPFB3vA4f1kvHxRA/uswK786gHRZb4FsRDZ4CnEuCAM58F4iGyUc9pYInkBG8A/vHFi5MN4cWKX9/54fYr8zTMiEKxjJkEe62pAlMZAYQAwhBhFtcQPcB/fCw+HVD1ZnnIF7DM3juz3hKaGT8IhwndBFuD1ZUCT+KcoI0AX1gxS5SPsxF7gV1HTF/XFvqA6VcR3cADjgLtAPE/eFnl0hy1LELc0K/Sftv83gh6ehsCM7kVGyLtmPbPPzSFU7VddhFWmuf8yPPNa04Xyzhnt+9s/6Ifs82Ib9bIktxg5gbdgp7Dx2FGsEdOwE1oS1Y8ekeHh1PZGtriFvsbJ4sqGO4B/+hp6sNJN5TrVOvU5f5H35/OnSdzRgTRHNEAsyMvPpTPhF4NPZQq7jSLqzk7MLANLvi/z19SZG9t1AdNq/cwv+AMD7xODg4JHvXOgJAPa5w+1/+Dtnw4CfDmUAzh3mSsQFcg6XXgjwLaEGd5o+MAbmwAbOxxm4AS/gBwJBKIgC8SAZTILRZ8J1LgbTwCwwHxSDUrACrAUVYBPYCnaCPWA/aARHwSlwFlwEl8F1cBeunm7wAvSDd+AzgiAkhIrQEH3EBLFE7BFnhIH4IIFIOBKLJCOpSAYiRCTILGQBUoqsQiqQLUgNsg85jJxCziOdyG3kIdKLvEY+oRiqgmqhRqgVOgploEw0DI1HJ6IZ6FS0EF2ILkPL0Wp0N9qAnkIvotfRLvQFOoABTBnTwUwxB4yBsbAoLAVLx8TYHKwEK8OqsTqsGT7nq1gX1od9xIk4DafjDnAFh+AJOBefis/Bl+IV+E68AW/Fr+IP8X78G4FKMCTYEzwJbMI4QgZhGqGYUEbYTjhEOAP3UjfhHZFI1CFaE93hXkwmZhFnEpcSNxDriSeJncTHxAESiaRPsid5k6JIHFI+qZi0nrSbdIJ0hdRN+qCkrGSi5KwUpJSiJFQqUipT2qV0XOmK0jOlz2R1siXZkxxF5pFnkJeTt5GbyZfI3eTPFA2KNcWbEk/JosynlFPqKGco9yhvlJWVzZQ9lGOUBcrzlMuV9yqfU36o/FFFU8VOhaUyQUWiskxlh8pJldsqb6hUqhXVj5pCzacuo9ZQT1MfUD+o0lQdVdmqPNW5qpWqDapXVF+qkdUs1Zhqk9QK1crUDqhdUutTJ6tbqbPUOepz1CvVD6vfVB/QoGmM1ojSyNVYqrFL47xGjyZJ00ozUJOnuVBzq+Zpzcc0jGZOY9G4tAW0bbQztG4topa1FlsrS6tUa49Wh1a/tqa2i3ai9nTtSu1j2l06mI6VDlsnR2e5zn6dGzqfdI10mbp83SW6dbpXdN/rjdDz0+PrlejV613X+6RP1w/Uz9Zfqd+of98AN7AziDGYZrDR4IxB3witEV4juCNKRuwfcccQNbQzjDWcabjVsN1wwMjYKNhIZLTe6LRRn7GOsZ9xlvEa4+PGvSY0Ex8TgckakxMmz+nadCY9h15Ob6X3mxqahphKTLeYdph+NrM2SzArMqs3u29OMWeYp5uvMW8x77cwsYiwmGVRa3HHkmzJsMy0XGfZZvneytoqyWqRVaNVj7WeNdu60LrW+p4N1cbXZqpNtc01W6ItwzbbdoPtZTvUztUu067S7pI9au9mL7DfYN85kjDSY6RwZPXImw4qDkyHAodah4eOOo7hjkWOjY4vR1mMShm1clTbqG9Ork45Ttuc7o7WHB06umh08+jXznbOXOdK52tjqGOCxswd0zTmlYu9C99lo8stV5prhOsi1xbXr27ubmK3Ordedwv3VPcq95sMLUY0YynjnAfBw99jrsdRj4+ebp75nvs9//Jy8Mr22uXVM9Z6LH/strGPvc28Od5bvLt86D6pPpt9unxNfTm+1b6P/Mz9eH7b/Z4xbZlZzN3Ml/5O/mL/Q/7vWZ6s2ayTAVhAcEBJQEegZmBCYEXggyCzoIyg2qD+YNfgmcEnQwghYSErQ26yjdhcdg27P9Q9dHZoa5hKWFxYRdijcLtwcXhzBBoRGrE64l6kZaQwsjEKRLGjVkfdj7aOnhp9JIYYEx1TGfM0dnTsrNi2OFrc5Lhdce/i/eOXx99NsEmQJLQkqiVOSKxJfJ8UkLQqqWvcqHGzx11MNkgWJDelkFISU7anDIwPHL92fPcE1wnFE25MtJ44feL5SQaTciYdm6w2mTP5QCohNSl1V+oXThSnmjOQxk6rSuvnsrjruC94frw1vF6+N38V/1m6d/qq9J4M74zVGb2ZvpllmX0ClqBC8CorJGtT1vvsqOwd2YM5STn1uUq5qbmHhZrCbGHrFOMp06d0iuxFxaKuqZ5T107tF4eJt+cheRPzmvK14I98u8RG8ovkYYFPQWXBh2mJ0w5M15gunN4+w27GkhnPCoMKf5uJz+TObJllOmv+rIezmbO3zEHmpM1pmWs+d+Hc7nnB83bOp8zPnv97kVPRqqK3C5IWNC80Wjhv4eNfgn+pLVYtFhffXOS1aNNifLFgcceSMUvWL/lWwiu5UOpUWlb6ZSl36YVfR/9a/uvgsvRlHcvdlm9cQVwhXHFjpe/Knas0VhWuerw6YnXDGvqakjVv105ee77MpWzTOso6ybqu8vDypvUW61es/1KRWXG90r+yvsqwaknV+w28DVc2+m2s22S0qXTTp82Czbe2BG9pqLaqLttK3Fqw9em2xG1tvzF+q9lusL10+9cdwh1dO2N3tta419TsMty1vBatldT27p6w+/KegD1NdQ51W+p16kv3gr2Svc/3pe67sT9sf8sBxoG6g5YHqw7RDpU0IA0zGvobMxu7mpKbOg+HHm5p9mo+dMTxyI6jpkcrj2kfW36ccnzh8cEThScGTopO9p3KOPW4ZXLL3dPjTl9rjWntOBN25tzZoLOn25htJ855nzt63vP84QuMC40X3S42tLu2H/rd9fdDHW4dDZfcLzVd9rjc3Dm28/gV3yunrgZcPXuNfe3i9cjrnTcSbty6OeFm1y3erZ7bObdf3Sm48/nuvHuEeyX31e+XPTB8UP2H7R/1XW5dxx4GPGx/FPfo7mPu4xdP8p586V74lPq07JnJs5oe556jvUG9l5+Pf979QvTic1/xnxp/Vr20eXnwL7+/2vvH9Xe/Er8afL30jf6bHW9d3rYMRA88eJf77vP7kg/6H3Z+ZHxs+5T06dnnaV9IX8q/2n5t/hb27d5g7uCgiCPmyH4FMFjR9HQAXu8AgJoMAA2ezyjj5ec/WUHkZ1YZAv8Jy8+IsuIGQB38f4/pg383NwHYuw0ev6C+2gQAoqkAxHsAdMyY4Tp0VpOdK6WFCM8Bm4O/puWmgX9T5GfOH+L+uQVSVRfwc/sv9P58O9MwIVgAAACKZVhJZk1NACoAAAAIAAQBGgAFAAAAAQAAAD4BGwAFAAAAAQAAAEYBKAADAAAAAQACAACHaQAEAAAAAQAAAE4AAAAAAAAAkAAAAAEAAACQAAAAAQADkoYABwAAABIAAAB4oAIABAAAAAEAAAWyoAMABAAAAAEAAAImAAAAAEFTQ0lJAAAAU2NyZWVuc2hvdMBYK8oAAAAJcEhZcwAAFiUAABYlAUlSJPAAAAHXaVRYdFhNTDpjb20uYWRvYmUueG1wAAAAAAA8eDp4bXBtZXRhIHhtbG5zOng9ImFkb2JlOm5zOm1ldGEvIiB4OnhtcHRrPSJYTVAgQ29yZSA2LjAuMCI+CiAgIDxyZGY6UkRGIHhtbG5zOnJkZj0iaHR0cDovL3d3dy53My5vcmcvMTk5OS8wMi8yMi1yZGYtc3ludGF4LW5zIyI+CiAgICAgIDxyZGY6RGVzY3JpcHRpb24gcmRmOmFib3V0PSIiCiAgICAgICAgICAgIHhtbG5zOmV4aWY9Imh0dHA6Ly9ucy5hZG9iZS5jb20vZXhpZi8xLjAvIj4KICAgICAgICAgPGV4aWY6UGl4ZWxZRGltZW5zaW9uPjU1MDwvZXhpZjpQaXhlbFlEaW1lbnNpb24+CiAgICAgICAgIDxleGlmOlBpeGVsWERpbWVuc2lvbj4xNDU4PC9leGlmOlBpeGVsWERpbWVuc2lvbj4KICAgICAgICAgPGV4aWY6VXNlckNvbW1lbnQ+U2NyZWVuc2hvdDwvZXhpZjpVc2VyQ29tbWVudD4KICAgICAgPC9yZGY6RGVzY3JpcHRpb24+CiAgIDwvcmRmOlJERj4KPC94OnhtcG1ldGE+CipPV0cAAAAcaURPVAAAAAIAAAAAAAABEwAAACgAAAETAAABEwAAxqk0rYP0AABAAElEQVR4AeydBbgcRdaG6y6WAEECLEmwBAgWZCG4Lba4uy5OcPcgwVncAywSXBZfgi3ussDiTiBIkMBiIUHz11t/aramb/dMz9we6ZnvPE8yMy3V1W911a3+6tSpjn79+o03MhEQAREQAREQAREQAREQAREQAREQAREQAREQAREQARFoUgIdErKbtGSULREQAREQAREQAREQAREQAREQAREQAREQAREQAREQAUdAQrYeBBEQAREQAREQAREQAREQAREQAREQAREQAREQAREQgaYmICG7qYtHmRMBERABERABERABERABERABERABERABERABERABEZCQrWdABERABERABERABERABERABERABERABERABERABESgqQlIyG7q4lHmREAEREAEREAEREAEREAEREAEREAEREAEREAEREAEJGTrGRABERABERABERABERABERABERABERABERABERABEWhqAhKym7p4lDkREAEREAEREAEREAEREAEREAEREAEREAEREAEREAEJ2XoGREAEREAEREAEREAEREAEREAEREAEREAEREAEREAEmpqAhOymLh5lTgREQAREQAREQAREQAREQAREQAREQAREQAREQAREQEK2ngEREAEREAEREAEREAEREAEREAEREAEREAEREAEREIGmJiAhu6mLR5kTAREQAREQAREQAREQAREQAREQAREQAREQAREQARFoCSH7D3/4g5lnnnkMn2+99Zb55ZdfVLIiIAIZE5huuulMv379zMiRI80XX3yRceqNS67V249WLbfGPTG6sgiIgAiIgAiIgAiIgAiIgAiIgAiIQCMI5F7Inmaaacw555xj5p13Xsfv3XffNfvuu6/5/PPPy/Ls2bOnWXTRRc0f//hH06NHD/Prr7+ab7/91tx///3m66+/Lnu+DhCBdiGwwQYbmAMPPNBMOumkrp6cd9555pprrsn97Xel/cjDzbdqueWBvfIoAiIgAiIgAiIgAiIgAiIgAiIgAiKQLYHMhezu3bubmWeeOVUu8Zz+8ssvzZgxY1IdH3fQ4MGDzfrrr1+067777jNsT7JJJpnE7V9zzTVNR0dHp8P23HNP88wzz3Targ0i0I4EevfubW655RYz8cQTF27/999/N5tvvrkZMWJEYVsev1TTfuTlPlu53PJSBsqnCIiACIiACIiACIiACIiACIiACIhAdgQyF7LxcB46dGhFOfzxxx+doP3GG2+Y4cOHOxF5/PjxqdK4+uqrzdxzz1107Mcff2zwRIyzySabzJxyyilm6aWXjtvttknITkSjHW1IYPnllzenn356pzs/8sgjzT333NNpe542VNp+5OneWrnc8lQOyqsIiIAIiIAIiIAIiIAIiIAIiIAIiEA2BJpCyI7eCvF3b7jhBnPVVVeZcoL2McccY/CsDu3hhx82Bx10ULip8P2AAw5wnqSFDTFfJGTHQNGmtiUwyyyzmJtuusnFoA8hbLXVVubtt98ON+Xue6XtR55usJXLLU/loLyKgAiIgAiIgAiIgAiIgAiIgAiIgAhkQ6AphWx/a08//bTB6/Obb77xmzp9Et8aD/BZZ53V7Rs1apTZfffdDV7ZcXbFFVeY+eabr2jXQw89ZC6++GLz0Ucfue2ETdCCkUWI9KPNCWy77bauXrEwInb55ZebCy64IPdUKm0/8nbDrVpueSsH5VcEREAEREAEREAEREAEREAEREAERKDrBJpayOb28M4eNGhQojDNMYQLIaQJ8a6ff/55M3bsWDZ3MmJj463NgnXefvvtN7P66quXFMv9sfoUgXYmMNtss5m55prLvP/+++a9995rGRRp24+83nCrlltey0P5FgEREAEREAEREAEREAEREAEREAERqI5AXYTsTz75xInRYRbx7OzZs6fBIxIP6XXWWcdMN9104SGF76+88orZaaedDJ7SXbF5553XXHnllUVJvPDCC53yVnSAfoiACIiACIiACIiACIiACIiACIiACIiACIiACIiACDSUQF2E7A8//NBsvPHGJW904oknNuuuu64hhnXoMe1Puuiii8wll1zif1b1ucgiixjSCe3WW281J554YrhJ30VABERABERABERABERABERABERABERABERABERABJqIQNMI2Z7JggsuaM466yzTo0cPv8l9/vrrr85re/To0UXb8eru1atX0TbCkfjj2Mcx2DzzzGMOO+ywomOJjz1s2LCibe+8807JGNkLLbSQmX322U3v3r3NtNNOa7788kvz+eefm9dff91wbjmbYoopDNP9QyMO+Keffuo2EQJlmWWWMX379jXTTDON+e9//2tuvPHGkiFTllhiCTPzzDM7Ft26dTOfffaZ+0eoFfJXzvCMn3766YsOIz8+PjlhWwjfgvc8TMeMGWNGjBjhwky89dZbVXnLsxgdLGeccUb3jzAvlBse/E888YT5/vvvi/KT5gfsiJdO+cwxxxyu7LmHr776yuB9n6Z8otch9MTiiy9u5pxzTpcefL/99ltXLqT55ptvll2UNJpm9Dd8mTEQGs98uJgi9zb33HO7e4Pdd99951i9/PLLhec9PD/8nib9P/3pT2bAgAFmhhlmcOV77733mpEjR7pkqDs+PjYbWIT1jTfeCC9hyj3XHEy5LLXUUm4mxkQTTeSeH54jGCaFBCq6SOQHzzxtRvgMUdbEyH/qqafKPkPl2g9/Oeri5JNP7n+6z3fffdf8/PPPhW3+mevXr5+rDzzH1A1CsVRj3bt3d88wzzFpM8D39ddfu3BL3BvtXDlLU27RNHhWYLrAAgu4WTK0xT/88IN73rkf2hStIRClpt8iIAIiIAIiIAIiIAIiIAIiIAIiIAK1JtB0QjY3jGc2izxG7fTTTzfXX3990eatt97a7LPPPkXbWPzxsssuc9sOOeSQst7gRSfbH2uvvbYTpsPtiDvrr7++2WyzzZy4FO4LvxMG5dprrzX3339/uLno+5JLLmnOPffcom333XefGTx4sEGQ5t4R5kLbYIMNOsUJn2qqqcyWW25pNtxwQyeoh8f774ihjzzyiAupgtCeZCyQuf322xftPumkk8wtt9xiEOZOPfXUTuK7P5h7HjJkSEH09NuTPv/85z+bLbbYwuAhD9c4QyBEzGZQwwv8ccf5bQjx8FtsscUMgm+SkRYLew4fPjzpkMJ2Qt3stttuZo011oidJeAPRHxntgDe/dWGvyHPTz75pE/SfSJarrbaau47Axv7779/YVHT8EBY3XXXXebSSy91gxfhPv+9VPoMyDArYf755/eHu8/jjz/e3H777e77o48+ahBWvfFcIUiHVuq55ty//e1vnc7x5zPYcsIJJ7gy99tKfS6//PJm8803L8TGjzsWLjA9++yzO9Udf3y59sMfR3uCsBvaJptsYj744APT14rcBx54oKu74X7/nUVr//73vxsGHNIYIjIDbgjYSfWDdKh3Z555pvtMSjdNuflzeUa22mor948BtCT78ccfzW233eae+TSDTdQjBn54ZmQiIAIiIAIiIAIiIAIiIAIiIAIiIAIiUC2BphSyuRlCgCB0hoZws8MOO4SbTDkhKgshG09ThL6ll1666NqlfiBqIv7GeS4mCX54XV9wwQWxomlUyEY8Q8TCIzWNIeqdcsopBWEyek6SkM3imJdffrnp06dP9JSi3z/99JMT3x577LGi7eEPhLJ9993XbLrppuHmkt/HjRvnBNA777wz8bi//OUv7tpRL/7EE+wOBD6ejSRxbeGFF3Z8Kfu09p///McNqiD0VWqlhOZdd93V7LjjjmWTxBN5jz32iF2IMSl9yoK48XHlm5WQzcAMg1DLLrts2XtAMGYgKsmqeYZ4NqmLXpQP0y7Xfvhjk4RsuJ122mklB09Ig3bg6KOPNv/61798kp0+uTfWAth2220N3uppDM/4888/31xxxRWxh6cVspmNQdvDoFVa43nj2UTMjzNmMRx11FFuUI72h3akq+Gh4q6jbSIgAiIgAiIgAiIgAiIgAiIgAiIgAu1BoGmFbLyiEX5CQ7RhezilvpwQ1VUhmzASCDCElajUEJGI+R21JCGbkA4IqHEWCtnkBQ/PKaecMu7QktvwTr366qs7HRMnZHPsKqus4sJNdDohZgPhVTbaaCODcBhnCO9pxMzouXg5H3rooYYwMFHbeeedzS677BLdnOo33uZ4nUeNMA6UeTSURPS4uN/PPfecgWWlliQ0H3vssU5QL+WZG14LD1nqRNSLPSn9m2++2cAwzrISsgntknbwgrIm/3EhYGBwxhlnVP0M4bEfnSlRrv3wXOKE7D333NPAqJT3sj+fT+7t4IMPdjMkwu18594Q8AcOHBjdler34YcfHiuSpxGyCVlyzTXXGAbHKjVmDTBLxYcg8ufjhX3TTTd1aqOS8unP06cIiIAIiIAIiIAIiIAIiIAIiIAIiIAIJBFoWiF76qmnNvfcc49hEcjQ8AAkRqu3ckLUqquu6sIPcDxeh8stt5w/1X0Sx/bZZ58t2nbeeee5+MNsPOiggzqJcMRyJkwAIQOIGUtsY0KCEBIgjCPM+YRLYBp+aHFCNvGBw9ANHE/e8EgmzMg222zjwiMgSCKyEis5NLyAEVHJE0I/8azJE6JsaHhG/vWvf+3ktRsnZOOt7PkTp5v0iY2N12bcvXKdCy+80IW4CK/JdwRuxOioIbwS5oM4wghqhFMglAcDCKFx3fXWW8+FKPDbEd4I4wKT0Fhc9MUXXzSvvvqqi7tMPHLCr0RjgCMski/iKYeG9+4KK6wQbnIhO8455xzz2muvOQbMFqAcGViJLk6KWBknuhclGPkRJzTDn/LygjrPA3Gp2ca9E688zrg2eQgtLn2eY/6F+UeYxNMWIRIPXe/FnEYQjXuuw2eIZxmvdcqHOOY8Q3Ee70mDASwYy8BU1IjfTGiV9957zxDPnOcz7hmijvAMhaJrufbDXytOyObZ9bMACJ3BjBH4EaqF2O8hV58OdZNnDhahEbYIoT00Bu54hmlreO5oH6j33AP3GRrPBoNdnBNamnIjzA9ha0Ijf8yKITTLqFGj3LNGe7LOOut0qkc33HCD80oPz2eWRNwiurTpcWGjwnP1XQREQAREQAREQAREQAREQAREQAREQATiCDStkE1m8RZF8AoNsYd40t7SClEcj/iIOBNanOjn9yNG4fkc9YYlHnRcjGXiVe+3337+dPeJAEvMbxbm8xYn+Pl9LK7n494ijmH++ohUhB3AEzQ0hDxCEiDkhcZ5xCVeccUVw83mpZdecseHG+OEbPYjRCJAE2c7NFjizewX0vT7WJyQOLuhsSAmgmhUqCckAaFionF28UwnNvZcc80VJuNCYISxxeNCbiDkEzMdkTo0hD8GAPr37x9udqI74rs3jiM8imfOdjzM11prrSIR3R8fVx54/UYXFfXHJ33GCc3+WMRmPLPvvvvuIqESIZtnJVoGnDdo0CC3uKVPo1T6DKIQ+gMBOfTkZlDGc0wjiJZ6rocNG+Zik4ehdpJic5Nnnlmea2/cIwNC0WeI+sIz5OuKP55nCDbRAR/CqITPUNr2I07I9tcibj+DX+FMBGK2460dN8OCGO20K6Hxm8U2Q6OtigvFwSAGoUT8AIc/hzpMGYaWptzi7o06FI3ZTrq0ieQrDH3CIBcDhqERB5+QK1GjDBnck4mACIiACIiACIiACIiACIiACIiACIhApQSaWsiOE3eioTHSClGAqVTIJr4rHoihsaBeKHyG+/iOgIn3b2hhiAa2Jwl+hFNApMarM8kQgmaaaabCboRmvCmfeuqpwrbwC8IsHPEaDy0MVcL2JCH7mGOOMUnxqfEMPeKII8JkDV6viFihsShe1EMYr+LtttsuNoQE5/bq1cuFJgg9TxFZuaY3BMww5AsiKeJZVBj3x8eJa1HRGY/w6IKisN177719MkWfCN7EpWbhTW8sXBgVKv2+pM9SQjMiaVIMZJ5pPKdDYZFrMAh08sknFy6XlD6siFtebiHCNIJo0nN9xx13mOOOO66Ql/ALA1XEho/mn1kDeJ97IzQJsyNCK/cMMZMBDuEzhOcy3s/e0rYfcWIvaSD2wi/qCc0+BnCYMRCdCTBixIiiWR48QwxUhAx41in3JKPO40kdGoNWhPMILU25UQeYAeMNb2wW04y7J46BX3Q2AANPYWx4ZlRQj8K2ikERwgAxkCYTAREQAREQAREQAREQAREQAREQAREQgUoJNLWQjRC38sorF91TtR6VJFKJkI3wd++99xZCB3A+3tV4iiYJPByDeBV6jLON0CWInd6SBD/Ch7z55pv+sE6fiEdRQRMhDe/JUhY3zZ94vIhz3uKEbEJuIHgnGWFHWAwyFAo5drXVVisS4/FAjXqmEqbjqquuSkrabWcAgLS8wZ2QEYS+qMZYGJNFOENDwA0XUiTecXRBPq4HBzyXa2VJQvMTTzzhhNJS1yX/eKeHRrxywp54S0o/OjDkj49+phFEk55rvNnDuPbRtBFsCVsRWjSWctygVimB36eFgB71Fl599dUNXsRYV4Rs7gkxOZxt4a/rP/GyjhvUiA4k+ePTfsYNIjHjgEGN0NKUG4IzAzihlWuLwmOTvrMQJjNU5p9/fheaB+9ynmeZCIiACIiACIiACIiACIiACIiACIiACFRDoKmFbMId4BkYWnRaflohijQqEbLjBCji+yYtjBfmkTiwxBj2hgAa3kec4EcYhZVWWqmkSE74EEJGhFbOQ5xjiREd9dSMCqRxQjZCftTjOrw23//xj38YQh2EFopgiN1cKxo7POpxG55fq++Ee4iGhCH2MJ7hocXdE2FbfMzgMIREeF5XvicJzcwKIKRIKcOrGc/jqBHShvjGWFL6acshjSAa91wzCIBwXMriZjGEAjt5f/zxxzs9Q4R1ef3110slXXZf2vYjziObcDkMtpSzaHvA8aVmOpRLj/0wjXq5Rwf5OC5NucXxx1OfwS4GdcKY4qQpEwEREAEREAEREAEREAEREAEREAEREIFGEGhqIRsPQ7z5QiMu8y233FLYlFaI4oRKhGy8OONiuUa9dQsZCb7gAR01wlr4qfdxgl+p8BU+LbxUox7ShBYpt7AgInLUsx3PbwRnb3FCdigm+uOin4hdLCwZWiiOxonHeFYj7EcXvAvTqPY7YRpY4JL42njHs5jglFNO6Tzr2T5gwICipOOEbDzcea7ijEEJFvXDk5uF+AiTEMZyjjsnzbYkoZm464ScKWWUL3G9o4sLItBzf1hc+tzLCnZRSx8Hu9Q10giicc91dMAk7hpxAzSEqrjmmmvc4YQIiYa3yeoZStt+xAnZZ5xxhrnuuuvibqloW5zHOXG6EZ5LGeVJSCAGivwz7D/XXHPNTqdWK2Qvu+yyLp54pwTtBuKz01b4Z57nHm9/mQiIgAiIgAiIgAiIgAiIgAiIgAiIgAjUm0BTC9l4PDI9PbQDDzywaOHBtEIUaVQiZMelG+aj0u8bbbSRYWE6LE7wIxwJC1mWMoSz5ZZbrtQhqfdFPWXjhOzooEFc4ueff75ZfPHFi3aFQjZCXFSwi8a6Ljq5ih+zzDKLi9vLoMc888zTaRG8UknGCdl4kePtusoqq5Q61e0jLjciMt7rfIaLGZY9OTggTmhmkALBP02ahGnh3kMjrAOezFhc+sRiD0O3hOdGv1crZKd5rol1vttuuxVdMhSy40Lq4GmOx3lXLa6eR8PucI04IZtwLs8//3zZLBBDO7oAKiI99xi1gQMHulAo3DPhPii3tFatkE36hEgh7nY5YwABMZtZAg888IC8tcsB034REAEREAEREAEREAEREAEREAEREIHMCDStkM1if//85z873SiiF96B3tIKURxfiZCNSBXGTvbXq/YzFHerFbLj4gRXm5/oooy1ErIR5qKLY1J+lGMWRjqUU9QbOW3acUI25yJm45nNYp94dacx4i5zTrhIYZrzOCZOaB49erSLCZ4mjbgwPEceeaQhrEVS+nkRshdbbLFOsZ/xht9+++3ToCl5TNr2I07IZlHXjz76qGT67ETERswOjUVbwxkfxJkn3Eh05kR4TrnvXRGySZtFHAmdxCyKNMYACwtMMuAoEwEREAEREAEREAEREAEREAEREAEREIFaE2haIXvzzTc3BxxwQNH9E4oCL9kwRnFaIYqEKhGykzwU48T1okzaH1NNNVWnBeBY6AxPZKxaIfvUU091oSBcIhP+Q4h9//33w02x36N5QoTC49pbrYRsvEpZTC60b7/9NpW3c3hO3HdCZ4SLaIbHEO4Dr11i/fKPBfkmn3zyTkJhkpDt00JgRFxkwUIWrCznIct18YQmnnolFidk4/1K6A8fkqZUenFxvRHVWQwUi0s/L0L2nHPO2SmER1bPUNr2I07IDj3eS5VNXAxqFm0l5AhGOBzC+Cy11FKxyTB7goUlebZ4jnmemZkRxuHnxK4K2aRBXphhwUKhyyyzTNFit+yPGs8onuXXXnttdJd+i4AIiIAIiIAIiIAIiIAIiIAIiIAIiECmBJpSyEZ0Q5RBwArt/vvvN4hCoaUVojinEiGbONcnnnhieClz6623dtpWdEDKH9UK2YceeqghREloxM1OE7c7PCfue62E7KmnntpQblEjBjkezNUaIt4dd9zRyRP7hhtucKKaHzQI04+L111OyA7P57mce+65zYILLuhE7SWWWMJ07949PMR9f/fdd12ohk47SmyIE5o5HG9zQjmUMs4lrMlEE01UdFi46GZc+nkRsqeZZprYZ7yrzxCw0rYfcUI2YXWGDRtWxDzuR9xMijD+PPHzTzvttKJTGbxgJgOxwRGuo5blYo/RtP1vRG0Wil1ooYXcM4+wHRXPORYxm7LQopCenD5FQAREQAREQAREQAREQAREQAREQARqQaAphWzEO0J7RA0hl7isoaUVojinEiF7gQUWcHFxw2u9/vrrZttttw03VfW9WiGba++5555F1yQ28jnnnFO0rZoftRKyEcMeeeSRToLvoEGDzAsvvFAyq926dXNhPUjD/0N8JXb0pptuag466KCi86PhGop22h9x8borEbKj6ZE/ymOzzTYr2oWwx0AIXsNpLU5o5lwGUxhAKWUsbEnM5aghduLNi8Wlnxchm7InRje8Q0vzDDHQwAKJWPgM+bjjaduPOCE7Tfxvrvvggw928mwOB6BOPvnkTjMFwrAwpBG1uHAlWXhkR68T/oYfi0weddRRhgVGQ6MuPvzww+EmfRcBERABERABERABERABERABERABERCBTAk0nZC9xhprmCOOOKKTpy2iG4u7hWFFIJFWiOLYSoRshBoWNOvZsyenOvv555/NSiut1CkPfn/az2qF7Nlnn93gcRwaISyIa9tVq5WQTb4QYxF2QysnOiOa4e3Konfefv/9dxeSBA9Vws4Qfia06EKg4T6+xw2QdEXIJk0EYu4lGleYmMhPPPEEh6SyOKGZE/HuJoRK9LkPEyW2MgJjaISbCQX2uPTzImRzX3FibzXP0G+//eaeIcJ0YGnbjzghG69pBpc++OADl1bcf+utt55rz8J9DHQwyAB/jLAc/fv3Dw9x7UycJ7Y/6IILLjDEDg+t1kK2v1Zcfc5qQM1fQ58iIAIiIAIiIAIiIAIiIAIiIAIiIAIiECXQNEI2QiALIobiW5hZhEu8MqOWVojivEqEbI4/+OCDzSabbMLXguFdjPchYlScEYsa0ctPwUeQRehCjPRWrZDN+cSbJu50aMSojfPI9cfMP//8zmubvGB8IgJynrdaCtmI/ywKFzXCxMSFHeG4jTfe2BxyyCFFp4Qe8fvvv3+n8B1c46abbio6x/+gXC699FLTt29fv8l9RoVs8kSM4NAIIZGUT46LExXThAQJrxEnNPv9LNiIh26cbbDBBgbv3qhFRc249PMkZBMbP4zp7u+31DNE3aUOhxY+Q2xP237ECdmcT92m3Ro7diw/iwxx+vLLLzfEWQ8t+sxRd/GqD40ZByNGjAg3Fb6TLoM80QVOo2XOCbSZYfgbZjOEsbhZzDS68Cqe1YQ+SbK4AaG4MCs8c6w1wGAUMb6vu+46F7c+KV1tFwEREAEREAEREAEREAEREAEREAEREIFSBOoiZCNiREUoPJ7xdkbARuhA3I3G+PUZZ4HFY4891v8s+kwrRHFSpUI2gjGehggyod18883m9NNPNz48gd+HSMq0e8KShIY3Ked464qQHSdcIqoPGTLEeZBHBXbi2uLhPv300/vLu8+oUFZLIRshD0/ymWaaqSgPeMXiufzSSy8VbScmLyK7DwnhdxJH2HukM+CBB3Zon3/+udlll10Ki2r6fb1793bCXL9+/fymwmdUVIx7nsaMGWOIN/3RRx8VzvNfKGsW8gxDLeC5j8dtKY9af77/jBOa/T4+b7zxRncdH1ec45mhwABP9PnE65jQE++9914hibj08yRk8wyxoCVlGVqlzxALpsLSW1x5Dx06tFNYoSQhm3T+/e9/u/YA73lv1DsGvKLPPPuj7QEDMAz2hPbUU0+5gZyoQM4gC8dH6wbnViNk0/ay8GTUwtAn4T7aEZ736H1FZyAwWEaMb9pcb5TVlltuKTHbA9GnCIiACIiACIiACIiACIiACIiACIhARQTqImRXlKPIwc8++6wThJjGH2dphSjOrVTI5hy8FXfbbTe+FhliJYvwEed5iimmMIT9GDhwYCcvyZEjRzpRcdy4cYXzuyJkIxCde+65hoUGo/bdd985Ue3NN990gh+em3hjRy3Ow7eWQjbXhz3ClvcKD/OEmIzoykAGYnMYTsQfx+KNeGn7wQMGQG6//XYz8cQT+0MKn2+//bYL64HHKkIzsbGjYq8/OCpks7DgLbfc0immMaL0c88958obwbJPnz4ubcTk6AAMYnt08T5/vaTPOKGZcCKI87POOqs7DYGa3zx7XD/qkevTRvA95ZRT/E/3GZd+noRsboL6hcic9AwRToWyYEAp7hn65JNP3AwL/wyRZtr2I07I5jkLPanhyb9evXrFCs1c75133nHXJEyOt7iFZdlHOTPIg1COgM+zTDsTd/8cX42QzXlxi1H6a9O+0c6xaCsDewyA9ejRg9MKxj0xcBIOohH2hJkKUcMr+4wzzohu1m8REAEREAEREAEREAEREAEREAEREAERKEugaYVsRJFhdvo8wlUokETvKK0QxXnVCNl42iK84GFZqY0ePdrFZUaEDa0rQjbpzDjjjOaiiy7q5BUZXiPp+/PPP2/22muvgiDsj6u1kM11dtppJ8MCfZUanpych3AYGttIM40hXh599NEuXnd4fFTIZh/e1MSdDr2sw3NKfUfkZqHSShZ6JL0koZl7xGN28sknL3XZwj5CXRD6gUGN0JLSX2211cLDEr+XC1HBidU+13GDRUnhcogHj9d9pUa54L0erYtp2484IRsvfZ6pOeecM1V2GIyjnvHMhcZgDINTiy66aLg58Tv3gFc5XtChVStkI44jZhN+p1Kjbu6xxx6GkC2hrbXWWm6WSLiN74ToIRyMTAREQAREQAREQAREQAREQAREQAREQAQqJdB0QjZep0yrx3MPb+xyllaIIp1qhGzOwwMSsYaF3dIaXozHH398bJzbagW/8NqITqQfxrsN90e/4wF67733urAEhMqIWj2EbK6JSEyok2jc4Gh+/G9EO+JDwzPOCFWAoJfkpco5xAVGmMa7dPjw4UXJxAnZHICX7ODBg523fdEJJX7gsY1IV6mITZKlhGbCTiCYlhOz8cRnkOKbb77plMtS6Xc6OGZDswjZZK3SZ+jxxx93ZRk3qyNt+xEnZBODm0G2c845x3nIx2ArbOKZ2HvvvTsJvv4AymeIDQ+06qqr+k2xn5QtYv4888xjjjvuuKJjqhWySQRvawbs8PRPa3i487y/8cYbnU7BK554/tHZCkkDFJ0S0AYREAEREAEREAEREAEREAEREAEREAERiBBoqJDN9PUvv/zS/SOONkLc3XffbfBkTmtphSjSq1bI9nkhXMFGG23kxKZu3br5zYVPRPi33nrLxZB97LHHCtujX7IQskkT8Xb55Zc3G264ofOGjfMgJjzFM8884zzbwxi+0TzVS8jmuohl66+/vovx7BfFjOYHz2JCoFx99dWGeyhlK664omMwYMCAorAHiIwPPvigYSE64lsTjiStkM31CDPCQn4LL7ywC3lCCJmo4emNQE44kVJlHj0v+ruc0DzDDDM4IXTllVfuFCYFQRFOd9xxhwtHEU2b3+XSjzsn3NZMQjb5SvMMsVjinXfe6eLcJ83qSNt+JAnZPKeEeGGQi0GVaOxqPJaJj8/A3FdffRUi7fSd+kw61GmEasrMG6GJeMbwzifMDWJ+lkI21+F6tCUrrLCCC2HCGgZRgyNt3F133eUWVg3DtESPJdzInnvuWQj/8+STT7q49qXOiaah3yIgAiIgAiIgAiIgAiIgAiIgAiIgAiLgCWQuZPuEW/kTEXuWWWZxIT5Y/AzhHaEU7+FGiTSIrizARtgRYtiSF+JzM0CQJOI1uowIqTDzzDM7j1a/iB8sCadB3is1hMDZZpvNxZQeNWqUS6OcCJ72GqQNWzxXEZURExEmGXwJ45+nTS96XFqhmeN49rhPwodQzp999lnTlnH0PrP+7Z8hBimITc3MA8rl448/jl2cs9rrlxKyfZo8IzzHhOqgzjHAwL9q2gTKee6553axqakLpBPG1fbXrOUncbG5F541vNlZaJQ45OUE+TBPDDhwH7RD0ZAq4XH6LgIiIAIiIAIiIAIiIAIiIAIiIAIiIALlCEjILkdI+2tKgNjjhBvACL+w2WabVSSU1TRzdUw8rZBdxyzpUgGBNEJ2cLi+ioAIiIAIiIAIiIAIiIAIiIAIiIAIiIAIZExAQnbGQJVcZQQIlUDIFm94nRIP+9RTT+20uKM/phU/JWQ3d6lKyG7u8lHuREAEREAEREAEREAEREAEREAEREAEWp+AhOzWL+OmvkNiB88555yd8kjoDuIXEzqjHUxCdnOXsoTs5i4f5U4EREAEREAEREAEREAEREAEREAERKD1CUjIbv0ybuo7JMY4saeJxXvggQeaySefvJBfxMOhQ4cWfrfyFwnZzV26ErKbu3yUOxEQAREQAREQAREQAREQAREQAREQgdYnICG79cs4N3d42GGHmQ033LCQ37vvvtscddRRhd+t/EVCdnOXroTs5i4f5U4EREAEREAEREAEREAEREAEREAERKD1CUjIbv0ybto7XGKJJcwXX3xhiIs911xzmcGDB5spppiikN8hQ4aY4cOHF3638hcJ2c1duhKym7t8lDsREAEREAEREAEREAEREAEREAEREIHWJyAhu/XLuGnv8NFHHzXdu3ePzd8PP/xg1l13XUOs7HaxSSedtNOt/vzzz522aUP9CTDQ0NHRUXThX375xYwfP75om36IgAiIgAiIgAiIgAiIgAiIgAiIgAiIgAjUhoCE7NpwVaopCCQJ2U8//bQ5/vjjzeeff54iFR0iAiIgAiIgAiIgAiIgAiIgAiIgAiIgAiIgAiLQ6gQkZLd6CTfx/S244IKmf//+ZtpppzW//vqr+eCDDwr/mjjbypoIiIAIiIAIiIAIiIAIiIAIiIAIiIAIiIAIiECdCUjIrjNwXU4EREAEREAEREAEREAEREAEREAEREAEREAEREAERKAyAhKyK+Olo0VABERABERABERABERABERABERABERABERABERABOpMQEJ2nYHrciIgAiIgAiIgAiIgAiIgAiIgAiIgAiIgAiIgAiIgApURkJBdGS8dLQIiIAIiIAIiIAIiIAIiIAIiIAIiIAIiIAIiIAIiUGcCErLrDFyXEwEREAEREAEREAEREAEREAEREAEREAEREAEREAERqIyAhOzKeOloERABERABERABERABERABERABERABERABERABERCBOhOQkF1n4LqcCIiACIiACIiACIiACIiACIiACIiACIiACIiACIhAZQQkZFfGS0eLgAiIgAiIgAiIgAiIgAiIgAiIgAiIgAiIgAiIgAjUmYCE7DoD1+VEQAREQAREQAREQAREQAREQAREQAREQAREQAREQAQqIyAhuzJeOloEREAEREAEREAEREAEREAEREAEREAEREAEREAERKDOBCRk1xm4LicCIiACIiACIiACIiACIiACIiACIiACIiACIiACIlAZAQnZlfHS0SIgAiIgAiIgAiIgAiIgAiIgAiIgAiIgAiIgAiIgAnUmICG7zsB1OREQAREQAREQAREQAREQAREQAREQAREQAREQAREQgcoISMiujJeOFgEREAEREAEREAEREAEREAEREAEREAEREAEREAERqDMBCdl1Bq7LiYAIiIAIiIAIiIAIiIAIiIAIiIAIiIAIiIAIiIAIVEZAQnZlvHS0CIiACIiACIiACIiACIiACIiACIiACIiACIiACIhAnQlIyK4zcF1OBERABERABERABERABERABERABERABERABERABESgMgISsivjpaNFQAREQAREQAREQAREQAREQAREQAREQAREQAREQATqTEBCdp2B63IiIAIiIAIiIAIiIAIiIAIiIAIiIAIiIAIiIAIiIAKVEZCQXRkvHS0CIiACIiACIiACIiACIiACIiACIiACIiACIiACIlBnAhKy6wxclxMBERABERABERABERABERABERABERABERABERABEaiMgITsynjpaBEQAREQAREQAREQAREQAREQAREQAREQAREQAREQgToTkJBdZ+C6nAiIgAiIgAiIgAiIgAiIgAiIgAiIgAiIgAiIgAiIQGUE6iJkd+vWzUw7zTSmR48epnv37mbiiSc2HR0dleVUR4uACIiACIiACIiACIiACIiACIiACIiACIiACIiACDQFgfHjx5tff/3VjB071nz//ffmv998Y8aNG1ezvNVUyEbA7tO7t+nZs2fNbkAJi4AIiIAIiIAIiIAIiIAIiIAIiIAIiIAIiIAIiIAINJ7A119/bT4dNaomgnbNhOwZpp/ezDrrrAXP6zFjxjh1/ueffza//fZb46kqByIgAnUnMMsss7hrfvTRR3W/ti4oAs1MQHWjmUtHeRMBERCB6gmofa+enc4UgWYmoLrdzKWjvImACNSbAI7Mk046qbvs1FNP7T7x1B45cqT5cvToTLNTEyG7d69eZqaZZnIZRcD+9ttvJV5nWmxKTATySUAdvnyWm3JdewKqG7VnrCuIgAiIQCMIqH1vBHVdUwRqT0B1u/aMdQUREIH8EphqqqmMF7Q/+eQTM+qzzzK7mcyFbDyxZ5ttNpdB4qL8YOOjyERABEQAAurw6TkQgXgCqhvxXLRVBERABPJOQO173ktQ+ReBeAKq2/FctFUEREAEPIFQzP7www8z88zOVMjGlXzAfPO5cCISsX3R6VMERMATUIfPk9CnCBQTUN0o5qFfIiACItAqBNS+t0pJ6j5EoJiA6nYxD/0SAREQgTgCXswmzMhrr7+eSczsTIXs2fv1cws7Ek6EwN4yERABEQgJqMMX0tB3EfgfAdWN/7HQNxEQARFoJQJq31upNHUvIvA/Aqrb/2OhbyIgAiJQisCMM87o4mejE78/YkSpQ1Pty0zIxht7/gED3EU//fRTxcROhV8HiUB7EVCHr73KW3ebnoDqRnpWOlIEREAE8kRA7XueSkt5FYH0BFS307PSkSIgAu1NAL14hhlmcBBefe21LntlZyZk+wUe5Y3d3g+o7l4EShFQh68UHe1rZwKqG+1c+rp3ERCBViag9r2VS1f31s4EVLfbufR17yIgApUS8F7ZWSz8mJmQPVf//obYJ6NHjzZjx46t9J50vAiIQBsQUIevDQpZt1gVAdWNqrDpJBEQARFoegJq35u+iJRBEaiKgOp2Vdh0kgiIQJsS8F7Z3333nXn7nXe6RCEzIXuhBRc0k0wyiVFYkS6Vh04WgZYmoA5fSxevbq4LBFQ3ugBPp4qACIhAExNQ+97EhaOsiUAXCKhudwGeThUBEWg7Al7I/uWXX8xLL7/cpfvPTMgeuMgipqOjw3z00UddypBOFgERaF0C6vC1btnqzrpGQHWja/x0tgiIgAg0KwG1781aMsqXCHSNgOp21/jpbBEQgfYjQLs5fvx48/wLL3Tp5jMTshcdONBlREJ2l8pDJ4tASxNQh6+li1c31wUCqhtdgKdTRUAERKCJCah9b+LCUdZEoAsEVLe7AE+nioAItCUB327++/nnu3T/ErK7hE8ni4AIVELAN1wa8KqEmo5tBwKqG+1QyrpHERCBdiSg9r0dS1333A4EVLfboZR1jyIgAlkS8O2mhOwsqSotERCBmhLwDZeE7JpiVuI5JKC6kcNCU5ZFQAREIAUBte8pIOkQEcghAdXtHBaasiwCItBQAr7dlJDd0GLQxUVABCoh4BsuCdmVUNOx7UBAdaMdSln3KAIi0I4E1L63Y6nrntuBgOp2O5Sy7lEERCBLAr7dlJCdJVWlJQIiUFMCvuGSkF1TzEo8hwRUN3JYaMqyCIiACKQgoPY9BSQdIgI5JKC6ncNCU5ZFQAQaSsC3mxKyG1oMurgIiEAlBHzDJSG7Emo6th0IqG60QynrHkVABNqRgNr3dix13XM7EFDdbodS1j2KgAhkScC3mxKys6SqtERABGpKwDdcErJrilmJ55CA6kYOC01ZFgEREIEUBNS+p4CkQ0QghwRUt3NYaMqyCIhAQwn4dlNCdkOLQRcXARGohIBvuCRkV0JNx7YDAdWNdihl3aMIiEA7ElD73o6lrntuBwKq2+1QyrpHERCBLAn4dlNCdpZUlZYIiEBNCfiGS0J2TTEr8RwSUN3IYaEpyyIgAiKQgoDa9xSQdIgI5JCA6nYOC01ZFgERaCgB325KyG5oMejiIiAClRDwDZeE7Eqo6dh2IKC60Q6lrHsUARFoRwJq39ux1HXP7UBAdbsdSln3KAIikCUB325KyM6SqtISARGoKQHfcEnIrilmJZ5DAqobOSw0ZVkEREAEUhBQ+54Ckg4RgRwSUN3OYaEpyyIgAg0l4NtNCdkNLQZdXAREoBICvuFqBiG7x1RTmRmmn978+OOP5uuvvzY///xzJbdSdOykk05qevXqZb744gszbty4on2V/Ojo6DB9+vQx33//vfnuu+8qOVXH5pxAs9SNGWaYwfzhD38wn3/+eVMRzSpfU0wxhenZs6f55JNPzO+//95U96jMiIAItCaBZmjfs+xfkNZ0001nppp6avPtN9+Y//73v11qT7Nql7Pqi7XmU6i7qgWBZqjbtbivatJUPa6Gms4RgfYj4NtNCdlB2S+x5JJm7bXXdp2rWWed1Tz88MPmtFNPDY7QVxEQgUYS8A1Xo4TsBRZYwKyzzjpm4KKLmskmm6yAYvz48eb11183Dz74oLn33nuNsb/L2cJ/+pNZYcUVzRxzzmm4r4kmmsi9yH366afmvXffNU88+aR58oknyiVjevfubdZdbz0zxxxzuH8+X1999ZVL59VXXzW33XZbl14Sy2ZCBzScQKPqRrdu3czGm2xi5pprLtPfPssM8GA//PCDGTFihHnnnXfMP/7xD/N9BQMrf/zjH81ee+/t0ll44YXNiy++aM484ww3YOQ2pvgvs3xZwWX11Vc3i9h8UFdnnHFGd3UGrj788EPz/nvvmeF33eU+U2RLh4iACIhAxQQa1b5n2b+YeOKJzbLLLmvWsu9Z/fv3N/z2Rnv67+eeM8OHDzcvvfSS35z8mWG7nFVfLDmz2iMCyQTqXbfXWHNNs/TSSxcydOSRR6Z6Z/EnzDfffGaLLbf0P1N93mffix577LHOx6oed2aiLSIgAmUJ+HZTQnaA6tjjjjOLLLJIsMWYve3LNC+qsvIEdtxpJ8NoKvbmG2+Y++67r/xJOkIEKiDgG656C9mIwwcedJBZaqmlyub26aefdgNgiZ7VtuO2iRX+ttlmG+e5WirBO+64w1zy978nitADBw40Bx18sJlyyilLJWNeeeUVc/JJJ5lvv/225HHamV8CjagbiBy8BM0622wlwX355ZfmxBNOcKJ2yQMn7KR+bLvddkWH/t3Wg9vtgEwayypfiOH777+/WXqZZUpeFhHmvPPOMw8+8EDJ47RTBERABKoh0Ij2Pcv+BTPOjjr6aIOTUCnDKeCaa64x1193XeJhmbXLGfbFEjOrHSJQhkC96/YugwaZddddt5ArHPjSON/4E3gPGnzEEf5nqs9hl19ubrrppqJjVY+LcOiHCIhABQR8uykhewK0aaaZxlx51VWdhKVbb73VXHrJJRWgbd9Dr7jySufNDoH777/fnHXmme0LQ3deEwK+4aqnkN29e3dz8t/+5rydw5vihYvwHT169OjUbuCJetyxx7pQIeE5fD/4kEPM8ssvX7R5zJgxLhQDnqhRURrvpMGHH150PD/wahpkO6SEcfCGoDZq1CjTwwrbPe203dDw0N5v330r8moNz9f35iZQ77oxzzzzmCHHHFP0vBJqg5Ai4+1nLytyR5/N4+zxL/7nP2VBXnDBBZ3E8XftLIV999mn7LlZ5QvP8r+dfHKnfDAFnnqPWM409NCutn2I66+/Ptyk7yIgAiLQZQL1bt+z7F/069vXnGgH0v1sHQ/jt99+Mz/avk90O/sffeQRc9ZZZ3UK2ZZlu5xVX8zfjz5FoBoC9a7bzSBkqx5X86ToHBEQAU/At5sSsicQWceOTiIKRQ3xZ7ttt7WDleVDBUTPbbffErLbrcTrf7++4aqnkL3bbrs50djfLV7NV1xxhXnEhh766aefzOSTT+6myW63/fbu0x+HoLyrbVN4WfOGh9MxVuD2NnLkSDfg8/bbb/tNzmNpHyvYzW2FQm8HHHCAeevNN/1P9+J3ufVwwKMBI4wD4t9jjz5aaKumskLcjjvuaFZeZZXCeXFeEYWd+pJrAvWuG6effnrhGUXA/seNN5ob7T/qBIbIi6fP1nbmgRd8X3j+eXPUUUeV5NyvXz9zrvVuxvi7SyxVb4N22cXFpva/4z6zytf2tj5vtPHGhUs8Y2danG/r2Ne2T4CRr8UWW8zsueeehUEj6uE2W29tfvnll8J5+iICIiACXSVQz/YdkSmr/gUh0860gvTss89eQEDoNPoiL738spttxqD7/PPP797BprYxs70Rqu0M+3cmtKza5az6YmHe9F0EqiFQz7pN/rIWsmkrcN4pZZ98/HHRuimqx6VoaZ8IiEA5Ar7dlJA9gdQZNv7mXHPP7X7Rwdp0s82cQMWGw6035MtpYrZNSIsX3Jlmmsn9YkGoakVwXv7x0MQDDI/NSgxxjcWtiEH3hZ3WXUl8Uq7DtelcTmW9TRENx44dW/by1QrZiHHT20XzprBepIgEo0ePrppZ2UzqgFwT8A1XvYRsxOTTTjutIKYh2B1qPaqJhx016sx+NgzBcsstV9h14dCh5s477yz83tsK1Kuuumrh9w5WLGOBx6iR1uXDhhn/UvfPf/7TXHThhYXDVlppJbO/Fbe9nWlnPzxgZ0HEGaEfiP+PEdN3j913jztM23JOoJ51g78tPJ/eSs3AWW/99c3OO+/sDqX+/NUK29/Yxb2SLHzBQTyexNYFH/ILb2e8npMsy3xdcumlbgFWroWX+Y477BB7WWLTn33OOYV9J554YqrY9oUT9EUEREAEyhCoZ/ueZf9iw402MjsEbSfOQQz+xb2T0H4fY2ft+FBVvDvtbY8d8cEHBTpZtctZ9cUKGdMXEaiSQD3rNlnMWsg+/LDDzMt2UKoSUz2uhJaOFQERiBLw7aaEbEumd58+hvib3hCXtrPxOZf/85/dJhZvOzd4UfXHRT8RqFgUqq/1KEOIwpjq/5H1uvzXv/5VJGj5c4m7u/jii7ufeGUeMXiwGTBggPOknNMuhuKnZrMA3I033OBCdvhz4z7xEGPhLdIIbaQVsG638XbvveeecHOn77yUb7LppmaJJZYwk0wyidtPZ5Lrv/XWW+YKK17QEfXG8SfZ6dcYIRi899yvv/5amBLo78uf4z/JK4vU/ckueufPYx9ebXhi3HLzzU7U9sfrUwR8w1UvIXsP+xK1xhprFMDz/LNwXZLhBT3Memv7+k9s6sMOPbRwONNrF1xwQfcbAZu2JsmIQ0eYBAwv8FtuuaVw6BZbbGG2sp6f3pIEcfbj4brCCiv4Q13ogzQDU4UT9CUXBOpZN/j78rdTTilwIYwUYnacMVDJ8+rtYTuTIdF7xw4CD7N1jIFNjAEa/g4hfGDMctjZrsWQZFnli79H/L30f38ZJCIvSbbBBhsYwpNhb9qZE0899VTSodouAiIgAhUTqGf7nmX/4qKLLy449pRyBPBAeC84esgQ/9Nce+215lobMxvLsl3Oqi9WyKi+iECVBOpZt8lio4Vs1eMqHxSdJgIiUCDg200J2RbJlnb13S232srBec8u7LiPXeCRlbUPtaOMWLnpwiwEh+CFF0MpYxE4psn9+OOPhcNYMMEvIPeGXSDxZrsYAttCYbdwsP1y3rnnmnsSxGjyTMw3//Idnue/X3P11ea6hEVUZkeUtkKbX7DRnxN+fv311+Z4uyimD4Uw11xzmTNKvOBzLt6rB1vB3hv3tpMVI/DUK2XEIT3h+OPNa6+9Vuow7WsjAr7hqoeQzXN6la0vXqBiwTq8Re10gZLECaWw6KKLumN+tmEWqJP+nL322susZge7vOGpOsoOElVqf7aDbCzy6O0cO9DGquCy9iVQz7rBbJ0r7ZoI3h566CFzup250FVjejnx6DFC8mxl/zYzqyhcvyIaZie8Zpb5utgKMH0mzKxCQGcmAwPTMhEQARGoN4F6tu9Z9S9msQs7DrWz0rzFhQrx+wqftt9F+KmePXu6Tbw/XHzRRYXdWbXLWfXFChnTFxGokkA96zZZbLSQTR5Uj6EgEwERqJaAbzclZFuCF1tv7D7WKxvj5RzPZ7zIrrWCr/esPPGEE8yTTz7pjon+F42vTezcF1580XS3aSy88MKFaf2cRywpxGpvoZCN1yUv7QjJxBn90E6nC727OYfYm4Q2wDs6tAUWWMDF3vX5JUTH8y+8YMZY7+aFrMczXpnezrPxR++5+27/033ilU4IBR/KgI3E78W7bH7rfedf6NnOyzyxShH2OG/XXXdlsyEP/vp4bX8wYTog6YQLZuK9tmPgVYeXBvfzqQ3DAi/ECG8MIiAghF7gfp8+24+Ab7jqIWRzraFBOI9nn3nGHBvEt66G/korr2z2t+FHvFHnL7TXIG0fW9jvK/UZDaGA6EfIBbxiCUUkaz8C9awb0L30ssvMjDPOWACNSEGc7K7UzVBc+I9dFJIZStgp1vt7vgmzjKJhdgoZmPAlq3ztYxdG/ctf/lJInsHby2y4EQZWqw0XVkhMX0RABESgAgL1bN+z6l+sseaaZo899ijc5SX2Xeu2224r/K7mS1btclZ9sWruQeeIQEignnWb6zaDkK16HD4B+i4CIlApAd9utr2Q3d+G72AhEm+7WVHWv4gfYWPLLjkhtiwiNmJ2nOFBhicZRgiRs4P02DbIprnOOuvw1Ym1u1gR2FsoZLONF+Rzrdf1w9bDDcEYQZ3Vw50n6ISTiCHNApTe8Bhl+p73pMaze7CN6x16j4V5QDjG67wwvdt6QFxkPR58XG/2D7FT+1iYy9u8887rQoggtGNxIRbSxMhGpL7kkksKgvf3339v9rVxg4lB6szmZWMbU4+F87w9ahewO2WCl57fps/2JOAbLl9Ha0mBECBMP/XGQnZX2rAhXTFCjzCDoVevXkXJUFcJQ/KmrbsIZXwvJ5YddfTRhbBEPjE/KMQAFO0AdXjcuHF+tz5bmEA96wYY1dPisAAAQABJREFUowOSHi3rQrxqn18GJ+lg+MUR/f6kT/62XG2nkE9p10rAzj//fHP3XXe574Sg8n83GfzZ2s6gSqofWeVr3vnmMyfYv/l+cNZlxP7H9V+yIvtbVtj+jx2wJu68TAREQARqSaDe7XsW/QvCn4VhpY6y71QvWAebrlhW7XKWfbGu3I/OFYF61+2shew77Ro+n5SYWcp7yfBgrSBKXPVYz70IiEBXCPh2s+2FbKb2+xAXH9tVdXcdNKjANRyxR2ji5TkMC+IPvNHGzGVxRYywHYTvKDIrzk5sV+72Rvxob1EhO0ks22+//czKq6ziT3Oxdf0icWtboXvX3XZz+8gnIjdhOUIjTALCgF9EhXi7eJdhLGh3erAy+A12Qa2rYhbUwosakQCLsmJbGiE7FCQ4Bw9XvFGLzOb1WLvgyyIDB7rNpdgXnacfLU/AN1z1ELKXW355cwhhQSbYaaeeaojv21XD24nBr9CbNZomi+E9/thj7nqI0nFG7GDaDx/GJO4Y6s6zzz5rGAx6yg7GJYl/cedqW74I1LNueDKb29jXWwex2v12/8kLDAMzjz7yiHnE/ov7++mPZdCYwWOM53Tbv/7VEMoKY9Hjy+xsJm9MPQ8HWv12/5lVvha2s5mOtANGUTHbX4dPZhw9ZusXHumFAdnwAH0XAREQgS4SqHf7nkX/IrrGCG16FrMrs2qXs+qLdbFodXqbE6h33c5ayC5XfLyHbDhBOwiPVT0Oaei7CIhAJQR8u9nWQjbiLrE3p512WscuKuDi4Ux4kYkmiNDnnH22ue+++zpxDhcNIfQH06sfsoJXmti3USEb74W41bxnn312c4711PZGnGpibmNDrOjrxSymP+9vRe84C6dtv/POO2Y/O3Ua23SzzcxfbQfTW+iV7rfxCS8WdPQWFSXSCNnH2XwvvMgiLokxY8aYzezCknHG4nQshOkNYRtBTtbeBHzDVQ8hm4EjBpC8HW/jtT+d0SJuzKJYdbXVzMo21IifCeGvE/1kIdrbE6bj8rK5oo3NT3x+FrqjjibZ448/bk61IRoIQyJrPQL1rBshvYF2wHEVG4KDBYLLCb5H2IGXJA9t1qRgnQcsuq4C286yf3/nnHNOvjrRmPUmSllW+ZptttnM6nbBV+LG4sWXZPw9PGbIEK3pkARI20VABKom0Ij2vav9i31t/2mVwAGH/j79/iwsq3Y5q75YFvekNNqTQL3rdrMI2ZS26nF7PvO6axHoKgHfbra1kM1o4HFBuBDCbbDYY2jHWfGKuM3Yyy+9ZA63ITuihifZYXa7F7z9frzJmF79/L//bR6z3pVxHbhQyCa27TYJ3m10KG+2XtR+Icdw0cbzrKd13759/WU7eWP7HeFLOGKCF693s97chC/BELkYOa1G7EojZJ9/wQXuDxfXIvTBQQceyNdONoddePJsu4Cdt7i43n6fPtuHgG+46iFkMyMgjInt4+dnTZsFUxHd5pp7bjOPnR3Ro0ePTpcgxvytt97aaXu4Aa/VJWxbNI9Nh2l7/I4ag0EMCslaj0A960YcPWYlLbnUUmY+++zxTLMuQ3RgBY9lBlCjM4Y4l7AiXgiPi6W6iRVBtp0QUmvs2LFuhlSauPJdyVd4n/ztpZ4uYEMOcX/88/n1x+F5NNjG9X7DLlAmEwEREIGsCDS6fa+mf7HtdtuZTTbZpICARd8ZpMzSsmyXs+qLZXl/Sqv1CdS7bmctZONowyztJPvdzrC79557kna77arHJfFopwiIQISAbzfbWsiOeguMjIl16UNxwI9p0tvZjlmcR9nSyyzjYnhOP/30EdT//xNPbaYeX2BF51AkDoXsOC+0MLHLhw0zTIXDwtW/8Sr3K3yHx5f6Hk71Och2Lv9sPaCxaPxttzHlf2mE7DCvj1iv9VNtuIY4I07q9XbRTW+1EhF9+vrMBwHfcNVDyI7Ogij1vGZFD+FvHhuPfvPNN3eimU931KhRZudggVS/vdQnnt5r29j8a9oFl8JBNkIPUc9lrUWgnnUjDTk83fi7wrMcDs6cbhcVfsiuARFadPYDAvXnn30WHmJmtouv+oFcdvzNhuchpEelVkm+SqU92WSTmUUXW8xsZUOOzTrrrIVD7733XnNuMAhb2KEvIiACIlAlgWZr39P0L6KhBM+zs0rvKSNoVYmncFpW7XKWfbFC5vRFBGII1LtuZy1kH25n07388ssxd1b9JtXj6tnpTBFoBwK+3WxbIRtPqqtsLGu/QGLaQo/zFPPn0vFhgbhlrKhN3Gk80sIXb46LekSGQjYe3H/dZhufXNEnC2Hhke0FqTAW9wVDhxZepBGoL7S/44xzvYiOKH///fe7w3a1i1EieGG19si+wHpk+8GBUsJ9VEQMF/5yGdV/bUnAN1z1ELLpSF1n48V7r8sPPvjA7LnHHmW5M9g0/YQBJw5m5oEN+lv2vOgBR9p4wXhYe6Nt8DGD/bY0n+uvv77Zya4F4O0UG16EmMWy1iJQz7pRCTnCgbCgsvfORshA0AgtnPkUbi/1nbUVwhkTpY6N25cmX3HnRbfRh2CmkR/E/tQuerRLUN+ix+u3CIiACFRKoFnb91L9i+iC2f+0i8JddOGFZW+dcAOT23YVG2dDNo2wfa9KLct2Oau+WKX3oOPbg0C963YehGxf8qrHnoQ+RUAEQgK+3WxbIZtYnMTkDO37778Pfxa+h95khB4hBEkaY0oz8Ws33njjgic154UekaGQzb4trPdaXD762dAh51pvbm8n2pAoT9rF27BQBCglDvtzo5/hlG32JcXIjp4X/Z3GIzvMK/fJ/cbZ8jYe6cEHH1zYFcYEL2zUl7Yj4BuuegjZwA3rJwvQHW0Xfiu1yBznnG1j+c4xIZYvC7LusP32bHZeqYtZD05vL9lQRaUWPlp11VXN3vvs4w93YXicKG63UD/8ArIf2pkk0ZBIhZPsl169eplLJizsyvYrrrjCxfEPj9H3/BOoZ91YcKGFzPTTTeegffvtt+b5558vCXCYfea80Pviiy+aI22sbG+sUcHfjnDQN+5vIMeHf4tZNJlQXOGxWeULlv379/dZdIuuMvibZPsfcICLU89+Zl9tYAePZCIgAiKQFYF6tu9Z9S8YvLzm2msLawuw/s+ee+5Zst/D34NLL7us4EDwgHW4OfPMMx3GrNpl/o5k1RfLqnyVTvsSqGfdhnKjhWzV4/Z91nXnIpAVAd9utq2QfYT1diS2NfbNN9+4F2KEqjiLehzsOmhQIR4UHTXvJc25vFxHjQ7T0XYRKG/honGhUMb+a22c0Gttxy9q0dW/CTNAuAFsIyuUbz9BLBs3bpxhZfC4eNzdunUreDn8ZvOJAIHhPX56sHDW9dYL9WobriRqCPIbbrSR6bA7PpsQ6zQ8JhSyETaOPuqocLf7HuaVDYNtbHEEvaiF5YMwsLWdvh13T9Hz9Lu1CfiGq15CdnTAq9yLGCGGwjj6YZiBaLicu+++25x/3nmJBYaIjZjtjXrthe9z7XnM+MCITcesiiSvbxaCRGjzdpoN5/OwDesjay0C9awb4YsQs3h22nFH8+WXX8YCZYbCZZdfXvDIJlbiuYFHdnT6eamB1OjaCdQf6pG3rPK1lI31zd9mb+XCmDBQxIARJo9sT02fIiACWRGoZ/ueZf9i9913N2uutVYBw2uvvWYOPeQQ212Jf98aZPsy60yYIcpJYSiqrNrlLPtihRvTFxGokkA96zZZDPtJ/F6bNbIS6iP7oxath5WGFomeX23/SvU4WjL6LQLtQ8C3m20pZDNVhYWlWEARKycoscgJL+LebrBC71UThF4WBzljgrcA+4fasB7D77zTH+o+l1t+eXOI7bh523///c3bdhFILCpk4/VF3OjH7eKQdPQQyVdbfXVDZ9AbC2VtueWWhT885O/Ciy4qeDC88sorzuMtFNWJC3riSScVQpDcNXy4IcyHMyvGX2IXk/Mv4uQBgZl0vM0888zmHCs++DALV9uwLNdfd53f7T7ZT0gQjBAneJ5HF/Uir3+31/LiP6ES8HBnoUtvdHrD+3366acNHtkyEfANV72EbKu+mZNsvVlggQUK8PGKZuDnswkDSW6HPW7DDTd0C6gSBghD4NvdLqT6ySefuN/8d5b11iakAUYdudy2K3fa6bbRl7rVbZ2ns+nr2/vvv2/23msvdx7/7WgHsjawi7J6Qxy8zHoxRQd7WPSRmQ0+tj7X3HGHHYrqm09Dn/kmUM+6sfjii5uj7OwEb8wEOtuGDwmfdfbhhX2gXYNh/vnn94eaE+wCyk899VThN38/+TuKcf6gXXYp7Iv7wt9i/o5gr1tRJJy5k1W+WBgZL3Jf/xhAYqZFdDYG+3e0Ir5fLJk83XHHHeZi+/dYJgIiIAJZEahn+55l/4K29KKLLy6aTUN/5VI7+PejDRvirXv37mZ3G7ptxRVX9Jucsw4Dm/5dJst2Oau+WCGz+iICVRKoZ90mi1Ehex2E7DIWvqNEhWj0gnIxst2w1QSxXPW4DGztFgERKEvAt5ttKWQjDO8ViEJHWe/sF154oSS0s+3iTXiDYdGF18444wwz19xzu32IVyzE+Nqrr5ofxowxc9vt6623XuGFeMSIEU6Q8n8UQiEb0ReBF6Gd6dKIV4he/PaGyMy07KgXM39YDrN/TPz0bEIavGjvCW/NmawIvdxyyxXSofO4txWPQyFukYEDi+KNkr933nnHvGEFiv5WZJjHem37tOlUIoZ571Cft4OtWL+8Fe29cRwCB2EPLrXitTdE+C2th7U3xLVXLS9EjIE2H3369PG7zNixY11c4s+tB7hMBHzDVTch2yLv3bu3E6Cj9fDNN980n9kF6RDV8I6O7ieePqJWaAv/6U/mGDso4+sS+6ir1BHalel69jT97GBQuHgcbcoJNpQQMYG9xb0c0ma8a+vsR7bOT2YFttn69nUCYXitm266yQwLBuV8evrMP4F6142T7WKLoUDNzJm3337bfPzRR4bFGnn+CM9BiC1vDAIdbIVt//ePtv5iW0+83XjjjeZKKyCXslBkIR3+FlGHvGWRL9La2sakZ6HK0N57910z0t4fA68z2bzztzFcaJlZTvvamRRJ3ulhWvouAiIgAmkJ1LN9z7p/wfsH7wd+nQTumUF3/l4wI3ZWG8qJtXO8cxH7f/jhB3PsMce4dwh+e8uqXc6qL+bzpU8RqJZAPes2eYwK2WnyTbg0+nhYVMhOcz7vHbx/eFM99iT0KQIiUA0B3262pZB90sknFzws6SxtZYVVxKJStulmmzlvS3/MAdar+q0JXtV4kx1y6KFmxhln9LtjP/HCZgpNKMqGQjYv+bfaBR0PHzw49nw24sF5c/DHIDwwGlM33Oe/IxoPsZ50caOn69k/VHiXhcKXP89/IpaddOKJsecj9J9uRX3vkerPicbtJn3CJqyyyir+kNhPOrqnWF7l4q/GnqyNLUnAN1z1FLIByXWH2JeqcnWcY6kjp9oFFZMGxxay8YXxUiUWZDkjlMmJtr6FsyP8OeSFdsd7s/rtcZ+0b8y6+GdEWI87VtvySaDedYNQVbvZGQcrl2nHPU0GeFnkkb9B3hjQdLOLJmxABH7XisWlbD47y+AUO2vJW/QFKYt8+bQJe0LYrlBg8fuinwxGMXNIInaUjH6LgAh0lUC92/es+xeEXTvAhjhjEe1yxsLatKU4CsRZVu1yVn2xuDxqmwikJVDvut0MQjZsVI/TPiE6TgREIErAt5ttJ2RH43U++MADBo/qcgawocFq29HVt5kWt731DFtiiSXMdBMWwSJNPKjpjD3++OPmGhuOIyqYR4Xsgw480NC52mnnnQsxcEnnazu1+WYrct9+2238TDQ8H4hD7cMX+AMRDx6yQsJ1NhzI6NGj/eZOnwMGDDAs/rjIIosUCdp4TSDEX2ynCCZ1LkkMkYHz8URnQRU8MBDNiaEVtT/bBevwVvfe7H4/3nyEVrn+hhvMqE8/9Zv1KQJOUAZDvYVsrsnzTLz81ddYw0w99dRsKjLqOjMliNtbqo5wEqF+9rSzQhZccMEij1WfIIM4b1mP7/NsWqG3qd/vP5nBse1227mF5kgzatT7kSNHurAjL8fEoo8er9/5JeD/qNe7bqy08spmiy22cKGpQo87SPq/f3facFt33H57J7j8Pekz00xuOwLw9vZZLmdc40ob2ssPBLHY6R5B6C1/flfy5dPgk4GiXa1gz6yLOEGbv83PPvecCycSivRhGvouAiIgAl0h0Ij2Pev+BffA+wkzN33YppAJMzAfeeQRw2w21vspZVm1y1n1xUrlVftEoBSBetftZhGyYaJ6XOrJ0D4REIEkAr7dbDshOwlIltuZSg1gpj3zko0wm2RxQrY/loUMmHrNNGbEZz8d2+8v9cl05xlsyANCDBCy4EvE6wnxqUqd5/cRJgGPDMQ7QhXwsl6p4ZnNv3IdUgQJ8trdevgRMxvhrhSzSvOh41uHgG+46i3WhQQRsxgo4pklBjAvX9RRFjHCg7ois6LcjDadvlYk620Xi2MR1fetZ2cp8TopfaYDI7bNZqfo4hWOhyihhRATZa1PoNF1A09owon0tf/+YJ9rQmPx969c+1/rkskqX4g6M1nRnbqK+PGh9Rp834YKq7jO1/qGlb4IiEDLEWh0+55l/4J3m9ntDE76PjgFEFbxS9vvf82GIqx0MDCzdjnDvljLPXy6oZoSaHTdrunNpUxc9TglKB0mAiLgCPh2U0J2gx+IUkJ2g7Omy4tA0xHwDVcjheymg6IMiYAloLqhx0AEREAEWpOA2vfWLFfdlQiobusZEAEREIHKCPh2U0J2ZdwyP1pCduZIlWALE/ANl4TsFi5k3VpVBFQ3qsKmk0RABESg6QmofW/6IlIGRaAqAqrbVWHTSSIgAm1MwLebErIb/BBIyG5wAejyuSLgGy4J2bkqNmW2DgRUN+oAWZcQAREQgQYQUPveAOi6pAjUgYDqdh0g6xIiIAItRcC3mxKyG1ysBx9yiFlyySVdLt6yiykeduihDc6RLi8CzUvAN1wSspu3jJSzxhBQ3WgMd11VBERABGpNQO17rQkrfRFoDAHV7cZw11VFQATyS8C3mxKy81uGyrkItB0B33BJyG67otcNlyGgulEGkHaLgAiIQE4JqH3PacEp2yJQhoDqdhlA2i0CIiACEQK+3ZSQHQGjnyIgAs1LwDdcErKbt4yUs8YQUN1oDHddVQREQARqTUDte60JK30RaAwB1e3GcNdVRUAE8kvAt5sSsvNbhsq5CLQdAd9wSchuu6LXDZchoLpRBpB2i4AIiEBOCah9z2nBKdsiUIaA6nYZQNotAiIgAhECvt2UkB0Bo58iIALNS8A3XBKym7eMlLPGEFDdaAx3XVUEREAEak1A7XutCSt9EWgMAdXtxnDXVUVABPJLwLebErLzW4bKuQi0HQHfcEnIbrui1w2XIaC6UQaQdouACIhATgmofc9pwSnbIlCGgOp2GUDaLQIiIAIRAr7dlJAdAaOfIiACzUvAN1wSspu3jJSzxhBQ3WgMd11VBERABGpNQO17rQkrfRFoDAHV7cZw11VFQATyS8C3mxKy81uGyrkItB0B33BJyG67otcNlyGgulEGkHaLgAiIQE4JqH3PacEp2yJQhoDqdhlA2i0CIiACEQK+3ZSQHQGjnyIgAs1LwDdcErKbt4yUs8YQUN1oDHddVQREQARqTUDte60JK30RaAwB1e3GcNdVRUAE8kvAt5sSsvNbhsq5CLQdAd9wSchuu6LXDZchoLpRBpB2i4AIiEBOCah9z2nBKdsiUIaA6nYZQNotAiIgAhECvt2UkB0Bo58iIALNS8A3XBKym7eMlLPGEFDdaAx3XVUEREAEak1A7XutCSt9EWgMAdXtxnDXVUVABPJLwLebErLzW4bKuQi0HQHfcEnIbrui1w2XIaC6UQaQdouACIhATgmofc9pwSnbIlCGgOp2GUDaLQIiIAIRAr7dlJAdAaOfIiACzUvAN1wSspu3jJSzxhBQ3WgMd11VBERABGpNQO17rQkrfRFoDAHV7cZw11VFQATyS8C3mxKy81uGyrkItB0B33BJyG67otcNlyGgulEGkHaLgAiIQE4JqH3PacEp2yJQhoDqdhlA2i0CIiACEQK+3ZSQHQGjnyIgAs1LwDdcErKbt4yUs8YQUN1oDHddVQREQARqTUDte60JK30RaAwB1e3GcNdVRUAE8kvAt5sSsvNbhsq5CLQdAd9wSchuu6LXDZchoLpRBpB2i4AIiEBOCah9z2nBKdsiUIaA6nYZQNotAiIgAhECvt2UkB0Bo58iIALNS8A3XBKym7eMlLPGEFDdaAx3XVUEREAEak1A7XutCSt9EWgMAdXtxnDXVUVABPJLwLebErLzW4bKuQi0HQHfcEnIbrui1w2XIaC6UQaQdouACIhATgmofc9pwSnbIlCGgOp2GUDaLQIiIAIRAr7dbDohO5JP/RQBERABERABERABERABERABERABERABERABERABEWhzAhKy2/wB0O2LgAiIgAiIgAiIgAiIgAiIgAiIgAiIgAiIgAiIQLMTaBohu1+/fo7ViBEjmp2Z8icCItAgAmonGgRel216AqobTV9EyqAIiIAIVEVA7XtV2HSSCDQ9AdXtpi8iZVAERKDJCGTVbnbYhMZncW9ZZSiLvCgNERCB5iSgdqI5y0W5ajwB1Y3Gl4FyIAIiIAK1IKD2vRZUlaYINJ6A6nbjy0A5EAERyBeBrNrNDpuQhOx8lb1yKwK5JZBVw5VbAMq4CCQQUN1IAKPNIiACIpBzAmrfc16Ayr4IJBBQ3U4Ao80iIAIikEAgq3azwyYkITsBsjaLgAhkSyCrhivbXCk1EWg8AdWNxpeBciACIiACtSCg9r0WVJWmCDSegOp248tAORABEcgXgazazQ6bkITsfJW9cisCuSWQVcOVWwDKuAgkEFDdSACjzSIgAiKQcwJq33NegMq+CCQQUN1OAKPNIiACIpBAIKt2s8MmJCE7AbI2i4AIZEsgq4Yr21wpNRFoPAHVjcaXgXIgAiIgArUgoPa9FlSVpgg0noDqduPLQDkQARHIF4Gs2s0Om5CE7HyVvXIrArklkFXDlVsAyrgIJBBQ3UgAo80iIAIikHMCat9zXoDKvggkEFDdTgCjzSIgAiKQQCCrdrPDJiQhOwGyNouACGRLIKuGK9tcKTURaDwB1Y3Gl4FyIAIiIAK1IKD2vRZUlaYINJ6A6nbjy0A5EAERyBeBrNrNDpuQhOx8lb1yKwK5JZBVw5VbAMq4CCQQUN1IAKPNIiACIpBzAmrfc16Ayr4IJBBQ3U4Ao80iIAIikEAgq3azwyYkITsBsjaLgAhkSyCrhivbXCk1EWg8AdWNxpeBciACIiACtSCg9r0WVJWmCDSegOp248tAORABEcgXgazazQ6bkITsfJW9cisCuSWQVcOVWwDKuAgkEFDdSACjzSIgAiKQcwJq33NegMq+CCQQUN1OAKPNIiACIpBAIKt2s8MmJCE7AbI2i4AIZEsgq4Yr21wpNRFoPAHVjcaXgXIgAiIgArUgoPa9FlSVpgg0noDqduPLQDkQARHIF4Gs2s0Om5CE7HyVvXIrArklkFXDlVsAyrgIJBBQ3UgAo80iIAIikHMCat9zXoDKvggkEFDdTgCjzSIgAiKQQCCrdrPDJiQhOwGyNouACGRLIKuGK9tcKTURaDwB1Y3Gl4FyIAIiIAK1IKD2vRZUlaYINJ6A6nbjy0A5EAERyBeBrNrNDpuQhOx8lb1yKwK5JZBVw5VbAMq4CCQQUN1IAKPNItDiBCabbDLTo0cP061bNzPxxBObjo6Oht/x+PHjza+//mrGjRtnvv/+e/PTTz81PE95zoDa9zyXnvIuAskEVLeT2WiPCIiACMQRyKrd7LAJSciOI6xtIiACmRPIquHKPGNKUAQaTEB1o8EFoMuLQAMITD/99E7EbsClK7okYvbo0aMrOkcH/4+A2vf/sdA3EWglAqrbrVSauhcREIF6EMiq3eywCUnIrkeJ6RoiIAImq4ZLKEWg1QiobrRaiep+RKA0gV69epnu3buXPqiJ9o4dO9Z89tlnTZSj/GRF7Xt+yko5FYFKCKhuV0JLx4qACIiAyUwP6rANsIRsPVEiIAJ1IaAOX10w6yI5JKC6kcNCU5ZFoEoCefHEjt6ePLOjRNL9VvuejpOOEoG8EVDdzluJKb8iIAKNJpBVu9lhE5KQ3ejS1PVFoE0IZNVwtQku3WYbEVDdaKPC1q22NQFiYvfp0ye3DD799FPFzK6w9NS+VwhMh4tATgiobuekoJRNERCBpiGQVbvZYROSkN00xaqMiEBrE8iq4WptSrq7diSgutGOpa57bkcCefXG9mUlr2xPIv2n2vf0rHSkCOSJgOp2nkpLeRUBEWgGAlm1mx02obYWsieZZBKzwgoruLh/r7zySjOUrfIgAi1LIKuGq2UB6cbaloDqRtsWvW68zQjMPPPMhr5nXu2XX34xH3/8cV6z35B8q31vCHZdVARqTkB1u+aIdQEREIEWI5BVu9lhE2opIXvGGWc0E000kWHqYxq7+OKLzcILL+wOPeuss8w111yT5jQdIwIiUAWBrBquKi7d6ZSpp57a9OzZ0/z3v/813377rRk/vrqmsKOjw/Tu3dt888035scff+x0nbQbJp98cjPNNNOYUaNGVZ2XtNfScc1HoFnqBs/zDDPMYHgeR48ebX744Yfmg6UciUCOCfTt29dQz7I0wpX8/PPPnf52JG3vyrX5W/nBBx90JYm2O7dZ2vdWAL/HHnuYqaaayjzyyCPmySefbIVbKnkP6quWxNPwnarbDS+CThn405/+ZAYNGmReffVVc/7553fan2bDX//6VzPTTDOZF1980dxzzz1pTtExNSKQ5XtJVu/a6Afk66uvvqrRXbd2slm1mx02oerUmwjfrDIUSbbsT1Z8p7GZf/75zTzzzOOEIE5i6uM777xjXn/9dXPFFVc4kSmaGNM777777sJmGrztt9++8FtfREAEsiXQqHbC3wWdmy233NIsvvjiZooppvCbnVj38MMPm2uvvda1G4UdCV8QnGl3BgwYYOaaay4z5ZRTmt9//92MHDnSvPHGG65deeqppxLO/t/mFVdc0ay88squ7ZplllnMH/7wB5eXN9980zBDZNiwYV0Sx/93JX1rdgKNrBsTTzyxWWmllczmm2/unsXQW5SBlfvvv99ceeWVsX9Hm52r8icCzUbA1/Wu5Kt///5m3XXXNXPOOadB6KIO77LLLp3q6AUXXOAGbOkT40XNC/kzzzzTlUu7c0eMGNHlNNopAV/m9eJ2zjnnuP7E7bffbv71r3+1FGqe4emmm84MHTrUXHbZZS11b/5m1Ff1JJr/s951e/XVVzf777+/mXbaaWPbchz5XnjhBSfAfv75580PsAY5vPzyy50uRNI77bSTeemllyq+ik/j1ltvNSeeeGLF5+uErhHI8r0ki3dt3s+32GILM3DgQDPvvPMaNETsyy+/dFrj008/bW6++eZOzgRdo9C6Z2fVbnbYhHIrZCP8nHrqqWaOOeYoWdKfffaZOeSQQ9yDFj0QkXu++eZzmy+88EJz6aWXRg/p8u/111/fLLDAAi4dvDbPPffcLqepBEQgjwSyargqvXeEuaOPPtqsttpqJU/96aefzPHHH19y9B3h+rTTTnNe2EmJ4bF2ySWXmL///e+xf9T4g7j33nubrbbaKikJt/3DDz80Bx54oLzfSlJqjZ2Nqht//OMfDbOREMZKGYI2z+Lbb79d6jDtqxEBBup5gcVoV8aMGVOjKynZWhPwdb3a6zCQevbZZxscOZgxgTjKJzMMo8/FjjvuaKjjhDNhpgV27LHHOk+1aq/PefUSZLuSx2Y615d5vbjxUs3sVAYyEGRayVpZyFZfNX9Par3rNm36rrvumgrUvffea4466ijnaJPqhBY56IgjjjDrrbeeIQzWWmut5WbeVnprErIrJZbd8Vm9l2T1ro2zwEknnWQWW2yxkjf52GOPufqmmawlMbmdWbWbHTahXArZCy64oHv57tGjR4EWHpG8bP/222+u084D7I3GbL/99us0eolXJi+HjFo+8cQTsaKTT6PaT14a1lhjDXc6I6U0rjIRaEcCWTVclbDjxYDBI0ZRMQa2rr76aufxTFiR2Wef3Q1mbbLJJs7DgWMIMYRQEA03ssgii7jt3bp1cx0kvFRffvllJzTjHYF3HF6tfGL//Oc/nWjgfgT/IRwus8wybgue14zivvfee+a7775z+eGP5WabbeZeRAlXwkyR999/P0hBX1uNQCPqRp8+fZwoSqcR41m87rrr3LNGmALEUzzDNthgAxfTl4Ee/p7dd999rYa/6e+Hfspxxx3n8smL2RdffNH0eVYG4wn4uh6/t/zWddZZx2yzzTbu5Xzfffc1Y8eOLXsS/eHDDjvMLLTQQgaR84wzzih7TqkD6iXIlspDnvb5Mq8XNwnZeXo6/j+v6qvmr8zIcb3rdihkM/MiNEJJMWjJ+06vXr3cLmbUHXnkkebXX38ND23p73jzLrHEEm6GbbV9JQnZjXlEsnwvyeJdm3d7ZkeTL4xIDszg5p2dwWKcaXGS+/Of/+z2MzMbHQDdUZZMIKt2s8MmlEsh2zcwIEK4xrOaKWa8aGOTTjqp2XTTTc3uu+9eWFSHqf54QdbbJGTXm7iu16wEsmq4Krm/HXbYwey2227uFGIq8jIf9wcGb7UTTjihEDOf77fddlvRpXy7g+BM/LV33323aD8/eBkZMmSIWXXVVV3HkUEsZmJ4W3rppZ0Yzm8E7FNOOSXWW4JZHMwSoS27/vrrzemnn+6T0GcLEmhE3TjvvPNcZx+cfOfvaJwxcMzUStag4GWI8Dz1EmTi8tOO2yRkt06p+7pe7R0xsMnflccff9xEhYxSaXIO5/J36/DDDy91aNl9qv9lERUd4Mu8XtwkZBfhz8UP9VVzUUydMlnvuu2FbN5jeJ+IM94biCVPXw2jb0cfT5aegH/fU2iR9MyyODKr95Ks3rX33HNPs+2227pbY0AoKV46YUcI+YMddNBB5mErdsuSCWTVbnbYhHInZPMyfeeddxboJHk9cgBT9/FYwRC811xzTfP111+73135D7GKQiDIe7lA79UK2QSRZ2SVEVZCDMSJb125h1Ln4qnOAnaMauLBGgpxpc7TPhEoRSCrhqvUNcJ9eCQgFtOpI14+HcBSXgkcd8cdd7j4i3hr017446kT/g9TuY4NbRTH0E6ceeaZLva2zxftEe0S3t5rr712Sc9KRPcNN9zQ1T/yUs82wOdXn/UhUO+68Ze//KUQ9y/NQAkhdZjJwN+lBx980IXrqg8ZXQUCErJb5znwdb3aO2J24VJLLeU8g3jZTmvLLbec2WuvvVxMR0SOrli9BNmu5LGZzvVlXi9uErKbqfTL50V91fKMmvWIetftNEI2rOirEW6KWXUsaM9Apt4h0j9FErLTs8rqyCzfS7J6177qqqvc7FQ8rTfaaKPEW6W+3XDDDU4bxGmOUIyyZAJZtZsdNqHcCdkLL7ywa5w9HoRixOw4I4Yggf69MZLCIpDeELlYNAT7xz/+UbS6LQJS6MFNBSOOKLGp+MNA2hgiL3HoEK5CIzYVIjT/EIQxxCtCBXgjzegfFkKPEOagr13ZnnMxjvnArhKPBw5emoRR8Ubl4foEn8fYx8g+x4e26KKLuti+fhsxfBEmQlt22WXdyBP3FxpTKBA7oh6q4TH6LgLlCGTVcJW7jt/Pgoy8uGM777yz+c9//uN3JX4S0sP/AQoXCWFaEQsnYcTKuuWWWxLTYAcL0NJGMNAVhgXBW5vQAAyolYvZTSxUH7uYECZ+xknJC9udxOUnbUIt0T6ySvN2223nvDdmnXVWF8KEBSUJocKK3HEGL0KpEG6C9iXOfNvDPjw+eHn2Fs0D7Q9iHJ+EsmBqPO2KNwYKmDKPJzsrhfObkE8snnnTTTelKjufVh4/6103CJ2DxwIvOJRVmphuf/vb39yikOPGjXOf0b9dcGcmAZ09Pilnwh4QUosFx/g7zWyGqDHg4z1L+bvEs86MKqaGkg6DqYT+Ija0rwOskcHidqxxwerhb731ljtvWMwCqdH0n3/+efds42VBGCCeNfLIFNwbb7yxLAue0yWXXNJNKWTAl4Fmrs8ieqRRyhjk2njjjV1oIc6FD4NsPOcM0EcXZ/L1kOmNfj0QFi7y7HlRjdZh0sUTi7aDcxiMo77zj3aLxWmqNdo0X7cZaGdqJeVDbEDYjR49utqkXVnSNtKXIeQT+cR7+Mknn0zs4/mLwRWPGJ4Z2mpC43z00Udm+PDhjqt/bvzxfPr78O0kbTaDi4R2ImwdZcrz6BeKIjwHYXYYVKS+MtjJIuH09chjWvN1Pe3x0ePw+uH5Y4prJUI24az22Wcf9zfJz1KKpp32d70E2bT5afbjfJnXi1saIZt+PlOgqW+0odQX2kaeef4u4FVGPeS9g76CN6ZQcx51yjsK+X3hJwMuDIBSNxADosb7zdZbb+36SrRTLJrN+xntFOGrXnvttegp7ndXY2TzDkk955q8Z9FmUddph2nDfNsad3HagBVWWMGFiKRMWfCLvhzvWzhBPPTQQyXPj0uTbe3aV03ikaft9a7baYVsGNLXYI0wDF2B5zS0aupC9O9mub59V/sMlfaZuD/eNdBS+BudNPuIviVORfQh6V/R/j377LPubyrtXxohuyt9wbAc4r6TL/rBvi9NP4t+In0O9KZS7RR9IDQs+vgMkvGuxvncH+9T3GucHXzwwa5vQ3/u2muvNWhUtHf0idCueB/EY9r3U2mz0Zvod9EfpC9M/mhHo89a3PWi27J8L8nqXZv3FhjyN2nw4MHRLBf95v2a55WySaM3FJ3cZj+yajc7bEK5E7IJAXDXXXcVipxODe7+1RgvAn7lUWKDhnED6agdcMABhWRpFOjg0eGLMzp6xOPxRkNALN1SRiPjGyOCySM6sa2UESKFhjkUHnhhRUjihR2j48gLizcaMfLnRTE6i7zE+2tz3CqrrOJCK4Sxxf35/vOiiy5yDPxvfYpAJQSyarjSXpNwQ3QCGGziD3Iaow75BWA//vjjwowL6hB/yBCXeVnhD341RseEF0QMsSkcWKsmvbhzEO95MaJTwbQoOmS+nYsez0IwtINRO/nkk83KK6/cqS0Jj4MJHSPsmGOOKZopE+aBhTYRIX37xPF0IP3CgQiJCHK89CYZIiodsFa1etYNBjYQlpmBgPCK538a49mfbbbZ3KGIDVFxEBGSzmOS0bFlcIiXhNAQNBBLMP62IdKtu+664SHuO3WFARm8UQl1Qv6jRueRZw+x3Vs0fcRrOt9xxjXYF57vj6MOcX902pOMuPl09KPx9TkeUYg+RLi2R5gOggjtihdO2UfoIVZcTzLKLhTP4YbQSZ2KM15m4FPNSwYvpOQ/qZ4yaEe/wr/kxF0/aRuDH+Q7rkw5h/4UbUz02WEfdYe2npeqOEOc457D/g7HhW0U3Ekjyg3HAMocxgzoRQf5SYeBAl5wmKmQxnxdT3Ns3DESsuOoNPc2X+bNImSHMzyi5OgvMUhI34DBnegMNN+HoY3Eyz/J+JuOUBY3a5Z+Ge87iB9xxkAUC7bR14patUI2/Q/qPO929F3i7LnnnnP9s+iiqf5Y3jXj/jb5/fQRyXdc+++Pifts175qHIu8bat33a5EyKYvxRpBGE54/C3EulIXwr+b5fr2Xe0zVNNn4v7owzFYS5+Eti5qDMadeuqpse3A999/79o//qbHtX+k1dW+YDQ/0d/kmfYxqZ1ikI/3yDinBPq3vG8l9YdwnuBZYOAuajiCDBgwwLX59EPp+0QN7YkQZbTRvFvGaWL0ZfkbwjtoWsv6vcT/neL6XXnX9u/CPEu0/dy3rOsEsmo3O2xCuROywYdnMF573hC2qYCVdhIrEbI/+eQTd00+qZw0sIzSeOMliQ4S0w8wXkB5gealz4tIvPj7PyQcg8eC964mnjeNgzeEAhorXqz4Y4SI4I3pC6eddpr/6T5pmPgD5w0h23sJMYLqR5IIscJ1GNnzhuclL99eaMJDAcGcBp2ROC+AczwCQtT73KejTxEoRSCrhqvUNfw+nmW8OOkI/Pvf/y7Eyfb7q/mk48PoNEYdpIMYFfPczhL/UZcY6caoZ3RGGMHO0nxHkz+8/MNDk7YOHnRCaE+YZshLJH+U8fqMdmr8H+/ooFiYzzRCNm0IL7xch9As3Ctt0AsvvOBEKcqJUXg/4u+9G/GQZRsiHguU0U7iWUIarWj1rBtw9V72WQ1OMgBLHHdmH1HGDzzwgKt3eGX7542ONd7W/K0L600oNPM3D68GBmb5G0QnGYHcv4wgFi6++OJutgF1EA8R+gJ4ynpRBTHZv7zxrITpkyZCOM8fafFJx5/ZSAx28UwnifvEzWfGAM8vA8N4QtMXYHCd6/s8RsMJkQc4IFbgrUG9pz4i3uPRTL5XWmklty9aH/v27WsY5EY8p55izBjx4b4QpL24yzMEE+6B+swMEsoCUYWXE14syCvnUv992CSXaJn/GOCmfOFEG0LaeH1St3meGOinn4MHNf2QcOZZmaTd8+HLCyGIvhz9KDwmKSvyzfWjzgakGy7Ew8AjohmDa2znOSFfiONxYppvJ+FBfuk/cl+kAy/Cb9Dv4n5Jk7aItptyYxux4zmGFzD6fzw/SQJYyMDX9XBbJd8ZvEAgxNucepLWqKN40NImh33FtOeHx1Xa1w7Pbcfvvszrxa2URzZ/T4cOHer6+zzrvD/xfFNPaKuZccBzTDtCW5y1kM3ffNKkLaR/Qp2iHcd7koFS3k+of/zNZ2CMd6HQqhWyaQv8oC0DuY8++qhLm79LzFZg8B8GSdPCw3cs/r7xt4S/V3i0w83//eB++BuQ1tq5r5qWUTMfV++6XYmQjccwA1IYM5b8uj5dqQv+72a5vn1X+wzV9pm411JCNtqNH7RmYJ++GO851H3aAfpG9Ado//BsjrZ/pN+VviDnlzL6LThF0i4wU4S2itl+zEKkr7j88ss7XQgRm35n2JdGk+Le6Ocx04y2kr8FtKW0UfRR6S/T54FR1DObvhdtLw4dvu33s0w4n2ePPittMp+04YjZ6FoMWpA/ZtlgtI3bWceTtJb1e0lW79ph7GscZXC2iRtASHufOu7/CWTVbnbYhHIpZIexr8OHgpdKXi55eaNhKvewVSJk01jQgPtpvLyw47HN1B1viMHRFwtG1WgYMcQZprtEjRdtOpNTTTWV28U0PD/Vmg00qDROjA5ihCogBEJoNHq8XIcPB6NQNM40xH7UjIbq/PPPL5zKdkKs+NE7OpR02MJRJ16c/fVoEGmoauFJWsiUvrQkgfDZrPUNhjM30sQATpMfBGFC+9C5wRjZ5mUIYQOBjvqdxhCkEGe80blEPKMzwABT2DHxx1Ty6TuanINYhdiCYBcafAgtRP1nVW88IkMv1KyEbK6JqMbAmhffwnzQKaAzhuEVGfXAop3lpRtPSNokXmx9ZzxMJ+/f61k36Mwed9xxDhltOy/uXTE62DxLCHqUNV7XUe9XXhCY8cTLTXQWVSg0cx7Pq/876/PlXxz4jRhEHfICLtv4+4cHIH8j6Wx60Zd9Yfr8RoDgeYx6zYVCBaIt7YY36jx/X+m8I7oSiixqfqCL9MOwZNwz5yKY84LEM4wAHRovbVwPb+0oH44LywxhnzobNUQa+hoMtnMvIR+OZVCdfGCIRfST0ppvU2hPEEN5sQot9AJKMwUzPJdBdgbbeWnzL0Hhfl6eYIZ4HL64hf0i+nq8NEW5EEIArzEsOgjv74l9eHxTF+jfeKNO+oEBttEm0lcKjRc3P5MPDzAGTcuZr+vljovbz/NHX5CXRsrSh7uKOza6jZlGQyZ4WHGv3ukielya3/USZNPkJQ/H+DKvF7ckIZu2kBBGDNAwoEaILz5D62sHz3jG/MyRqJDjPd2q9cimLePvPm09dTA6iM6z/X/snQn8PdX4x2f+hewSikgv2uyS7MsPEaGobFFkDYkisoeUshVapMWWrFFkX5IokmixRMpaStkl63/ep577er7nOzN37r3nO3fuzOd5vb7fe+8sZ875zDzPPOdznvMcZl9hE8v6VNMQ2dgKCGZIHHS9LGqa/hLBRdhoZqP5gT4GMHkHIVX+pA9G4timqRiH7Kv6525Rv7et25MQ2fvss09IM0ifglnX6OysuuDfm3W+vR03jc8wq89URWTTn8C2YAfwJxi8islcBqaYeQZ3gsT2bxZfcNwzTnARvjQBjPRz8Gni/iDBBDZQ5u0MmDHYD1HPIAO+VNwnhXimfOw/fiLpZryvbkQ29cTPJSjEC/3EvfbaK2yqiuy23NSUu6oI/PJcki8r/u593BT9EspP0demb0F/gKAKxAKxCIQhap37FPclwoH6V4tAKruZFwUtJJENOmbMq5CiQ0KHlgg/OlYYrVgmIbLprGAkvOBw4VTRgUdwXMzZseOaENkYIHMaOY88orFi+JFVjiEHLtM3vBBpQWee8hA61jhJGEMEoh9nzRsWc0rZz3Y6yTHhRHk4gURIIRhCoiglQmASBFIZribX9KQNztwkHf668iGzsQUQN7FAokBiYW8s5UZ8jP2GSILwM2fJtvPyZzAJcpwowlgX7bi6T3MgOYbIW0bMy4QoTzqKCC987KVJSiIbEirurHId7CcEPhhAGMWzTKwukO04n9jISaOdrIyuf7apG34gGGKQqLxZxAhgOkkM7FalloCg5l1Exwan1YhWTzRXRUMTsUx6GYTnhOclFnNacbCZOmrvUF8+EYAMytq1fRl08Hh/MmgyzSwOBqkhSCBCiN41UpQckgzGIHWrnkOWMKsLGwAR7jsw3smvIrJ9W6q+Q2LRmSnrpFSdg34SFYSfAz5MWy0Ti/LC1+J+Gf5lx/ptDP5DshLlaJ0kv7/qO/4OHU7kOc95zrLBOjsPnwxsGXT06eK8ncQPKiMZ8fmw9TwvRFzGbaKTw0AQn2Wkm9XBf5qu+21Nv5OSwVLpkWqFqKemgv3kfYA+0C466NNKGVbTljWE8+yet4VbFZHdVGewX8wqRWIix/oM0xLZTe43zzaR4WUzwqYhsptcE4LK/ETeU163sHm8F4hExHfzJLeVzfuD48C4alDOjvWfQ/ZVPQ6L+r1t3TbuAz+hLhUp7ysGbxFm79ggZhOc63TBvzerfPtZfYZZfaYqIttH6cZp2TwuPrd4bP/8cVXfq3zBquNtO34M/UK4GPzUKt8c/xB7REAhazYhPqK5LCjIrgEha4GS+EP4RSZGZDM7Bp8pFghw+rfYOohcy7/uj2OGPzM9kUkCJlL3S6xOKfra+HcE/+DX0nYv+LukpMIPBBv0UjIegVR2My8KWlgiG5iI8qJTR6c1JoQ8jDiPdKLjCO1JiOyqHDuQuhtvvHG4XJnT1YTI9nWt+u6NA8dg5PwicnYeI1kWPU2HmhFIsKEDRkff59/kHEuuz3fIJl5MZWJRU+OOKztX24QACKQyXE3QJDLTCFyifyBiUgrlE+2Hs2gzKXz5kNHkMq0joiEWiJKgHAiK+AUJkQVp1zSyx67vHc2yBV7sOK6HE0Mu/zgCNRWRTWQA0U0xAUQdfDQjdabzXSXMImHKHYNxfhZM1fGLtr1N3cDGkzsdgSCF3J1FbFVvnnk6EFXiSRSvk55ojp9DK4soGYsOqeo8ebIX38AGbH352AGuXSWGDYPJPLeTCH6IDcZwri1saREqENscAwE0qfi2zUJkMxBEZ64qqrCsXmBp638wkySOlrdzfCcRUjuOdLLj4k/IayJ96AAwWEGnu4wois8zO8d9XlVE/lR1IGxqKP4f5JiJnc99wg6X2Sgin4iAKvPtrBw6ukRSQcjbwKDtK/s0XS/bF29jsI8pvXSkGETluSIqm0FOP2MgPq/qN22BpOPdg+3HN2bgB9+vagCqrKy2CNmyay/iNrvnbeFWRWRb1DE2CFtkg20xpthMOuY8azGR0waRDcHCoB5EDXX2slJENjoBOYOQ8u2kk04K35mtynb8JXxKS8sVdkb/jEBjM7Nj4mj36PDwc8i+ahkei7atbd02IhucID290NfnXQTBzTsRYS0aZguUDd6HA0r+VekCh9p7s863n9VnmNVnMj3Et8V3MsF3gtDH7pGiwwcL2DF8kiYNfgiJ7V/YOOZflS845rSwKO4mm2wycVoOyvWY1bWNwERmpfCsxG0zIrtuHSjeCwQ1QIaXLeLLTBp8OMSnuA0bav6Z780hKfol/lKp+toM8OBD0mcnqj8Wnjf6/WWBW/GxQ/+dym7mRUELTWTbg4CjgeGgo4xTQARNTAoxjQIH3hNLkxDZvmNs1+XTCBa+x1OK2TYJkY2BYXSe6CTagdIwxQSijO9eqohsOj5Eq9Hp8VIV8WgRR3asx8e28clInAnOmaVLsW36FALjEEhluMZdh/0+ooBpshYR2eTcSY7BzjCVCyIakgDSgU4gcv7554cBtCZEITqOzjNghQNqi+pBrkDulUWgVtXTHE2IHRyaOlLIoiHjHLKpiOw64hmSncgBBOcgHmj07cM5gJDC8QTnvkmbusGCJRbVyQDvuNkD47CGHOb9UDYjyZ/Le9pSx/iIYE80e4Lbn8s70dJ2+VyP/hgfgcQzYp0UXz6pgY488kh/2pLvvgMGTuQZjIWc1eQR5F1Nu3GSeU974tsT2aZLpHKAsJ1GJiGyzSZhT3C2qR/Y80n7kEmIbD+dFBKpKg80g+aWOq3qPpa1ff0ilQH3Za211gq78UGYkcIMEVKYkMeyTIg2454jccoPfzw21fTLz2QzO1lnoyDwwawq+ojrMFsEex3nZvd18N+tLn5b1XdyXlr0FOQjHVA6ifGU4arzy7bzHPA8Qd6TSxxBHym7qbRFyDatT9ePs3veFm5VRDZRZdz7cYOO4Gl9g5jsSElk83zjO4EPz6XZKvpzyEoQ2RA4DIxiw7E5XBP7jc+IzUQ8kY1/Z/5X3YwazvMEFv1NH9XN/jIZsq9ahseibWtbtz2RPQ6rcST2pLrA9Zq8N2f1GWb1maqIbOtHNPHFmB2IrxfbP4/5pL6gP7fse1NfuuzcSTAjLRn+azxAb0R2XZsZAIdnqpoZiU3FT0Qg11mbqYmk7pdUXTNVX9veXcxsxu4bR0aENu2Og0ar6jPU7ansZl4U1AsiO34QmIoO0Yox89GSLHpgo2ycMwmRzQhnWcRPKiKbUSwMEU5dE6kisjnXL+5oZVV1yi26wY5r8kkElHWImxyvY4QACKQyXE3Q9OQVL14/pbzJ+dMew0ucKWvWEZs2FQYEDWQQBBRkNsQYERBNxBzNslz68fnWsY0X5jCnKHZ0/PkQZkaCMhWYtAUmVoc6ksingoBwrxPvGHuSsu6cRdrXpm54shaizvImT4MXzwBkI5/M7mGGUp0w9Q7yzK8D4XW1igBNRWTXTSel3uT7Pu6440ITYieclBykKWLAnPbWiSeymWYJmYpDT5nTSFMim8EhBicgZupkEiLb9LSuvHgfU+xJQ9JUIILJMc0sDTrXJtg+IsA/+tGPhtQjtp1Pw9VvG/edNDi24HYTGzVvIpvZMkwhRkdI7cZ7AUxOOOGEqSKy0X2IEN4rkJ0QmrxXyPPYJHrU8G2LkLXrLfpnm/YdrKqIbNKioWO8t7ETdUIAAP2RmNRIQWTzTBPkEwfcxPVJSWQzq4GBc6Iy+V4nnsj2s2GrZgNZWesXg3K2fkL8/rBj4k///huarxpjsYi/29ZtT2SXze6CSCNwj6ABggvKBp6n1QXuT5P35qw+g73bp/WZqohsBmwJNty9/zUAAEAASURBVGpSLgEPLOgc2z8wmNYX5NwqmdSXjsuZBDMLAohn4c+TyE7ZL4mxqfs9S1/bykWfeOZshsQkqaWsjKF9prKbeVFQL4lseyAYdSeKyzqdsUHqCpFNHmvIBIuOoaNCLjYWaCNXEVNfmW7CdF2TKiKbqCiMkaU7seMhrC0Kz7bxSaQBEQcIBLXlxQsb3D+mGJLkHmFaDhGcEiEwCQKpDFfTa+LEEZGIU8fgTlvCSw19pr2xozBJHYhShiBGmnaKONYcTRxacl3WiTk/cX7aNohsnxONelLfKrE8zAwm4vBgI/skbeoGTrgNOsSR+NNgSocJYmzcoA16QdQn7xIfGe078itNZJMqgnpWiSctmNrOrAoEggJdYZCcjiH6wkAR61RABPLsci5kLOKJbFsEErKQaPJppAmR7dOKQVCS55vIXepnf+DOtNBJiGwWDWKKKEIakLoZHswqwz9gAOvCCy8M50zyjwgniDaILlIJeaLLPzOUaaQc32l7lVid2E+UjM06MztZN9g2byI7bhMDpEZAsogliwM3FXSUtAiQ4wwoWX7xpuf740RkezTGf2/TvlObKiLbCCZ0wGYzlNUenWEKOc9K3G+alcjmuvg1vA+wT5C3REhSJ2wr/R1SGJHLNRWRzeAYA2tEYdOP4T1EH4t1Tbge9hHBxiOeyPY5rOOcsuFg98/nqQVrv+6IO2zZ16H6qsuAWMANbeu2Edn4wnU5squgnEUXKLPJe3NWn2FWn6mKyGYNE2aNEalO/6NOGCzG/4jt3yy+YN312MfML2aIMHAPBpMIM3cJCGpColrOf3I7k3bGBO4IGxm32fbzuVIR2an7Jb7O475P29eOy4VjI2iUdwz5tEnvKylHIJXdzIuCkrABqSpU3tylW1kEgOhlhJxP46Yt2OJGHE/kmOUG5XdXiGwW3KIDj0DQYGBx4LzwwvILLFYR2Uxns44OnWs6LyZlZBg5HZkagZx11lkhWseO16cQSIlAm3aCevO8o0voFIulNskBim1BHxE6+9Zh5yVLlCMREE2mdVuORz97gY4bEZ8IKQvITVonODSWs7Fu0ca4DHM02U67q6bms9+mspF6hQgsEyOy6xa9YyoV5yPTRGTTobXFaBjJrpuKxTQ2SBw6nkRU9U3a1g3SIDDQC4FAzvEmAwOQi/auwOG11B2WWmFclJ8nBPwCrG0S2eOIe0t3g95CqFoOWd6pvFtxUMGrbBEeFsexxZ49kc2COJxDx5NnuGxm17jneRyRDTnNVFhsDD6PDYDF5ZKCY7311puIyPbtqkrrEl8nxW8CEBi0AntbXJfchGbH8Zmw1RBR4D2pmJ1cJCIbXSFSDDKC2Q90tpsK+m7PBWuexD5m03I4zt6Lk5wz5GPbtu9VRLaPeoPQqfJleFZsTYKY1DAbyYAW/ZKqdweDZcwiiG2uRXpjQymrbGDMdDsVke0XOCMSvCwQx+fF9US2nyof+0nxM205yNk+yULKQ/VVY/wW8Xfbuj0rkT2LLnB/mrw3Z/UZZvWZqohss134YMzsNP8ufu7gTSwNXmz/ZvEF4+vEvy2wkFloDOZNImYzY9+1rAwjzOHAyFRgMk8imzqk6pek6msTWIH9R/B5qt514YDiH/69rZMzrk9r5wz1M5XdzIuCFo7INoKIm48DRKSldWziB4IcNjj6FpEd5/Bsm8gm2oC8hLHjZqQR9WcEn5H8WOzlYdvLiGxGCok2Q4kRoqiI4ka5EAgtoik8gbbTTjuFFxP72Q5JZNEJbDMhJ5KR4tSfSHGJEJgEgVSGq+k1yXdoCz5WzUiIy+KlDvmLDqALpiu2EAVENmTKuIVTLOUQtonjEcgH6gFBjcPAMXXiF8fzxF/dOezztgLCAkK+TOrSKFgZdbnkNt1001H6gGmIbGaikO8V+1yX4gJ7hjPJYELseJW1axG3ta0b3u5DvvJurBNm+uBkQ4LGURzmQBNRh87gSJcJ7yJSeyC+k98mkY0zSqR1VQfGUu3EMylsUed45oJvp+HANk9kM9vAZjqxKj0zrcoEbImowVlmcMAGCjjWE9llBBTnEZGD+EjysOHqf+jbZz/72fBrkohs9A7iBz2dxA75a8/ynem9ltccjG3wbBwm465pNm6RiGzaBAYMKmE7LW/8uLayH9IRwowAB8iQcZ2yujJFZNehs3xf2/a9ishm1ic+CBHX9DWIxosH1hiwJ1rfBo9iIseT4VULGvLOPqlYLBGfxxPZpHpEf7k+EYdEHpaJDbilIrJ33333sGgk65Xg38Vtpg6efPNENvtssJbc/ZRVJbxLKQe/j+s01bGh+qpVOC7S9rZ1e1Yie1ZdaPLenNVnmNVnqiKyfZ+qLk2Qt3Gx/ZvFFxz3XNusOt7R2A8+y4SATmbp0w+1QTkfGIR/XzVbC57I0h/F/hz90nlFZNPOVP2SVH1tb5d32223sA5e2f2wbfbc8bvMT7fj9JklSzWbFwZ44YhsRtGYHmxCFB+dTzojXjCkbIdsMYmdkzaIbE+8Uw9eIjhDXvwxkAB0+D05T6eFabQQYCYxkU0nE+eTTh/C1DkWNmAhEZwwI7chI2zEiOOYOoPTaPvpZBO17h09plMzrdde2BwP+S4RApMgYM9Pm51gXtQs8IWMSytABCa6QScLgoDZCiZE6xDpSFoEXvZ1JPSGG24YcgBzbEygW6QBRDmDSlV5SakD9otOEZ0hIgliG2d1iz/N0WQ75CLT/Lw9YTv6zvQynBZsDk4TaRJMzCni2tSzLE2ATbvnnGmIbM4jwgmnjAEDIl5J1xALeS1pPzLJKthxOV3+3bZuQB5DIvB+YIAVgqtqGjTvFggP7g8S3wM/oOFJi3Dw1f8YNEGneIedc8452c477zza3SaRzUWr9HdVsciqTeeMiV57TqsW/QNHyrX0YJ7Ipn3YDmYwEAGJsx4PhOF4gw/kUVk0jieqywan8BHQZ6Qqatrbhbh94cSaf5aCCCIIZ70sknOzzTYbrUWAnfvVr35VU+JVu7Cr++23X/jB82gktT/RR/L7DhqEG2Qun2V+i5XBOZDeYE40lQ1iGB6LRmTj15HnE//VBmqtrXWfdM7RXe6hpcCpO75uX5vv8Lp6LMq+tu17FZENXj5qGLIZvcP2M1iJDu+4445h0UPeyWWLnfkIZWZUQfTE4lML+HcCfgc2lJQl+Fr0R2LxJFIqIpvoOAYR8YfMp/LXxUazqCrpoZC4r2jnsy/2ddiGYPOtXxT7j1cdUf9/iL5qPSKLsbdt3Z6VyLZneVpdaPLe5M7N4jPM6jMZoci7jne/CQF5X/jCF8JihfQ1ILPjPOP4aZDVcEhITGTP4gtaPao+6Y8xY4X+H6mdsEPxYBgBD9SPtvi1SPhNoAIBh6Sxw8eO24afCU/EjJuyoCx82HkS2dz3VP2SVH1tm1lU52NyP3lXcu+4P/S3STFivmbV/R7y9lR2My8KWjgimxtPrjNPUEPEEEF1YZGTEeVkOhuLQ9HBMSFnZByF0gaR7aPQrC7kMILAokPCgx6T85deemkgu8ntSzsg2DBsEGMmMZHNb8sTCQkN+WTTn+m0YNgRrseUFT+Nnw48DpiVTyeVaeLgySJMkFoWjQ3pgZNqZVt99CkExiGQynCNu47fzyDMscceG3Lbsp0XPZ1/nm2EzhskGylIGEFFIDwgg9BDL5a3jW2nnnpqIGFxGGzQB1KGGRc4ejgMRFTiTPgp3JAyLHSHPjPaDiHOFDYcLoSOHkQ4A16QUwiOF7ndmoo5muTnIhUC+ozDg05TVxZwwl7YdPyyiFwwYcAKEpORfSLVDTMcPAa7sFtmF+LOndWhjiSiPUSJ8vJn9gzR3wyYUU/SBUDq0ek0AhUnq24AoSk+XTxuHrpBDmLSVaEDvDd5LnEi6eAgOJVEfRCJYAOkVemnrHPFecwK4t3Ke47ng7yhvHN4L5cRoVzHBnd9xC1lmaRa7JHUNDxz6AOpOCDk+G0kH/VlG8+cz28HuQMOdCrAjFkO2AcIGcgfcuPRkSDFB+KJbH6DH+mBaCukEc8yke2Uhz7yvjZ9xC9gINoL61gY6cM9QA9s4IF3OvcQEpj6M1AAKYPPw+wpdJn6M1jFsdimSYlsdB49JfUSOs0gH449ekqb6SxiExioqEtH5Ntk382fw17S+TA7xX46BQzocf/L1jog1Q0DlNhNniGeYdqNncMe46tgy7G3dKx9XugmNsoG66oGMKijRWsyLZbFpMaJ6fq446r2T0tkY695hkVkVyG7ctvtnrc1AFBHZNNK6+Rbi9E9dAQ9QhgsIx0S/ayYyGG/pWzkXUGudvwhbBl9LgadIcvwPbANnsjmXOwnswM4FyKcukKaMwhIX4NBVfSXc1MR2f79QX0ggiCysJv4WxBGvJ/MfsdENscRTERaBvqb2AXSWuJb4buwnXpz/jjCAwzKZIi+ahkOi7atbd02XwsdQY8mlVl1ocl7kzrN6jPM4jNVEdnUi9zF8B30bbBb+Az4Utg/fFX6bPQ9wLdsIG9WX5A61IkfaGSmJH/wW9hWfE0G5LBZ2CFmQJq/TpkEBWFf8fFoG3aOwAgEPPGFmKGPbYYvMr87HFD8wy+dJ5FNPVL1S1L1tcEMnwuhj4q/yfNi0fLcFwZAWT/G0h5XDfCGQvQvIJDKbuZFQQtJZNN5xBGzKfvjngvIK8gaFN9LG0Q2jg1EGhFbsfASwljiPPLgryoI5TLBUNFB8os1eiKbsumY0pFGIOroNJvQeT7uuONGSoYzDXHHtU0g8caRZTi7RPScccYZdpo+hUBjBFIZrsYXvPpA9AP9gRQx4SVEh5591nljHwM8dOLiCGb2YXfY50f4IYZI2YOeM5JvAmGGo1A2vQvyhegbfzz1ISKa+tBpMoG8otMUpyOy/WWf3tGk88WLFycN+8efkc+cyxQzS3sQl0WKAmaLmEBaIUwPptOKLYAwQ6Ylsjl3/WKqGySZzTgBUyLWcSJNsOF77713uK5t69PnvHSDDjhOvXXgwRS9wNbTQee5MYHQIIoufo/aftKGMHBrwvOCk2cDpAyCQmiz0I6XNolsSBfSkdlAOO9Wr4c8d0TpxNHEkAyQt3QgTCBWwYj2QYrQIaJ8JCay2cb7ff/99x9hatEy2BUEnYLUJY0G373Q6YJ8Z2qsFzCHkEcgniBg7J7RFjos1j58IAhz2jApkU35dO6og9kP9JRBP4tC5xgG9hg4950rttcJRD6DhJaLkOeLQRB+M2OMtvNMMsgBSRQLfqDhzj7O5/k1e8I2fD2O8bh6Owl2ZdJFIpuOLM/XSUU0rffzyurvt0ESkraOgQiek1mkLUJ2ljp26dy27fs4IhsbAdmDPfD6i23mnc56QjbAVEZkQ4owmGa2C33D3jB4hGDD6NxjZ2Mim3PxSfAjEPQV/baFXZnFhv3A/0hFZGNDyI3tfTcGIrFl9Jsg0gkeYCAdiYlstnEc+yECTeL3B/aPdxxYTCND81Wnwahr57St27MS2bPqQpP3pt2jWX2GaX2mOiKbuvEOZbDNhKAF+l0QwPgI6D/BDKSWiO1fCl/Qrlv1aelfbH/sS9NfhA+KiWiOJ/iH/iX3GcHPpE3GD7GtLHiJ7V0gsqlHqn5Jqr42fBmBGr5vzjuLd5e9t6g3nBrYMlNQUo9AKruZFwUt7S3VX7dyb6oKVV6gYgejUTjmvPxNae1QOllEDRNVSIRYmbRBZHNd6odRJOoLI4gyoACMjBlBRf15QZAGwUZ1OJfILBxLzrMVtdnuiWy/YCPOGWSCdZI5FrFUAVf9ykKHFEfVC8cw2si0Ey84qWBFNFMZweeP1XchUIXAvOwE9aHTRMeIaCEjdnw9iayhAwVRYzrp9/vv5PeF7CqzO3RgIFsYmPKpOvz5fEfHLdcpZJ8XbBcjv4ymH3/88X5Xo++xo0lkN9FCjLSbUE9Icjqcde0lohGiiIhQs7E2Kk1EEtGTyCxENuczek4HkKhBIz7ZzswVBuFwsPzAG/v6JPPUDWbdkH6BfKd+UAd8eTYuLGYvMNBQlvbB3wPIEd4fkIIQvCY8zxAr6BbRwrG0SWSjczj/6C+RL965R29515577rlxFcNvjuV83uNGktI2nFZIHTo9lrarjMimEGZX0cniWBPe1RA2DEDHkdh2DJ/YDEhiOndGJhMFQt5uE1KQkD5j/WJwyAhtbBsDeRDe+ELTEtlcAxIHn4tBeCuf7Tj1lE1Ef+x7sH+cMGjFoBkpMzyxhj/DwDkDcnXrcuC7cE833njjJZcyXGm7J7E5KLaTS068+kcXieztttsu+H/oJWmXmgr3DZx4zi0FQtNz4+NEZMeI1P9u276PI7KttrzTiZzEJ2JgzhOw2Gt8B96/lv7HzuMTXeWZor9g7w3Ox6cgeAfSt4zI5lyCCiBi8EnsXMgZZjXg9zBzICWRzTURyCsGMmmzCfoAsU77mXmBlBHZbAcnSDDeld5vw+bhP9KnwmbNIkPyVWfBqSvntq3bsxLZhtu0utDkvWnX4HNWn2Ean2kckY3dw+eFoPT+Bv4CvgazyvDHyohs2pTCF6ScKqF++KfwPJ4oZeCM6GzqyIB0lRB1jj/kB904loFKAi6wVWXSFSKbuqXql6TqaxNEgo/K4Iy9swxD+DyeHQIyqvoPdqw+r0Igld3Mi4IWmsi2BwKjwrQwHjA6VzxQ/E3TobIyV+oTA0X0GyOAccfKrslUZ4wrUWFECrQtRFVAREAwMBhAdGlVXduum663uAikMlyzIMCIO6QpzgE6Roec6D+LNp6kbPSYsiB5Ia1xEiCNJhHswS1vectALkHmnH/++aGcWWxXlaMJ+YZzQBQlUeSTEMN27kUXXRRIq0naOMmx2HLuDUQdg2ZDsT1d0A2eP96j6667bhhs5XnmPYqTNonwTPMOgyzgPccz49N0TFJWimOriHJ8BXSPZw0SA71oIrSPdB2Uy6AOA72TCljznKPndEgmfb9CojAgXlVnbBPPFKQKOpRaKJ/6E5EJdpNEYI+rC2QR9wXfY9JyOZd6MQCD/zSLHR1Xz2n3m65Pez46ykApzyEkHB1bZjswCBLrKgMOvOcgDhnkYJCQgISqBYCb1klEdlOkrjrO7vki4cYzwrMzbpo0nXr6XuZXMLjXVDgXbOjn8J6oG1RvWmaT4+jjQHBMYvd9udSb9xuzRvD9JvWnfFlV34fgq1a1fZG2L6Jue3xn1QVfVt33WX2GWX2msrrhQ8F1GN8yqb+Rwhcsq5dt8740ftykgYT4Q7QPX5e+6aTts3rM8zNlvyRFX9veWfT9edfRTyKooK131zzvRcprp7KbeVFQL4jslOCqLCEgBFYGgVSGa2Vq159Sq4js/rSwfy2RbqzcPa0islfuiipZCFQjYLpefcT4PcySYWaQzQzgDGa0xB1VUo9YugcGLk8++eQwM2ISsrGsNotEyJbVv+1tds/njRudcKKGGQhjNpXNIInxYK0Pi8Imtz5ErUQICIHlCHRFt5fXTFuEgBAQAt1EIJXdzIuCRGR38x6rVkKgdwikMly9AyZxg0RkJwa0heKkGysHsojslcNWJU+OgOn65GcuPQNSkmgrIpYgJonOjmfZkNoB0ppoWSK6Us2MmDchuxSJ7v+ye94F3FjbgpRhCLnySU3EWh5E8zPosfXWW4dp6cyOIhUUi59JhIAQKEegS7pdXkNtFQJCQAh0C4FUdjMvChKR3a17q9oIgd4ikMpw9RagRA0TkZ0IyBaLkW6sHNgislcOW5U8OQLrF/nLmTK8qEIaHKbSSpoj0CX7znRz0oVsvvnmowYwLZoBD9JZmHzrW98KawKQtkYiBIRAOQJd0u3yGmqrEBACQqBbCKSym3lRkIjsbt1b1UYI9BaBVIartwAlahiLuLBICDliWfRE0n0EpBsrd48gZ2wVcVYUP+mkk1buYipZCIxBgDyNRFMvqhD1Tf5ySXMEumbfGUghNQ3R1wys2MKFpKZhzRDSjrAo2KS5+5sjoiOFQD8Q6Jpu9wNVtUIICIE+I5DKbuZFQSKy+/ykqG1CoEMIpDJcHWqSqiIEkiAg3UgCowoRAp1HgPQNPrd15yscVfAvf/lL9vvf/z7aqp91CHTdvrPwIbISC8PW4aJ9QmDREei6bi86vqq/EBAC/UMgld3Mi4JEZPfv+VCLhEAnEUhluDrZOFVKCMyAgHRjBvB0qhBYIARIdXOLW9xigWq8tKq//e1vsyuvvHLpRv2qRUD2vRYe7RQCC4uAdHthb50qLgSEwJwQSGU386IgEdlzuom6rBAYGgKpDNfQcFN7+4+AdKP/91gtFAKGwKJGZSsa2+7gZJ+y75PhpaOFwKIgIN1elDulegoBIdAVBFLZzbwoSER2V+6q6iEEeo5AKsPVc5jUvAEiIN0Y4E1XkweNwDrrrJNd+9rXXhgMrrjiiuziiy9emPp2qaKy7126G6qLEEiHgHQ7HZYqSQgIgWEgkMpu5kVBIrKH8cyolUJg7gikMlxzb4gqIAQSIyDdSAyoihMCC4DAokRmKxJ7todJ9n02/HS2EOgqAtLtrt4Z1UsICIGuIpDKbuZFQSKyu3qXVS8h0DMEUhmunsGi5giBTLqhh0AIDBMBcmaz+OMaa6yRrb766lme53MH4n//+1/273//O/vHP/6RQWIrJ/Zst0T2fTb8dLYQ6CoC0u2u3hnVSwgIga4ikMpu5kVBIrK7epdVLyHQMwRSGa6ewaLmCAER2XoGhIAQEAI9RUC+T09vrJo1eASk24N/BASAEBACEyKQym7mRUEisicEX4cLASEwHQKpDNd0V9dZQqC7CEg3untvVDMhIASEwCwIyL7Pgp7OFQLdRUC63d17o5oJASHQTQRS2c28KEhEdjfvsWolBHqHQCrD1Ttg1KDBIyDdGPwjIACEgBDoKQKy7z29sWrW4BGQbg/+ERAAQkAITIhAKruZFwWJyJ4QfB0uBITAdAikMlzTXV1nCYHuIiDd6O69Uc2EgBAQArMgIPs+C3o6Vwh0FwHpdnfvjWomBIRANxFIZTfzoiAR2d28x6qVEOgdAqkMV++AUYMGj4B0Y/CPgAAQAkKgpwjIvvf0xqpZg0dAuj34R0AACAEhMCECqexmXhQkIntC8HW4EBAC0yGQynBNd3WdJQS6i4B0o7v3RjUTAkJACMyCgOz7LOjpXCHQXQSk2929N6qZEBAC3UQgld3Mi4JEZHfzHqtWQqB3CKQyXL0DRg0aPALSjcE/AgJACAiBniIg+97TG6tmDR4B6fbgHwEBIASEwIQIpLKbeVGQiOwJwdfhQkAITIdAKsM13dV1lhDoLgLSje7eG9VMCAgBITALArLvs6Cnc4VAdxGQbnf33qhmQkAIdBOBVHYzLwoSkd3Ne6xaCYHeIZDKcPUOGDVo8AhINwb/CAgAISAEeoqA7HtPb6yaNXgEpNuDfwQEgBAQAhMikMpu5kVBIrInBF+HCwEhMB0CqQzXdFfXWUKguwhIN7p7b1QzISAEhMAsCMi+z4KezhUC3UVAut3de6OaCQEh0E0EUtnNvChIRHY377FqJQR6h0Aqw9U7YNSgwSMg3Rj8IyAAhIAQ6CkCsu89vbFq1uARkG4P/hEQAEJACEyIQCq7mRcFJSWyJ2yHDhcCQkAICAEhIASEgBAQAkJACAgBISAEhIAQEAJCQAgIgZ4jcMEFF8zUQhHZM8Gnk4WAEBACQkAICAEhIASEgBAQAkJACAgBISAEhIAQEAJCYBwCnSOyZ63QuAZrvxAQAouLQKqpJIuLgGouBMoRkG6U46KtQkAICIFFR0D2fdHvoOovBMoRkG6X46KtQkAICIEqBFLZzbwoKGlqERHZVbdM24WAEEhluISkEOgbAtKNvt1RtUcICAEhcBUCsu96EoRAPxGQbvfzvqpVQkAIrBwCqexmXhQkInvl7pNKFgJCwCGQynC5IvVVCPQCAelGL26jGiEEhIAQWIaA7PsySLRBCPQCAel2L26jGiEEhECLCKSym3lRkIjsFm+cLiUEhoxAKsM1ZAzV9n4iIN3o531Vq4SAEBACsu96BoRAPxGQbvfzvqpVQkAIrBwCqexmXhQkInvl7pNKFgJCwCGQynC5IvVVCPQCAelGL26jGiEEhIAQWIaA7PsySLRBCPQCAel2L26jGiEEhECLCKSym3lRkIjsFm+cLiUEhoxAKsM1ZAzV9n4iIN3o531Vq4SAEBACsu96BoRAPxGQbvfzvqpVQkAIrBwCqexmXhQkInvl7pNKFgJCwCGQynC5IvVVCPQCAelGL26jGiEEhIAQWIaA7PsySLRBCPQCAel2L26jGiEEhECLCKSym3lRkIjsFm+cLiUEhoxAKsM1ZAzV9n4iIN3o531Vq4SAEBACsu96BoRAPxGQbvfzvqpVQkAIrBwCqexmXhQkInvl7pNKFgJCwCGQynC5IvVVCPQCAelGL26jGiEEhIAQWIaA7PsySLRBCPQCAel2L26jGiEEhECLCKSym3lRkIjsFm+cLiUEhoxAKsM1ZAzV9n4iIN3o531Vq4SAEBACsu96BoRAPxGQbvfzvqpVQkAIrBwCqexmXhQkInvl7pNKFgJCwCGQynC5IvVVCPQCAelGL26jGiEEhIAQWIaA7PsySLRBCPQCAel2L26jGiEEhECLCKSym3lRkIjsFm+cLiUEhoxAKsM1ZAzV9n4iIN3o531Vq4SAEBACsu96BoRAPxGQbvfzvqpVQkAIrBwCqexmXhQkInvl7pNKFgJCwCGQynC5IvVVCPQCAelGL26jGiEEhIAQWIaA7PsySLRBCPQCAel2L26jGiEEhECLCKSym3lRkIjsFm+cLiUEhoxAKsM1ZAzV9n4iIN3o531Vq4SAEBACsu96BoRAPxGQbvfzvqpVQkAIrBwCqexmXhQkInvl7pNKFgJCwCGQynC5IvVVCPQCAelGL26jGiEEhIAQWIaA7PsySLRBCPQCAel2L26jGiEEhECLCKSym3lRkIjsFm+cLiUEhoxAKsM1ZAzV9n4iIN3o531Vq4SAEBACsu96BoRAPxGQbvfzvqpVQkAIrBwCqexmXhQkInvl7pNKFgJCwCGQynC5IvVVCPQCAelGL26jGiEEhIAQWIaA7PsySLRBCPQCAel2L26jGiEEhECLCKSym3lRkIjsFm+cLiUEhoxAKsM1ZAzV9n4iIN3o531Vq4SAEBACsu96BoRAPxGQbvfzvqpVQkAIrBwCqexmXhQkInvl7pNKFgJCwCGQynC5IvVVCPQCAelGL26jGiEEhIAQWIaA7PsySLRBCPQCAel2L26jGiEEhECLCKSym3lRkIjsFm+cLiUEhoxAKsM1ZAzV9n4iIN3o531Vq4SAEBACsu96BoRAPxGQbvfzvqpVQkAIrBwCqexmXhQkInvl7tOSkq9xjWtkq1atyi6++OLs7LPPXrKv6kee59k+++yT3fjGNw6HHH/88dnnP//5qsPnsn2ads2lorro3BFIZbjm3hBVQAgkRkC6kRhQFScEhIAQ6AgCsu8duRGqhhBIjIB0OzGgKk4ICIHeI5DKbuZFQSKyW3pcDj/88GzTTTcNVzvwwAOzY445ZuyVH/rQh2b77rtvOO7CCy/MnvKUp2RXXnnl2PPaPGCadrVZP12rOwikMlzzbtEtb3nL7OlPf3p23eteNzvllFOyT3/606FKq6++eva+970v+/Of/5w997nPnXc1df0FQqALusHA6c1vfvPsj3/8Y/b3v/99LHp3vetds+c85znZOeeckx188MFjj9cBQkAICIEhItAF+07QyTrrrBOCaf71r3+NvQ2y72Mh0gFCIOuCbnMbCHjDh7vsssvG3pWb3exm2e677579+9//zt72trdlf/jDH8aeowOEgBAQAqkQSGU386KghSKy11577ezVr371CEfI3be85S2j31VfttlmmwxS2OTDH/5wIKDs90p/3uQmN8k+97nPjS5Dx3/nnXce/S77wgvp2GOPzW5729uGl80znvGM7Ic//GHZoXPbNk275lZZXXjuCKQyXE0b8vCHPzx71KMelf3vf/8LA0IXXXTR2FMh8l75yleG497xjndk55133rJzmBlxi1vcYrT9C1/4Qva6170u6OoHPvCB7Ctf+Uq21157jfbrixAYh0DbumH1udGNbpTttNNO2R3ucIdso402yq53vetl//3vf7Nf/vKX2Y9+9KPw3jr11FPt8CWfRx99dHbHO94xbHvmM5+Z/eAHP1iyXz+EgBAQAkIgmxvZhU3ffvvts4033jjbcMMNM8hsSOyf/vSn2Y9//OMQUIOtLxPZ9zJUtE0ILEVgXr7b//3f/2VPetKTss022yy73e1ul9EfRy699NLAFZx22mnZJz7xidD/WVrjLNt1112zpz71qWHzIYcckqHrEiEgBIRAWwikspt5UdBCEdkA/MlPfjIjIhJhNHHLLbcMEZBhQ8U/yKVNNtkk7IXUevSjH5397ne/qzh6ZTYTqXn7298+FH7YYYdlRx55ZO2FfDQ2Uc/vec97ao+f185J2zWveuq680cgleFq2hIGf3bZZZdw+JlnnhmiR9H/OqGOH/3oR8Mhz3ve87LTTz99yeHrr79+9rGPfSykB3rNa14TyoQw//Wvf51d//rXz254wxtmb3rTm4IDueRE/RACNQi0rRtUBZKDgWAGb6oEfTniiCPC+yfWnVe96lUZg8QQI4985CMV1VMForYLASEwaATmYd/xS7DR17rWtSqx/+tf/5rtvffe2de//vVlx8i+L4NEG4TAMgTmodv0M/bbb79s8803X1Yfv+Eb3/hGRj8FPffyiEc8Inv9618fNr3kJS8p1X9/vL4LASEgBFIikMpu5kVB9axOw1qnqlCTy0FMQVCZvPa1r80++9nP2s9ln0Rxf+Yznxlt//73v58961nPGv1u6wtpCHAsIdC/+c1vlo6SWl2IxiZq/Da3uU0YWaW9kPZdlEna1cX6q07tIdCmnaBVnsjm9zvf+c7s/e9/P18rhTrWEdnbbbddiLYmlcJ73/veUA6RDaT9wbkkCuLlL3959re//a3yGtohBGIE2taNu93tbtlBBx2UrbHGGoGIRi/OOuusjFlOa665ZrbBBhtkT3ziE8MndSV9jnV8rO6k0rnnPe8ZovsuueQS26xPISAEhIAQcAi0bd933HHHbLfddgs1+P3vfx8iLpldxho96667bojgZFboDW5wg9AXecMb3jBKkWbVln03JPQpBKoRaFu38c/oe9isUGZ7n3TSSdn555+frbbaamFmKAF+D3zgA0OlmXGBLxenE7rTne4UtjEzQyIEhIAQaBOBVHYzLwpaOCIbcvcjH/nICO9x0/gf97jHZS996UtHxx9wwAEhonK0oaNfmAKIQGDHkXAdrbKqJQRqEUhluGov4nbGRPY///nP7GlPe1og3txhS75Sxzoimzx0pGNg+t5f/vKX0bkMPkEKXnHFFaNt+iIEmiLQtm7YtHHyuZPn+mc/+9myqvIOIlrvYQ97WHgPEcVD/myJEBACQkAINEegTfvOgDoDj9e+9rXDzDFy4f7pT39aVtmb3vSm2bve9a4QMEOqkR122GHZMdogBIRAPQJt6jY18WlBSLX6+c9/vrSCpB3ZY489wr4999wzkN2lB2qjEBACQqBlBFLZzbwoaOGIbLAmdzQRYwiLUm2xxRbLRhvDzuIfkZP3uMc9ws///Oc/GZ3xqoUN6LiTOoBoSvLpTksgX+c618mIBP/tb3879eKMa621Voaj+Ytf/KJVcowIa6aaE41B9EZq4gJccLRpV9cWrrRnRp8rg0Aqw9W0djGRzXkQduQEjqMTrEzqWEdk23H6FAIpEWhTN7DxRPAgpOqyBYXDhugf9ppjeDe+/e1vzz70oQ9FR+inEBACQkAI1CHQpn2///3vHxZwoz6s9/HFL36xsmo+heGTn/zk0jVBKk/WDiEgBFrPf2+pUom0ZoZolRBcQ9AftofUQaQQkQgBISAEuoBAKp8oLwpaSCKbKXHkrzV50YteFNJ12G/7JGctC7FZdPO3v/3tMJpp+/kkfxwRaUzDYcodU3MQyGym6nz84x9fslBj2Fn823bbbUdT99iGQ3if+9wnpBhg4Syu+e53vzvkF2U/iy5ATiPk2IVgj+XOd75zaBeLsjDlD4FMhxA/++yzs7e+9a1LiOX73ve+2Rvf+MZRMXz/0pe+NPrtv0BA2FQk0quAmZf73e9+YfEHVir3AgakOfnUpz7lN4++N23Xc5/73JCT1drFgmLkFf7Wt74VokJEao8g7e2XVIarKUBGZDPY9bKXvSxj8Uacu2OOOSY78MADS4vxMz6e//znZ9/5zneWHYfNIJUIC92xGCsL5NniSXQazz333GXn+A1M6cMB5ZPVw4niRsfRXSKpiJKVDAuBNnWD9wALliLkWTzuuONqweY5J7rvsssuy37+85+PjiVVFjmyGRh+xSteMdrOF2ZB0SZyNPLu4f24atWqkNMRfeR9RjSgrVWBDj396U8PqUpYA4OBThZFZlCJdCcSISAEhMCiItCmfd96660zIjURZqTW2U8CVjbddNNwLDbXp4iqsu/0bfClENZPICXV4x//+GC78WkIgCF9Iuv6mF9/q1vdKnv2s58d1gliVttPfvKTcN57ixQJvA8kQmBREWhTt8GIPsI666wTBqhsYfoq7NZbb70QVEfgDv1+E/o5RGkjzLozP4zfj3nMY8LaYwTzkU4O/+9Rj3pU8N3gVNBd9N4W92bRycc+9rHZVlttFXw+/EF8N7gX+vcSISAEhECMQCq7mRcFLSSRTUeXKDETSFZP6Np2pkT77fvss8+oA88xLHZFRx5jXydMwz700EOXRGiTc+rFL37x6DSm5R111FEhvYBt9EQ2eaxsVWEiyt/2trfZYeHzBS94QSDHeClUyW9+85uMaYIXXHBBOASHkpcFLxeEKUbmwIYNV//DifRkBRF4Hj8i2sGp7tq+Lb7sce2C8GPQwQYT/Ln2HXIEorHO4bZj9bm4CKQyXE0R8EQ2A1VEJDzhCU8Ieswz+d3vfndZUeOIbDpqOHe24GxcAOlLWCTpa1/7Wrwr/GZRPBzHKkEHnvnMZ5ZOBa46R9sXH4E2dYPBHAZcSJHDc+pTb02CJMQzA5QQ3JAeXiAoGNDlPUOHp+yZZwEiBqXRGd6xEByxXH755YEAgWSRCAEhIAQWEYE27TuD6wSfIAS/2PdJcauy7wzkn3LKKaE4BjDvda97ZZDnsTC4Tyq3e9/73mHWzzWvec34kECu0ff5xz/+sWyfNgiBRUCgTd0GDxaTf8hDHhL8LvQO/2lSuctd7jIKsiOohuhuE/SRWav4XPiG8BrM4vNCIBo+3Ze//OXskEMOyeIAOI4lLSpE+1e/+lV/qr4LASEgBJLNZMkLA7yQRDbPgHWU+U5HmpQhcSoQyFnIbARjT2fb57XFQENMIYxYEiXGwgfrF+lFNttssyWrfWPQPTkVE9mMXpKSAyEfHWlMiLxm5BKpI3xZMIvoNBOiM4lyoKOPk+hJM1IjkPvKhBcFI6gIkZxEvvGS8QLJDgGOgANYWdQni35xbSOaWRjm1FNPDTixIjLR4SYxAc72unZxrp+KDr4szInTynV5GZOGBWHk9oUvfGH4rn/9RKBthy8msumAMS2PehCBgB55ewDqdUQ2OgIxR7oFbA7PNs80EQi3vvWtAykHeYf+sQBkvIgKMzboWBIFRcQC+f0h04nKRs/RSyJT0X2Idotm6ufToFZ5BNrWjTe/+c0hQpo6MP2UhVAnfd6qiA7KtPczZAYDxegN70/eszzr6Cazn9ARPtEpyOwzzjgjRH8zPZ5BUIQZDhAiEiEgBITAIiLQpn1noBKCidmP+PsQXyx4H/ePxuFYZd89kY1txr6/733vC/0GBiMZrLeBTUgsUjvSP+I9g7/EzFciOLHxCAsN8/6RCIFFRKBN3QYfn/uaKGsGk1izZxJpQmSTVpTZEgTOMYOPGdT0b5ipShAE/AQzVh/0oAeFvhCDW2xjZjnH0LfH34OTYIa7RAgIASFgCKSym3lR0MIS2eRz8+kxcLpwkkwgnYg6gxhCTj755CUR1BDYENkIpDPTbJgGbYKhxvnDaUNIMbL//vvb7rAKsI/IZgfToElbABGN4FCa81hH+DJNj6gFhBcTJBYvABPaSXtNIOctzzeEMNHSJkRz2pQf2+bzhHsccDpJDWIYgd8uu+yyZITXolgpC4IOcgFywqSuXUwlfNaznhUO5SXIyK8n2SGycbIRtjO67Kc4hR361xsEUhmupoDERDbnbbLJJkHvsQ9lMxjqiGw6ZziN6CZRCz/84Q+XVIX0C9gJiGkGh+jcmTAr4oMf/GBw7jgPPfU6znGkCmKmBjMjyupmZemzfwi0rRsMuh522GGjdFOkt+HdQGeEgRR7h9UhXUV0cI4R2XyHpICs8MK7YK+99gqbuDbvnVif7L2Hnqwq0pJME3nkr6nvQkAICIF5INC2fac/8Za3vCWzKGgG3kldRnpF/PyyxR9jXKrsuyeysc2QVmeeeeaS030QEUQY/QB/Tfyvww8/PKQtoM9j/YQlheiHEFgABNrWbXSHgBjjDOAvvve974XIZ/r+BLsZ71AFXxMim3PhROAAfL+d9jIoBb+B0IeHR/Di8/Qza69s9qs/Xt+FgBAYFgKp7GZeFLSwRDZkEbmiLB0GHWefdxojb3nceDziRU9w8CCeEIx0HJnJ9te+9rUhNxTfccbIA2cSR2RjyI2UtWP8Zx3hy+KHJoyAxgSXz2nKcS9/+ctDxAXfeZlAuIMHEuPAqCgOrDm0EHGWR5v2WJ4sSAIiKeLFHcGXyFOmKyKQcQcddFD4zr+6drE4GLm3ERxdiO1YeCmbMBVp3AvYjtXn4iGQynA1bXkZkc25RHfS+UK8PvC7jshm/zh53eteF3LFxTMMIOqoD7MRtt9++8oBG+pF/dAFiHPf+Rt3be1fXATa1g2Qgsxm4MQWTvbokSuVmTkMBpfliefYKqKDfbyHiN5hwNVmRbHdhIFiyub9RdQeqaVi8YO0pCBhFoNECAgBIbBoCMzDvtMHIg0atjYWglFOO+207IQTTsgurFiDoMq+eyKbyG/6I7E8+MEPHgX+QKhDfMUCeU2fgIFMUr/J948R0u9FQGAeuk2/+Q1veEOGnhmhbFgRFX366aeHBR7xsWI+geOaEtlwBJbK1Mrnk/So+I30T4i4jnWX+rHAJJ9xUI8vR9+FgBAYJgKp7GZeFLSwRDa3nhF9W6gEZ4yFTUyI9iLqC4E8wthOmofNHC3KgOClDJOYyOZYv5iCHWefdYSvHVP1yYvKkwlEhhP5abLbbrtlO+64Y/gZpx4hko1p5AjTe7bccsvRFHIIadIdIETDkQ6hTHz6kvi4unYRdcpCmiakFYHwJyIkfvHZMfrsLwKpDFdThKqIbPQJ20FeNwaw0GVb5GhWIptZGpRHR5GUPia20jjPPh3EKvEOZkyyV52j7YuPQNu64RGzxXx4v9livH4/z+wee+yxbJCziujg3PdeTWTX5eCmo8NAKwPO6EcsDM6eeOKJYTNpp7RwUIyQfgsBIbAICMzLvkMk4eMTpMKMLwtoMczww1ljiLWCYp+8yr57IrsqB/ftbne70Swc+hXxbBuuz0A9ZBxC3TTjJkChfwuGwLx0G5gIcmORRRZjJGVPLMzEwHeL9c/3M6pyZJN+lPWzYrvANSxILQ7Y8dcnnRxpUZmZ6lOn+mP0XQgIgWEikMpu5kVBC01kb7vttkuiAcwgQ1TRAb7pTW8anhAikCGFymSNNdYIK2nTmcf5YkFGFjYg3YblvOa8cUQ2kcd1OUbrCF+rF+kHiGLjb/0iTzeLOFIPPv1CWDGRHeeifvSjHx1WDqdcFn+0hVjAhAUaTGxU1X7H0di23Ud0kEObXL4mde3iJXbkkUcuqTvnQajzYmW6ESkUmkxjt+vpc3ERSGW4miJQRWRzPg4gMw3QdQaJdt111+CwNSWyWTWc9ES0Cf00XSWyCImJbGwQelS1MG04qfiHvlsu/rKUDHacPvuFQNu6UYYe702ef55r3mfksrbUWueff36YxUDHyKSK6GC/Edl0ZlhboUxIZcKsqKqIvbXWWiu8HziXNCPf/OY3y4rRNiEgBIRApxHogn2HxKaPA4n1gAc8INh5m9FK5CYzUJkJZlJl3z2RXTXYfvvb336UWo2cvgTYxMLAqb0bxvWf4nP1Wwh0BYEu6DZYWJ+ENbfoh1i/nQht/CefcrQJkc1ij8weLZMDDzwwDD5VzabjHILtWDtIOfDLENQ2ITBsBFLZzbwoaKGJbAw1RCqLpyEW2eWdKLaT44nor1gw5pDCdJjHyTgim6iHsik8Vm4d4UvUBItJ2qKNdk7VZ0xkcxwrk1v6D9sPMcF1rX1EbjNd3AQS2fbZtnGfRE0QPWFS1y6OgZBneiMOdJWQdoSo70kXrKgqT9u7iUAqw9W0dXVENmUQxUDnDSHFAgM744hsorh5nv0gVygg+ueJbPSQ3JR8MguC9Dx1QqdyzTXXDFGqPj1S3Tnat9gItK0bTdDi3cC0cRucYeCHSByTKqKD/SKyDSV9CgEhMHQEumjf8ckJbMHnQZhNxuCiSZV9F5FtCOlTCGQhmAUcylJwzAsfOAX0l1nRyE9+8pPR4tn8FpENChIhIATmhUAqnygvClpoIpsbANFjix4w4ojhZnEBjDjCaCQ5OmOSGeKZSDAMPsJ+FkxgFW6m1HAeKQIsf+hKEtnvec97QpqDUJHi329+85tAfLHwIakPqAvkmYkR1fabT5/316b74KjaIluXX355iKT2izaQt86cWAjqAw44wBc5+r7aaquFBTHZwPnkJjcZR2TbcZDspDWBCKReRMJ7oc20oSoq3B+r74uJQCrD1bT144hsyiGvPYuO8vyzkClks+VzJF+1T+lDBBE5sLEZzCKg0/fLX/4yPLPMMsBukPMRe+SJbK5DlDXR1jEZyD4vlM0CK+gci/Exo0HSfwTa1o2miPI8soAx9YvTSlURHZT93qtTiygiuynSOk4ICIG+ItBV+86sSRapx86T3skPnFfZdxHZfX1K1a5pEOiqbtMWm5HNgpDk02YNLkREdoBB/4SAEJgTAqnsZl4UtPBEto+qhGQl79ohhxwyIqBZCBHyKZZ99tknEKtsv/jii8NCjiw64oV0A5Y3eqWI7PXWW2/Jir9lOee840j9yohsUiWQtgAiDlKOlxZ5sy1HNeQcxL0X8lYxDQk566yzwmJ0fn+T702JbF8WEfRMJaR+d77znUe7XvOa14QI8tEGfekVAqkMV1NQmhDZLLSKbhB9StQCA0YQd0hMZB911FFhOu6vf/3rkI/fT8O1OjHV9rGPfewyItum2UGM20KTdo7/3GijjUbXx0Ydf/zxfre+9xSBNnVj7bXXDil1WDOiSVony/sez8apIjq4RSKye/qgqllCQAhMjECb9p3p/AyE02chgGWcMLhOekJmjdHnMamy774/otQihpY+h4pAm7pNf8VmURMBXpa/2t8HZtNZv58gP0svIiLbo6TvQkAItI1AKruZFwUtPJFNlCNT8YkoQCChnvzkJ4/uSZxOw3aw2jYvBeSII47I3v3ud9uu0ad1xtmwUkQ2C1SSVgQxAjrOtU0qD3JSmZQR2ezzkd277757iE4n3zay8847Z+ecc074bv922mmn7AUveEH4CYnPgjBEgMdCHlNwRiDv/vCHP4wOqSKyIdQt5YudF790SQ3DQAOOMUJ6FIh8ST8RSGW4mqLThMimLGZnkPIDIXKBTiDiiWwWwSPPNTklWTyVKKYyYTFTBqfiiGwjuLEj6Bm6XiY+7z+EOKS5pP8ItKkbDM5CWEBkMxDMyvN1cvDBB2f3uMc9MmYIcbxJFdHBfnt3KiLb0NKnEBACQ0WgTftus1THLSzNvSBvNv0n1gphMXZLtca+KvsuIht0JELgKgTa1G3W8jr66KPDhau4DX9fTIfZts0224wCF0Rke5T0XQgIgbYRSGU386KghSeyAR9iadWqVcvuA6QRCxOWRU5aFAInsZAVC5J4ovUJT3hCyBkHIYusFJHtR0y5ThzhwIKVkGxETJhUEdmeBCPyc/PNNw8R2qTtKMu/TZ5fiDcbBCC1CgSHT8PCIpOkOLCHjuNJx2BSRWTjIOMY22ABAwfkW/Vys5vdLDvhhBNGxKEWt/Po9O+7PUNt5ZJrSmSD9J577hlmZXjUPZGNjrCwCSlxqhan8wNOMZG96aabZocffngontQ8PlWQXZPFXlnhm4UjGXRi8EkyDATa1A0WNGYAkQEbCGeI6irhvcOUc45lTQWmqppYJ4kFIJkJ5UVEtkdD34WAEBgyAm3a9y222CLbb7/9AtzjyC4fSPPGN74xzOq0+1Rl30VkG0L6FALt58i29bDK+uv+ftD3ZhYpgTUEIWy99dYhNSjHiMj2SOm7EBACbSOQyifKi4J6QWT71a/9zTjuuONGDp3fzndW8fWR2xBPp5xySojIvNvd7pbx56MzV4rIJhICkteil8m1e9pppwUii/zVpOAgGtSiRKl7FZHNiwti2YhpjkWqIs7ZxwAAxLSVz1RzSPALL7wwrDgMthaNTd3II+yjRKuIbMom2puobxMWmuTvV7/6VbZ+sQjkDjvskEHUI0SoQsTzwpX0E4FUhqspOpMQ2XTOWISR59LEE9lsY0CJ6G1swb777hv0lJkMLMyInmBTGAS6znWusywim/OtPnxnIA3dIZ0J+sWgE/m1ySUPMUgnsknaB8qSLD4CbeuGH/zFJh966KHZz372s9EgJmQ3hAg2nEFJZgkxsMJ70qSK6GC/iGxDSZ9CQAgMHYE27Tv+PwOVBKGQbpHZY6RPI6CFYB2Cc8iNTWo/Zn0h+BqQ2n6mWJV9F5E99KdZ7fcItKnbXJeguz322CNUgTV6WID7+9//flhLi41wCvAXe+21V0awGEJ/hdlxJiKyDQl9CgEhMA8EUtnNvCioF0Q2jhXT/kmB4QVi6Mwzz/SbRt/XWWedjBzR5JMrE3JJce7TigUIkZUisinbp/jgtxccUVKPWJ4r9lUR2ezjpQb57QUHFWK6Sphy9KpXvapqd9gOkfHCF74wO+OMM5YcV0dkkzqEyJC73/3uS86Jf0DcEel3+umnx7v0u0cIpDJcTSEx4pgFTpj5ME5YhJTFFW0gKCayyeeOfjGwhNDp49llZgNCxCp2gkVi44jscEDxj1kJDNiYsEAkjqcNJDFYhN0677zz7BB9DgCBtnWDmQWvfOUrl0RS865hvQgGYrDdJpdcckn2kpe8JPvRj35km8JnFdHBThHZS6DSDyEgBAaMQNv2nTVz6CdssskmI9QZZL/oootC8IjvK9HPoY+B7+Klyr6LyPYo6fvQEWhbt8GbIDxmT1sAHNvoi9Ansf4I29B5ZlqceOKJ/ByJiOwRFPoiBITAHBBIZTfzoqBeENncA794I78vvfTSkIvWpwthuxcimEnlQTQk0/kRDD/pM8g3TXoRSCVkJYlsyt9qq63CwpLcXEtnAhkG2U7EHFHSJnVEdhyd/uMf/zhEXti5VZ+cR4QGZJ4XCGzIaqK6y6Kl64hsyqEtRF4T+UEUiBF27OMeMT2KvNg+7zb7JP1DgGcb6WJqEUObqNPnPe954WdMZLORaXoMupB73gjvv/71r9n73//+ENHNVN46Ipsc2+jZ9ttvnzGYZgKJyEwM7E6cy96O0Wd/EWhbNwxJ7DI5syE+7L1j+1gvAftMNE/ZomFVRAfni8g2FPUpBITA0BGYh33HPyH4BN+e6OxY8L8JAKKPQb8nlir7LiI7Rkq/h4zAPHQbvCGjWYh7gw02GPVF7D5AaMMfMPPu3HPPtc3UkTmSAAAGUUlEQVSjTxHZIyj0RQgIgTkgkMpu5kVBvSGyZ7kPdOAtMpvpd2VO3SzlT3IuaQbIlUvkRBwhMUk50x7LlHIINpxVUogQjVc3GDDJdXCswZlBg5///OdjFxmbpGwd230EUhmuLrSUZ5n2kFoEXS3Lw19XT2wOaXXWXnvtjIhxyuBTMkwE5q0bRGFvtNFGGemsIK2ZEaDUNsN8FtVqISAE0iIwb/u+1lprBfu+7rrrhtR+pDSbR/8iLaoqTQjMH4F567b1RfDfCIjBd2MG9qR9kvkjqRoIASEwFARS2c28KEhE9lCeGrVTCMwZgVSGa87N0OWFQHIEpBvJIVWBQkAICIFOICD73onboEoIgeQISLeTQ6oChYAQ6DkCqexmXhQkIrvnD4uaJwS6gkAqw9WV9qgeQiAVAtKNVEiqHCEgBIRAtxCQfe/W/VBthEAqBKTbqZBUOUJACAwFgVR2My8KEpE9lKdG7RQCc0YgleGaczN0eSGQHAHpRnJIVaAQEAJCoBMIyL534jaoEkIgOQLS7eSQqkAhIAR6jkAqu5kXBYnI7vnDouYJga4gkMpwdaU9qocQSIWAdCMVkipHCAgBIdAtBGTfu3U/VBshkAoB6XYqJFWOEBACQ0Egld3Mi4JEZA/lqVE7hcCcEUhluObcDF1eCCRHQLqRHFIVKASEgBDoBAKy7524DaqEEEiOgHQ7OaQqUAgIgZ4jkMpu5kVBIrJ7/rCoeUKgKwikMlxdaY/qIQRSISDdSIWkyhECQkAIdAsB2fdu3Q/VRgikQkC6nQpJlSMEhMBQEEhlN/OiIBHZQ3lq1E4hMGcEUhmuOTdDlxcCyRGQbiSHVAUKASEgBDqBgOx7J26DKiEEkiMg3U4OqQoUAkKg5wikspt5UZCI7J4/LGqeEOgKAqkMV1fao3oIgVQISDdSIalyhIAQEALdQkD2vVv3Q7URAqkQkG6nQlLlCAEhMBQEUtnNvChIRPZQnhq1UwjMGYFUhmvOzdDlhUByBKQbySFVgUJACAiBTiAg+96J26BKCIHkCEi3k0OqAoWAEOg5AqnsZl4UJCK75w+LmicEuoJAKsPVlfaoHkIgFQLSjVRIqhwhIASEQLcQkH3v1v1QbYRAKgSk26mQVDlCQAgMBYFUdjMvChKRPZSnRu0UAnNGIJXhmnMzdHkhkBwB6UZySFWgEBACQqATCMi+d+I2qBJCIDkC0u3kkKpAISAEeo5AKruZFwWJyO75w6LmCYGuIJDKcHWlPaqHEEiFgHQjFZIqRwgIASHQLQRk37t1P1QbIZAKAel2KiRVjhAQAkNBIJXdzIuCRGQP5alRO4XAnBFIZbjm3AxdXggkR0C6kRxSFSgEhIAQ6AQCsu+duA2qhBBIjoB0OzmkKlAICIGeI5DKbuZFQSKye/6wqHlCoCsIpDJcXWmP6iEEUiEg3UiFpMoRAkJACHQLAdn3bt0P1UYIpEJAup0KSZUjBITAUBBIZTfzoiAR2UN5atROITBnBFIZrjk3Q5cXAskRkG4kh1QFCgEhIAQ6gYDseydugyohBJIjIN1ODqkKFAJCoOcIpLKbeVGQiOyePyxqnhDoCgKpDFdX2qN6CIFUCEg3UiGpcoSAEBAC3UJA9r1b90O1EQKpEJBup0JS5QgBITAUBFLZzbwoSET2UJ4atVMIzBmBVIZrzs3Q5YVAcgSkG8khVYFCQAgIgU4gIPveidugSgiB5AhIt5NDqgKFgBDoOQKp7GZeFCQiu+cPi5onBLqCQCrD1ZX2qB5CIBUC0o1USKocISAEhEC3EJB979b9UG2EQCoEpNupkFQ5QkAIDAWBVHYzLwoSkT2Up0btFAJzRiCV4ZpzM3R5IZAcAelGckhVoBAQAkKgEwjIvnfiNqgSQiA5AtLt5JCqQCEgBHqOQCq7mRcFicju+cOi5gmBriCQynB1pT2qhxBIhYB0IxWSKkcICAEh0C0EZN+7dT9UGyGQCgHpdiokVY4QEAJDQSCV3cyLgkRkD+WpUTuFwJwRSGW45twMXV4IJEdAupEcUhUoBISAEOgEArLvnbgNqoQQSI6AdDs5pCpQCAiBniOQym7mRUFJieye467mCQEhIASEgBAQAkJACAgBISAEhIAQEAJCQAgIASEgBITAhAhccMEFE56x9PD/BwAA//9lzZJOAABAAElEQVTsnQfcHEX9/2cFNaCIQGhikB8lECJICUVFuiIKAhogVAFpQZrUIEiRJh2UgPSAIkgApYsaQaREKUEMRJAmhF4sCIIg/vc9OvefZ+/2nr08c3O3u595vZK7Z293dvY9O9/d+cx3vpP83//9339MgJTmEyAXZSECIiACIiACIiACIiACIiACIiACIiACIiACIiACIlA1Ak888cSQLikJLWQPtUBDuhodLAIi0NcE3ICX7ERfV5MK1wMCahs9gK5TioAIiEAEArLvESDrFCLQAwJq2z2ArlOKgAiUmkAou5mkGQX1yJZAVer7SoUXga4SCGW4ulpIZS4CPSCgttED6DqlCIiACEQgIPseAbJOIQI9IKC23QPoOqUIiECpCYSym0makYTsUt8KKrwIlIdAKMNVnitWSUWgGAG1jWKctJcIiIAIlI2A7HvZakzlFYFiBNS2i3HSXiIgAiLgCISym0makYRsR1WfIiACXSUQynB1tZDKXAR6QEBtowfQdUoREAERiEBA9j0CZJ1CBHpAQG27B9B1ShEQgVITCGU3kzQjCdmlvhVUeBEoD4FQhqs8V6ySikAxAmobxThpLxEQAREoGwHZ97LVmMorAsUIqG0X46S9REAERMARCGU3kzQjCdmOqj5FQAS6SiCU4epqIZW5CPSAgNpGD6DrlCIgAiIQgYDsewTIOoUI9ICA2nYPoOuUIiACpSYQym4maUYSskt9K6jwIlAeAqEMV3muWCUVgWIE1DaKcdJeIiACIlA2ArLvZasxlVcEihFQ2y7GSXuJgAiIgCMQym4maUYSsh1VfYqACHSVQCjD1dVCKnMR6AEBtY0eQNcpRUAERCACAdn3CJB1ChHoAQG17R5A1ylFQARKTSCU3UzSjCRkl/pWUOFFoDwEQhmu8lyxSioCxQiobRTjpL1EQAREoGwEZN/LVmMqrwgUI6C2XYyT9hIBERABRyCU3UzSjCRkO6r6FAER6CqBUIarq4VU5iLQAwJqGz2ArlOKgAiIQAQCsu8RIOsUItADAmrbPYCuU4qACJSaQCi7maQZScgu9a2gwotAeQiEMlzluWKVVASKEVDbKMZJe4mACIhA2QjIvpetxlReEShGQG27GCftJQIiIAKOQCi7maQZSch2VPUpAiLQVQKhDFdXC6nMRaAHBNQ2egBdpxQBERCBCARk3yNA1ilEoAcE1LZ7AF2nFAERKDWBUHYzSTOSkF3qW0GFF4HyEAhluMpzxSqpCBQjoLZRjJP2EgEREIGyEZB9L1uNqbwiUIyA2nYxTtpLBERABByBUHYzSTOSkO2o6lMERKCrBEIZrq4WUpmLQA8IqG30ALpOKQIiIAIRCMi+R4CsU4hADwiobfcAuk4pAiJQagKh7GaSZiQhu9S3ggovAuUhEMpwleeKVVIRKEZAbaMYJ+0lAiIgAmUjIPtethpTeUWgGAG17WKctJcIiIAIOAKh7GaSZiQh21HVpwiIQFcJhDJcXS2kMheBHhBQ2+gBdJ1SBERABCIQkH2PAFmnEIEeEFDb7gF0nVIERKDUBELZzSTNSEJ2qW8FFV4EykMglOEqzxWrpCJQjIDaRjFO2ksEREAEykZA9r1sNabyikAxAmrbxThpLxEQARFwBELZzSTNSEK2o6pPERCBrhIIZbi6WkhlLgI9IKC20QPoOqUIiIAIRCAg+x4Bsk4hAj0goLbdA+g6pQiIQKkJhLKbSZqRhOxS3woqvAiUh0Aow1WeK1ZJRaAYAbWNYpy0lwiIgAiUjYDse9lqTOUVgWIE1LaLcdJeIiACIuAIhLKbSZqRhGxHVZ8iIAJdJRDKcHW1kMpcBHpAQG2jB9B1ShEQARGIQED2PQJknUIEekBAbbsH0HVKERCBUhMIZTeTNCMJ2YFuhRVXXNHMPffc5vbbbzfvvPNOoFyVjQhUh0Aow1UdIroSEfgvAbUN3QkiIAIiUE0Csu/VrFddlQiobeseEAEREIHOCISym0makYTszti33HvXXXc1u+yyi/3ttttuM/vvv3/L/WZ148c//nGzxx57NA7/9re/bZ5//vnG3/oiAmUgEMpw9fpaP/rRj5qddtrJfOADH7ADV9ddd50t0uyzz24uvvhi8/e//92MHz++18XU+UtEoB/aRpIkZuGFFzZ//etfzRtvvDEovRVWWMHstttuZvr06WbixImD7q8dREAERKCOBPrBvr/3ve81Cy20kO07vP3224NWg+z7oIi0gwiYfmjbVMO8885reId75ZVXBq2VBRZYwHzjG9+wTnennnqq+ctf/jLoMdpBBERABEIRCGU3kzSjygjZa665ptliiy3M/PPPbxZffHHzs5/9zHzrW98KxbxtPldddZVZdNFF7T7//ve/zdprr23efPPNtsd08uMaa6xhTjvttMYhm2++uXnyyScbf+uLCJSBQCjDVfRaP//5z5uNNtrI/Oc//zHHHXecee655wY9FCHv0EMPtft997vfNY888kjTMddcc435yEc+0th+8803m6OOOsosscQS5gc/+IGZMmWKmTBhQuN3fRGBwQjEbhuuPB/+8IfN9ttvb0aPHm1GjhxpPvjBD5p3333XPPXUU2bGjBnmpptuMnfddZfbfcDnRRddZBhkJe28887m97///YDf9YcIiIAIiIDpmdiFTR87dqxZeumlzVJLLWUQsxGx//SnP5k//vGP5tJLL7W2vlUdyb63oqJtIjCQQK/e3d7znveYrbbayqy88spm1KhRZvjw4bZgL730knnooYfM1KlTDdoE/Z9s2nPPPc1Xv/pVu/mss84ytHUlERABEYhFIJTdTNKMmi3cLFxFqALNwqkbh3zve98zq6++euNvvmyzzTYthagBOwX4Y99997XnIqu77757gPd0gOyNhOwQFIvngbiz1157NQ649tprJdI0aMz6l9h24mtf+5rZfffdbYGnTZtmvUdbvdT5V0QZr7jiCruJWRC0Zz8ttthiZvLkyeYPf/iDOfzww22eCOYzZ840c801lw0v9J3vfMe+QPrH6bsItCMQu21QFkSOk08+2Xph55WN9nL++eeb8847r6lDdNhhh5lNNtnECiNf/OIX5dWTB1HbRUAEak2gF/ad9xJs9Pvf//5c9v/4xz/MkUceaX7961837SP73oREG0SgiUAv2jZhTI8//nizyiqrNJXH3/Cb3/zG9lNo537acMMNDTO7SQcccEDL9u/vr+8iIAIiEJJAKLuZpBlVQshmSs2NN95oZptttgGc8TY4/fTTB2zrxh+EFEBsRgDFEzykNzbllZDdjVrLz5PQET/5yU8aO+Bte/311zf+1pdZIxDKcBU9uy9kcwyDXZdccknbwyljOyH7K1/5ivW2JpTCpEmTbF54Nmy77bZWxMYL4pBDDjGvv/562/PoRxHwCcRuGyuttJI544wzzLBhw6wQTbt44IEH7EyfeeaZxyy55JJm3Lhx9pNyEj7HdXxcuXnurbbaata778UXX3Sb9SkCIiACIuARiG3ft9tuO7P33nvbErz88svW45LZZYQkXGSRRawH54477mg+9KEP2QHKo48+2tp4r8hG9t2noe8i0JpA7LbN+xl9DzcrlFlzt956q3nsscesBsLM0A022MCstdZatsDMruNdLhtOaLnllrPbmJmhJAIiIAIxCYSym0maUSWEbKbX7Lfffk11wBQbPMUG88JsOrDPNkjIjlshErK7wzuU4SpauqyQ/a9//cvssMMOVnjLy4MythOyGTRjwArb8tprrzWyITYdouA///nPxjZ9EYGiBGK3DTdtnHjuxLl+9NFHm4rKNHS89T73uc/ZWIp48RA/W0kEREAERKA4gZj2HW9NBh7nmGMOO3OMWLh/+9vfmgpLGMYzzzzThmIk1MjWW2/dtI82iIAItCcQs21TEj8sCOFTcZ5rlXxd5MADD7Rid6v9tE0EREAEYhMIZTeTNKNKCNmMThLjk8SLGZ4GLMRGYtG1e+65x37v9D868sBm8YQiCyh0mj/7E6rgnXfeMc8880yu4N5OyEZAIyY4XhetXlbblYl4qCNGjDAvvPCCefXVV9vt2vY3pi5+7GMfM08//XSukLfgggta7w9GjYnBWjRRj8QtxjsEb5KhCCm8uPOS/+c//7lpdNovz1CEbPJnIQ1mBwy1vH6ZqvA9lOEqyiIrZHMcgh0xgbPeCS5PythOyHb76VMEQhKI2TawqXjwkJh5Qvz4vITdZh+ehazT8KMf/ShvV20XAREQARFoQSCmff/MZz5jWMCNxHofP//5z1uU6L+bPvvZzzbsf6xQjLmF0Q8iUEICMds2eFiHZ5lllrGx7ZkhmpfQBn784x9bDYPQQYQQURIBERCBfiAQym4maUalF7IRYq+++upGvRCz8+tf/7r1ImMjC7Mdc8wxjd+zX7785S83puDxGy92LIpCbF1W7cargYSAyqIIfsgJ+0P6H7Hk1l9/ffsnQhkLX7nENJ8LLrjA/WkfJng/8FBZddVV7UrD/PjWW2+Zn/70pzb8Ad/91ErIxruU2NxjxoyxsXnxOn/iiSfML3/5SxvP1D/e/44wsc8++9hrQ9h1CSGbqYdcI4t8ZVMrTgweMFDAgl/ve9/7rBDPwmAII4jjPEg33XRTuw/ToUhvvPGGncI+2OJ7XDMhG6gDPyGEX3755ZaVv919xxOFWMUkQssQ35UyrrvuulZsZzsLcv7ud7+z5URsdonpV9Q7i2i4euc3WDvh84c//KHN0x3DJ/uzoM5mm23WmIrvfmeAgnvmsssus/m47XX8DGW4irJzQjb33MEHH2xYvJF7sl3IIQaFePkjYUe4T7KJgRtCiXDf074ZEHKLJ9FpfPDBB7OHDPibKX28gPLJoAde3M8++6z5xS9+YT2p8JJVqheBmG2DKak8F0nEWfSfn62oc59jDxnMffzxxxu7EIOV5y0r3n/zm99sbOfLQQcdZDtQxGhE/Oa5una6CDIxHWmPxJhn0JnnBIk2tNNOO9lQJQwkMtg4ffp0O6j0pBY2toz0nwiIQDkJxLTvX/rSlxoL3Q+2MDwOIiuuuKKFis31Q0Tl2XcGNXmXIvF+TUiqLbbYwtpu3ml4p77jjjtsP8T1Zein7brrrmbZZZe1fZ6HH37YHocTEs8DJREoK4GYbRtG9HEXWmghO0DlFqbPY7fooosa+vz0X++///7GbvRz8NImMevOvYfxN312QpM899xzNpwc738bbbSRfXejb03bpd27xb3p/9L3/cIXvmDf+Xgf5N3t5ptvNnfeeSdZKomACIjAAAKh7GaSZlR6IXuXXXaxL0gQItYTseEQlemgk5j+j1F2QqTd6P2HeLn//vs3tiDYYqQJIdAqtRLBiC/HSx8JMRjPBpcQxX0vNqb5UUZilLZKrDZM+AM/HEpWyMbjHPEcEa1VYto4gnQ2MUWc+L2IBnmJ+N4sYnfLLbcM2KUVpwsvvNCGWRiwY/oH4u2WW25pF73Mm66IcEfd+S/OLh/q79hjj7UCsduW/TznnHOaBGX2+dWvftUQst1KzPBqlVgAg3K6MvhxBVvtz7YsWzywTzjhBLtydN4xbGdwgMELd652+1b1t1CGqygfX8gmXhz8qW/aFgs5tpqpMZiQTUeNWMGIba0Sgx60zWz7cfsS6ogXx7yEaMdAWKezK/Ly0/ZyEIjZNhjMYcCFEDncp4jOs5IQnhkkROB2zz+XDwIFA50M4tHhaXXPY3+xzbQZ7GqrZy4DrAggiCxKIiACIlBGAjHtO/0CnD1Ip5xySuN7p9zy7DsD+bfffrvNjgHM1Vdf3SCeZxOD+/RlPvnJT1qnEZxdsglxjYXVQ68rlD2P/haBbhGI2ba5BhaTX2+99ex7F+2O96dO0yc+8YlG/xmnGuJou0R7ZNYq71y8G9LPdzPc3T7MquadDsc5tIaswxn7MdMcoZ0+uZIIiIAI+ARC2c0kzaj0QvZVV11lGHUknX322dboEqt2ypQp1kuY7RjjPGEpK9AiwrIYCp8YcoQtRj9dQhDnGN/wdyJku/zx8Ea0xiOThbX8RH7XXnttY1NWyHZ5EKeXl0VENcfAHZT1JmVRFxYsdJ7GeH3yEkk4EB5Co0aNagjHPKQQ//0wHllOM2fOtItN4H3KiOzIkSPt9HN3/vvuu896euD97Dy8mQ6FN4dLeKAjWPsJgR9PPbcfIVPw8mZAAm8+BgZcwqs76yHvC9mI5Xgf4hWCByAv4EsvvXTjviCfG264oSGy4LWNhyH3jz/QAGNYk/Ca9Rd+ZAonUzld4lx33323fbngBX/OOed0P9kyIFJ2ElqlcXAFvoQyXEVRZIVs6p9peZQDDwRiyPlxrsm3nZDNPcn9hocD4h0DVNxXeCAQWgdRDvGO+mU2QXYRlU996lO2Y4kXFB4L2CjEdGwA9woxiBlkwsMJod15MxW9Xu1XXgKx28ZJJ51kPaQhxgwEFkLt9H7LEzrI0wnZ2E6eTbQbnsE8P7nXaZuEX6KN8EmbQsy+99577TMKm8qsBxLPGAQRJREQAREoI4GY9p2BSgQm3vkRuRC+eGf1nWOKMMyz776QjW3Gvl988cX2PZ3BSAbr3cAm7+PMPMW7k+cM70v0r/DgdO/NLDTM80dJBMpIIGbbho8f+5o+PINJrn9alF8RIZv+P7MlmOnNDD76/PRv0BZwgsARgRmr66yzju0LMbjFtuWXX97uQ9+X9z1m473++utFi6b9REAEakAglN1M0oxKLWQzTY0XKJf8aXQnn3xyY9VeXqYILdAqZQVaOvOMSE6bNs3ujuiExzahI1xCaPXP24mQTR5nnHGGDW/gXix56SMPlxBu3YrjbMsK2QhlRxxxxIBFHhhBpdwunXvuuQNCjCCssUgECeENYQCh16XsOfDc5mXYpSwnHnKIEU7QR6RmZNaF9eA4phjiTcdLLAmxD293HoIkwrDwUHaJl2AGJpzHOC+9hPrwR5ydVy3HwAGxA7HEJV/IZhviCaPCziOfQYPvf//7NlY2v1PfvFC7umBb0RjZPMBPPPFEDrEJz0Me8k4QQvjEW9u9sLNTkan8/82tev+HMlxFyWSFbI7jPsXDgLphkRQWS/FTOyGbdspLI/cSbY2BKD8xSHTllVdaYTprI5haS1gaXu44jgENd0+6PD796U/b2JYMDLUqm9tPn9UjELttsO4AdpCBPhLhbW677TbracdAiv9syKOdJ3SwvxOy+Y5IgVjhJ7yAJkyYYDdxbux8tj0ROovZTbSTtdOwJP5zwM9L30VABESgnwnEtu94QdMHcl7QDLzjhPHb3/7WislFZnzl2XdfyMY2887r+kuuDnBQYQYoCSGM2Zf+OXn/oo9C2ALEOH5XEoEyEojdtmk7zLSgjZNwFsNxjL4vfVD61X5/thXTIkI2xxEajj6373zF9TIoxYAZiYEy+u1+os/r4vQPZZ0yP099FwERqA6BUHYzSTMqtZC93377NYRQpuQjZLvkT+HnZYuXKkYLsykr0GJ8iWfsJwQqhCXnXZv1JO5EyGaRLRebyj8HoTKcFzDisL+IQ1Zk5iHCS6qfeKgQ69SFPECU8EOmUHYegCSE1uxUPo7nupywwYOJB5RLWU6EH7npppvcz/YT8ZvQLC4xeMDD1U9+nfFwXHPNNRvCL3H2HBtEC+rQ9wonH0Q+PGFdWBXEQQYGXPKFbF7eW0298sPRcByxvfwR7aJCtj9Ygmcvorwfa4y8CT3CNM/hw4fzp/W2RWCtYwpluIqyayVkcyyDOHS+SAjTdPBcaidku33afR511FH2fiI2HLHoXUKoozy0OwbFsveJ249yUT6m5SGc+50/t48+q0cgdtuAIGI2z7vsjCB+IwQSA6qEIGkVJ5598oQOfps06b+hRRg0dYIG211iMJO8ee5gs1sNNPM85LlIYrYDsxiUREAERKBsBHph3xG6CIPmHEd8Zjh/TJ061c78pO/UKuXZd1/IxtmF9/5sYnYjThwk3pPps2STew9nIJPQb4OJb9nj9bcI9AOBXrRt+vLoDrQzJyg7FugczApmgUfesbIOM+xXVMimT85AVDahkfDeSP8Ej+ts26V8nJ/PrFNPNi/9LQIiUD8CoexmkmZUWiEbQfPGG2808803n70D8LIktIhLTKtjsQE8qkks+OgWuHL78JkVaInp7Hv4un0RTAlLQcqKVJ0I2a2EcvIkdraLJ43QjHjtUlbIzguV4mJncRxhUXwvcpdXu09fTCfsgfOY45gsJxZ/yIpxDCT48VYJlUBoED+xkIS/QAUiB2IHCUGa8AskvPPwIm+VOJ58SNn9fCE7b9AA8ZwRbZcQDv0F+ooK2Sxo4zxe2q0K7ZeXBz7ehXVc4CaU4XL1NthnnpDNix/eQITUYQCCe9vFLh+qkM3gEflhQ1x7ppxupXFmGdBBzEv+C2ZWZM87RtvLTyB22/CJucV86JDw3Mwm7lkGILODinlCB8dP+p+Q3S4GNzaTAVYWDqN9ZBMhdwj9RGJQSAsHZQnpbxEQgTIQ6JV9R0jinRqnEGZ8ufdVx4z3URxYmCmYFaPy7LsvZOfF4CZUoZuFw3t8drYN5/dnolI2zbhxtaLPMhHoVduGEY5nOGLRHydkTzbhzMW7W7b9+f2MvBjZhB9lvaqsXeAcp512mtUoslqIf37CydGXZvY6YraSCIiACDgCoexmkmZUWiF7tdVWG2AcWagvG5MW48l+JGLRMsUlm7ICbd4L1cSJE22sN47Phv7oRMjO65C7l0byZwTVCbr8nRWyWbDu8ccf56cBCeGL2HMk4lm57/5O88wzj53OR6wrhHk8hlnIgZAg888/f2PXwYRsypcd6cUb2/fOQDDG28JPPHTxWnXJF7LdKK/7LSucuO2+hwlCOYK5S76QnfcA9R/iHAd7xBqXigjZcPNDr2QXgXR58Un4E987lwGGOi5eFspw+Wzbfc8TsjmGF0A8+7n38Tgl7A4vbEWFbOLms/Aj10Tb4R8hcfAsImWFbLy+uW+zsznszt5/5OHi+bcKyeDtqq8VIhC7bbRCxwAP9z/3Nc8cYlkjWpAee+wxO4uBjpFL7pnFNkQJPzkhm84Maxm0SswaYrZTnsceg9TMhCIRZoSBQyUREAERKBuBfrDviNgIzLz/8m6OncchiITnJuEKmQnmUp5994XsvMF2P+wjMxUJd5BNDJy6ZwPPGxeSL7uf/haBfibQD20bPq5PguZBP8T1k/HQ5v2JsCMu+X3gPCG7nTPc6aefbgfG8mbTcR7CLBJOVDHwHXV9ioAIOAKh7GaSZlRaIZvQFhtvvLFjYjvajT/+98WFn+BPwlgwaumHkGB7VshuJdCyXyghm9i6TOnLJvfSyPbBhGw/Frifz2BCNkIzHqNZrww/D/e9F0I2ooXzsHflGOwTLw4GH1zyhew8cdl/iHMc7DsVslngxo8L1mrhSVembCxt4iP7LxVuv6p/hjJcRTm1E7LJA3tA543kZkoMJmTjxc10XcIytEu+kI1ASGxKPpl1wOyOdolOJQNOeKnirapUfQKx20YRothiBibd4AwDP3jiuOSeWRKyHRF9ioAIiEAzgX6074jaRx55pB28pMT0DRhcdCnPvkvIdoT0KQLGOrPAoVUIjl7xYSYG7Ze+Junhhx9uLJ7N334fWEI2RJREQARiEgj1TpSkGZVSyEaIJWyIWxSwKPxWIlJdhGwXo9exIqQCnuXEx2PElr+dqMc+vRCyiaOHkEhCoPYXUrQb//ffbLPNZhe44E8GKK677rrGz7GEbEa7/djK2dA2jQKlXwgxQegYl/IGItzvVf0MZbiK8hlMyCYfF46H+w3PecRmF8+ReNV+fGA8iJhNwEsii+HR6SOePTMHWJWbqXgsbkpsSl/I5jx4WWOvsmIgv/mJvFlghXucxfguuOAC/2d9ryiB2G2jKEbux0svvdR21rJhnPKEDvKe9L/QIvLILkpa+4mACFSVQL/ad2YfXnHFFfadJjtwnmffJWRX9S7Vdc0KgX5t21wLi9mzThQLQhJP24W0lJA9KzWtY0RABEIRCGU3kzSjUgrZxG0ippufEJFaJT/mJ6FHCEHip7oI2SzM6BYcJCQGcZv9lYhhggcz8VJJvRCy/VAwDzzwgF0czxamg/9iCdkInkx1R+ghtZti5XvKsy8e2q0WHuW3KqdQhqsooyJCNiFiEK7xPsVrAW9rhDtSVshmsILpuITtYTDCn4bryuTqOitku2l2CONuoUl3jP85cuTIxvnz4vr7++t7NQjEbBsLLrigDanDwqMMyAyWXNz37OyXPKGD/CRkD0ZVv4uACNSFQEz7znR+BsIZYH/11VcHRczg+lJLLWVnjRFizaU8+y4h2xHSpwjE9cimv+JmLeMB3ip+tV8nzKYjdBvJnwksIdunpO8iIAKxCYR6J0rSjEopZGOY3XRnXtSIz5ln0LPxibPesHUQsgmxcvnllzfuU2KFEzPcT8QKxsPYCbO9ELK33357Q+gVErG1WaAGT/FsIq6q88ZHTHSLRbJfN4TsvFjF/uKUrN7MCs/ZjgNcYU/8MlLWq9FurMl/oQxXUVxFhGzyIpwQdUnCc4FOIMkXshkQo30QU/Kkk06yXkx2p8x/hJsh7ExWyHYCN51L7mtEwVbJjzNPjHtEc6XqE4jZNlh8C8ECIZvwOtiudsmF1WJxX/Z3KU/o4HcJ2Y6SPkVABOpOIKZ9JxwZs8IGW1iaOmF2K6HMeE+98cYbB8zKzLPvErLrfjfr+n0CMds2jmY4nJH23ntvO6vaL0v2u2vDbN9kk00ajgsSsrOk9LcIiEBMAqHsZpJmVDohG0EJ72IX57nd1GUqhUXdrrnmmkb9MFWfKfsu1UHIZhSXl1W3sAveoSeccIJDYMVrYo77C3b1Qsgm7jBCoBPT77vvPiu4+ItKzjvvvLb+XCNgf8JDuBRCyGbhPvJxCe9wQrP45eA3f9V1/sbblkUdnacuXtt41bKgpUsuFrP7u06frs5ixZIrKmRTBwceeKAdiPDrwxeyuSe5J4YNG5a7OB2x2lkEhZQVsldccUVz7rnn2t8IhYPndzaNGDHCrvDN/Td9+nSz4447ZnfR3xUlELNtMDPn+uuvtwM2CM4I1XkJTz2mnDO4wxoGTFV1yXWSFCPbEdGnCIiACDQTiGnf/Rmrg4ldOPYcdNBBtsDHHnusXYzalT7PvkvIdoT0KQJxPbLhjWMUzmmt+sd+fdDvZxYpjjU4IRBixM3ClpDtk9J3ERCB2ARCvRMlaUalE7I33XRTGxbDQc9bPNH9zicd8WWWWcZueuaZZwx5uFQHIZtrZeVgFnch4XU6bdo0u+gkogarHHNT+d6ovRCyKdvaa69thWnnFcvUdwRiYnkzZZI4xc4bm7jEeNz7XqshhGzKQQx2RHOXCAWCoI1XLiIQCaH6rLPOMmPGjHG7WQ/yO++804reCJss2ufSI488YnbYYYcmQdz9XvVP7jFSPwrZdM5YhHGxxRazZeQ/X8jmb+eBj1c1i3uyaCszB6hj7ktWBmewY84552wSsjneCet8ZzovA3KEM+F+XmWVVWx8bV5QEQbpRBYJ+0BeSuUnELttMKsAW0tirYSzzz7bPProow3bxHMBQYTnK4PGb731lh1YYYDGpTyhg9/lke0o6VMERKDuBGLadwbdeUfl/RXhihjYhE+j78PMVd5biY1NmEVmfZF410DU9meK5dl3Cdl1v5t1/T6BmG2b82611VZmv/32s0VgjR4W4L7//vsb4SqZXbHSSiuZCRMmmAUWWMDuR38Fpz+XJGQ7EvoUARHoBYFQdjNJMyqdkH3OOedYIw14wk5ssMEGjc53XmW4FzL3O38z7Y5UFyEboQzxgodcq4SIt+yyyzbY9krIpmxMgTrssMNaFbOxDWEF7+d77723sY0voYTsLbfc0hxwwAED8uYPpnUhXruE4HPKKadYdm5bq0/EW14+fNG91X5V3hbKcBVl5IRjFjhxoYjaHctADzM23IyArJC9/PLL25dGF3efTh+iMzMJSHisInJjU7Ie2e68hxxyiCF8iEvE9qdNuoEbBmdYMJJBD6X6EIjdNphZwDoJ/iwcRI/nn3/eDsSwmK1LL774orWFM2bMcJvsp3uuyiN7ABb9IQIiIAIDCMS278xEZdalc+ChMAyyP/fcc2b++ec3hOdzCacWvLJ5d/FTnn2XkO1T0ve6E4jdtuG9zTbb2NnKs88+ewM/72H0SVx/hB9o88y0uOGGGxr78UVC9gAc+kMERCAygVB2M0kzKpWQzSJVTMvHo4CEcT7yyCPt93b/4WU5efLkxi54KCDqkuoiZHOtLCTHKC0vt06sI74004/w2CDkCiO5pF4K2ZwfD1c8RpwXOdtICNh4sp5//vl2utR/t/7//0MJ2dxjiDwI2niCOy9wBlI4t59gSVnx9PdfItiHl4trr73Weii6FaP9Y+v0PZThKsqsUyGbfAnnsccee9hTZIVsNjJNj/AKo0ePbrQhvPWZ8cBgEFN52wnZhPfhXhk7dmwjbjr5IiLi4X3eeefZsCJsU6oPgdhtw5HFI4+Y2Qgf7rnqfmOgmOmrePNkY/+zT57QwW+T0pAltJF2ob9uu+02K6iw5gXPn2xiUSMGh0jMdmBxXSUREAERKBuBXth33ktx9uBd2p9d6Ni99NJLdoYhi6xnw+axT559l5DtCOpTBIydzQyHWDNNHXPEaBbiXnLJJRt9EfcbgjbONOgcDz74oNvc+JSQ3UChLyIgAj0gEOqdKEkzKpWQ3QPWlTwlL7jcRHiDEjsrb6HMfrh4PJ5ZKJGXZ7yZ8Q7sRXk5P+f1p15m+SAEIWQznQvBkrLi4ehiZmf3r9vfoQxXP3BzbYjQIng5dVrH3Ct4RjE4xwAHedR9oKMf6rVXZeh12yAcDgOdiy++uBWtmRGg0Da9uht0XhEQgSoR6LV9Z1AQ+77IIouYp59+2oY0y3pgV4m3rkUEYhHoddt2fRHaNw4xvLs9mYbi7LRPEouXziMCIiACoexmkmYkIVv3kwiIQBQCoQxXlMLqJCIQkYDaRkTYOpUIiIAIRCQg+x4Rtk4lAhEJqG1HhK1TiYAIVIJAKLuZpBlJyK7ELaGLEIH+JxDKcPX/laqEItAZAbWNznhpbxEQAREoCwHZ97LUlMopAp0RUNvujJf2FgEREIFQdjNJM5KQrftJBEQgCoFQhitKYXUSEYhIQG0jImydSgREQAQiEpB9jwhbpxKBiATUtiPC1qlEQAQqQSCU3UzSjCRkV+KW0EWIQP8TCGW4+v9KVUIR6IyA2kZnvLS3CIiACJSFgOx7WWpK5RSBzgiobXfGS3uLgAiIQCi7maQZScjW/SQCIhCFQCjDFaWwOokIRCSgthERtk4lAiIgAhEJyL5HhK1TiUBEAmrbEWHrVCIgApUgEMpuJmlGErIrcUvoIkSg/wmEMlz9f6UqoQh0RkBtozNe2lsEREAEykJA9r0sNaVyikBnBNS2O+OlvUVABEQglN1M0owkZOt+EgERiEIglOGKUlidRAQiElDbiAhbpxIBERCBiARk3yPC1qlEICIBte2IsHUqERCBShAIZTeTNCMJ2ZW4JXQRItD/BEIZrv6/UpVQBDojoLbRGS/tLQIiIAJlISD7XpaaUjlFoDMCatud8dLeIiACIhDKbiZpRhKydT+JgAhEIRDKcEUprE4iAhEJqG1EhK1TiYAIiEBEArLvEWHrVCIQkYDadkTYOpUIiEAlCISym0makYTsStwSuggR6H8CoQxX/1+pSigCnRFQ2+iMl/YWAREQgbIQkH0vS02pnCLQGQG17c54aW8REAERCGU3kzQjCdm6n0RABKIQCGW4ohRWJxGBiATUNiLC1qlEQAREICIB2feIsHUqEYhIQG07ImydSgREoBIEQtnNJM1IQnYlbgldhAj0P4FQhqv/r1QlFIHOCKhtdMZLe4uACIhAWQjIvpelplROEeiMgNp2Z7y0twiIgAiEsptJmpGEbN1PIiACUQiEMlxRCquTiEBEAmobEWHrVCIgAiIQkYDse0TYOpUIRCSgth0Rtk4lAiJQCQKh7GaSZiQhuxK3hC5CBPqfQCjD1f9XqhKKQGcE1DY646W9RUAERKAsBGTfy1JTKqcIdEZAbbszXtpbBERABELZzSTNSEK27icREIEoBEIZriiF1UlEICIBtY2IsHUqERABEYhIQPY9ImydSgQiElDbjghbpxIBEagEgVB2M0kzkpBdiVtCFyEC/U8glOHq/ytVCUWgMwJqG53x0t4iIAIiUBYCsu9lqSmVUwQ6I6C23Rkv7S0CIiACoexmkmYkIVv3kwiIQBQCoQxXlMLqJCIQkYDaRkTYOpUIiIAIRCQg+x4Rtk4lAhEJqG1HhK1TiYAIVIJAKLuZpBlJyK7ELaGLEIH+JxDKcPX/laqEItAZAbWNznhpbxEQAREoCwHZ97LUlMopAp0RUNvujJf2FgEREIFQdjNJM5KQrftJBEQgCoFQhitKYXUSEYhIQG0jImydSgREQAQiEpB9jwhbpxKBiATUtiPC1qlEQAQqQSCU3UzSjCRkV+KW0EWIQP8TCGW4+v9KVUIR6IyA2kZnvLS3CIiACJSFgOx7WWpK5RSBzgiobXfGS3uLgAiIQCi7maQZScjW/SQCIhCFQCjDFaWwOokIRCSgthERtk4lAiIgAhEJyL5HhK1TiUBEAmrbEWHrVCIgApUgEMpuJmlGQYXsStDVRYiACIiACIiACIiACIiACIiACIiACIiACIiACIiACAQj8MQTTwwpLwnZQ8Kng0VABERABERABERABERABERABERABERABERABERABAYj0HdC9lALNNgF63cREIHyEgg1laS8BFRyEWhNQG2jNRdtFQEREIGyE5B9L3sNqvwi0JqA2nZrLtoqAiIgAnkEQtnNJM0oaGgRCdl5VabtIiACoQyXSIpA1QiobVStRnU9IiACIvBfArLvuhNEoJoE1LarWa+6KhEQge4RCGU3kzQjCdndqyflLAIi4BEIZbi8LPVVBCpBQG2jEtWoixABERCBJgKy701ItEEEKkFAbbsS1aiLEAERiEgglN1M0owkZEesOJ1KBOpMIJThqjNDXXs1CahtVLNedVUiIAIiIPuue0AEqklAbbua9aqrEgER6B6BUHYzSTOSkN29elLOIiACHoFQhsvLUl9FoBIE1DYqUY26CBEQARFoIiD73oREG0SgEgTUtitRjboIERCBiARC2c0kzUhCdsSK06lEoM4EQhmuOjPUtVeTgNpGNetVVyUCIiACsu+6B0SgmgTUtqtZr7oqERCB7hEIZTeTNCMJ2d2rJ+UsAiLgEQhluLws9VUEKkFAbaMS1aiLEAEREIEmArLvTUi0QQQqQUBtuxLVqIsQARGISCCU3UzSjCRkR6w4nUoE6kwglOGqM0NdezUJqG1Us151VSIgAiIg+657QASqSUBtu5r1qqsSARHoHoFQdjNJM5KQ3b16Us4iIAIegVCGy8tSX0WgEgTUNipRjboIERABEWgiIPvehEQbRKASBNS2K1GNuggREIGIBELZzSTNSEJ2xIrTqUSgzgRCGa46M9S1V5OA2kY161VXJQIiIAKy77oHRKCaBNS2q1mvuioREIHuEQhlN5M0IwnZ3asn5SwCIuARCGW4vCz1VQQqQUBtoxLVqIsQAREQgSYCsu9NSLRBBCpBQG27EtWoixABEYhIIJTdTNKMJGRHrDidSgTqTCCU4aozQ117NQmobVSzXnVVIiACIiD7rntABKpJQG27mvWqqxIBEegegVB2M0kzkpDdvXpSziIgAh6BUIbLy1JfRaASBNQ2KlGNuggREAERaCIg+96ERBtEoBIE1LYrUY26CBEQgYgEQtnNJM1IQnbEitOpRKDOBEIZrjoz1LVXk4DaRjXrVVclAiIgArLvugdEoJoE1LarWa+6KhEQge4RCGU3kzQjCdndqyflLAIi4BEIZbi8LPVVBCpBQG2jEtWoixABERCBJgKy701ItEEEKkFAbbsS1aiLEAERiEgglN1M0owkZEesOJ1KBOpMIJThqjNDXXs1CahtVLNedVUiIAIiIPuue0AEqklAbbua9aqrEgER6B6BUHYzSTOSkN29elLOIiACHoFQhsvLUl9FoBIE1DYqUY26CBEQARFoIiD73oREG0SgEgTUtitRjboIERCBiARC2c0kzUhCdsSK06lEoM4EQhmuOjPUtVeTgNpGNetVVyUCIiACsu+6B0SgmgTUtqtZr7oqERCB7hEIZTeTNCMJ2d2rJ+UsAiLgEQhluLws9VUEKkFAbaMS1aiLEAEREIEmArLvTUi0QQQqQUBtuxLVqIsQARGISCCU3UzSjCRkR6w4nUoE6kwglOGqM0NdezUJqG1Us151VSIgAiIg+657QASqSUBtu5r1qqsSARHoHoFQdjNJM5KQnVNPI0aMMCussIK55ZZbzD/+8Y+cvWZtczfznrUS6SgR6D6BUIar+yXVGUQgLgG1jbi8dTYREAERiEVA9j0WaZ1HBOISUNuOy1tnEwERKD+BUHYzSTOSkN3ifhgzZow566yzTJIk5i9/+YvZaKONzL/+9a8We3a+qZt5d14aHSEC8QiEMlzxStz6TB/96EfNTjvtZD7wgQ+Y22+/3Vx33XV2x9lnn91cfPHF5u9//7sZP35864O1VQRaEOiHtsHzbuGFFzZ//etfzRtvvNGilAM3MdC72267menTp5uJEycO/FF/iYAIiIAIWAL9YN/f+973moUWWsg8//zz5u233x60ZmTfB0WkHUTA9EPbphrmnXdeq1m88sorg9bKAgssYL7xjW+Yd955x5x66qlW5xj0IO0gAiIgAoEIhLKbSZpRKYXsb37zm2aRRRYx//nPf4s/efJk8+tf/7ow3sMPP9xgyOm4k8dll11m7rjjjsbx5L/ZZps1/t5nn33MnXfe2fh7KF+6mfdQyqVjRaDbBEIZrqLl/PznP28HoWjjxx13nHnuuecGPRQh79BDD7X7ffe73zWPPPJI0zHXXHON+chHPtLYfvPNN5ujjjrKLLHEEuYHP/iBmTJlipkwYULjd30RgcEIxG4brjwf/vCHzfbbb29Gjx5tRo4caT74wQ+ad9991zz11FNmxowZ5qabbjJ33XWX233A50UXXWQ+/vGP220777yz+f3vfz/gd/0hAiIgAiJgeiZ2YdPHjh1rll56abPUUksZxGxE7D/96U/mj3/8o7n00kutrW9VR7LvrahomwgMJNCrd7f3vOc9ZquttjIrr7yyGTVqlBk+fLgt2EsvvWQeeughM3XqVHPVVVc1dBK/1Hvuuaf56le/ajfhtEdbVxIBERCBWARC2c0kzaiUQvaPfvQj+1LmgN9///1ml112cX+2/eRljuP9dOyxx5qf/vSnjU1rrLGGOe200+zfhBXZcMMNzZtvvtn4fShfupn3UMqlY0Wg2wRCGa6i5fza175mdt99d7v7tGnTrPeoG/zKy4MyXnHFFfbnPfbYw9x9990Ddl1sscUMA2d/+MMfDANieKQimM+cOdPMNddcZu655zbf+c537AvkgAP1hwi0IRC7bVAURI6TTz7ZemHnFY32cv7555vzzjuvqUN02GGHmU022cQKI1/84hfl1ZMHUdtFQARqTaAX9p33Emz0+9///lz29G+OPPLIlo5Asu+52PSDCDQI9KJt0884/vjjzSqrrNIoR6svv/nNb2w/JRseFU3j29/+tj3kgAMOaNn+W+WnbSIgAiIQgkAou5mkGVVCyAbq5ptvbp588slB+WK0t9xyywH7ZYVsfsTT7BOf+IT5+c9/bhjhDJm6mXfIciovEQhJIJThKlomX8jmmO9973vmkksuaXs4ZWwnZH/lK1+x3taEUpg0aZLNC8+Gbbfd1orYeEEccsgh5vXXX297Hv0oAj6B2G1jpZVWMmeccYYZNmyYFaJpFw888IB9hs4zzzxmySWXNOPGjbOflJPwOa7j48pNKJ3VVlvNeve9+OKLbrM+RUAEREAEPAKx7ft2221n9t57b1uCl19+2XpcMruMsCLMZsWDc8cddzQf+tCH7ADl0Ucf3QiR5oot++5I6FME8gnEbtu8n9H3cLNCmTV36623mscee8zMNttsdmboBhtsYNZaay1baGbX8S6XDSe03HLL2W3MzFASAREQgZgEQtnNJM2oMkL2D3/4Q9sxb1cR73vf+8zPfvYz6znp79dKyPZ/13cREIGhEwhluIqWJCtkE+d+hx12sMJbXh6UsZ2QTRw6wjEwuPXaa681siFMEaLgP//5z8Y2fRGBogRitw03bZx47swqePTRR5uKyjR0vPU+97nP2ViKePEQP1tJBERABESgOIGY9h1vTQYe55hjDjtzjFi4f/vb35oKO//885szzzzTLL744vadaOutt27aRxtEQATaE4jZtimJHxbkW9/6ltU0WpWQsCP77bef/enAAw+0Yner/bRNBERABGITCGU3kzSjygjZLMrI9ObsqKNfOUy1w/Mgm8oiZBPWgMUZnnnmmaZp3tlr8v/G64IF6jiu1Qutv6++i0C3CIQyXEXLlxWyOQ7BjpjAeXaCMrYTsoueW/uJQCcEYrYNFinFg4f0k5/8xMaPt3+0+G/BBRe0+yBqE24rG5arxSHaJAIiIAIi4BGIad8/85nP2AXcOD3rfTCrNC999rOfbdj/bbbZpuWaIHnHarsIiED8+Pesw7PMMsvY2PbMEM1LONf8+Mc/tvH5WUOM2ehKIiACItAPBEK9EyVpRpURsqmYgw46yNxyyy25dXT22WebMWPGNP2eFbI32mijAUYfgZxQATwYWBiBaXkkFsXaaaedmkKacA5ij7pEjFE8xkl5efMbi8VdcMEFfLWJBw+LsvC56qqr2lWJ+eGtt96yMb0JlcD3Vglvi3333dcsv/zydqVytw+epNOnT7eiRJHF79xx+hSBoRIIZbiKlsMJ2W+88YY5+OCDDYs30oZZ4Oj0009vmQ3eSbz8kb7+9a+b3/3ud037EXOSUCKECKLNskCeWzyJTuODDz7YdIy/gSl9vIDyyaKzeHE/++yz5he/+IX1pMJLVqleBGK2DaaksmApiTiLV199dVvY3Od4973yyivm8ccfb+zLwDAxshlEZhFjP/Es5pqI0Yj4jWCy9tpr25iOtEdizOMN+MILL9jDaEM8SwlVwqDrn//8Z/ucYlDpyQIhw/xz67sIiIAI9BOBmPb9S1/6ksFTkzRYyEXCh6y44op2X2yuHyIqz74zqMm7FIm+DSGptthiC2u7eachfMkdd9xh11Vw/ZMRI0aYXXfd1Sy77LK2H/Pwww/b4wiRwPNASQTKSiBm24YRsy0WWmghO0DlFqbPY7fooosanBFw3GEtMZfo5+ClTWLWnXsP4+9NN93UEJoEfYBwcrz/oVsQj5t1gGi7tHu3uDeLTm622WbmC1/4gn3n430QjeHmm282d955J1kqiYAIiMAAAqHsZpJmVHohm1V53agkRnOfffYZAMv9QeedBR0RsuhE0zEnDigpK2RjyP0HxDrrrGPcYgksFnnxxRfb1b85NntOJ5SxHwmBixi6zgN0sLx9jzemBBLrjnimrRIrExMqIbuAHaL3McccY4illZcIi3DUUUdpkYc8QNoenEAow1W0YL6QTbw4Fx+f9sJCjvfcc09TVoMJ2XTUeLlDbGuVCF/CIkl5A2oMivHimJcQ7XbeeWfNnMgDVNHtMdsGzygGXAiRw32K6DwrCeF5/PjxVuBG9PATAsXo0aOtNzcdnlb3PM9U4rTSZgh1QtiebHr11VetAILIoiQCIiACZSQQ074zuH755ZdbTKecckrje6fc8uw7A/m33367zY4BzNVXX90gnmcTfR/6J5/85Cet1zehHbMJcW2vvfYyb775ZvYn/S0CpSAQs20DhMXk11tvPfveRbvj/anTxPpfiNEk9BPiaLtEe2TWKu9cvBteeOGFhll8fsKJj3e6X/7yl9a5b4UVVvB/tt+ZPY6O8qtf/arpN20QARGoN4FQdjNJMyq9kH3ccceZjTfe2Ho3Ylwx7P7oortVEK7oNJOOOOIIKxDPipDN8bvvvrtBJHMJ8dyNPPpC9b///W97zhkzZrhd7WhnO5HcF7IJBcLCLMQlRbTGe9OV2WVIqJRrr73W/WkYHUWkIE4eiYVeLrvsMju6ysjquuuu2/DQRsxGgJiVB2HjhPoiAgUJhDJcBU9n2yhtFY8fhGw6YEzLoxzYCGLI+XGuybedkI0nEqEY8HDAO5W2yqAYHggf+9jHbFtHvMMOMXiVXUTlU5/6lKFjiRcUHgtTpkyxYjrtms4gMYjxTMXDCXvlvJmKXq/2Ky+B2G3jpJNOsh7SEGMGQrvZPXlU84QO9ndCNmIGXkG0G0RzBnS513l+sjARbYRP2hRi9r333msHmZkez6wHEjMcEESUREAERKCMBGLadwYqEZgIKci7PcLX9ddf3+TwMhjHPPvuC9nYZuw7zj133XWXHYxksN4NbCJi4ViDdyfPGd6X6NPgwYmNJ7HQMM8fJREoI4GYbRs+fuxrBoIYTGKmdSepiJCN7kDf6YknnrAz+GbOnGmdE5ipihMEjgjMWMXRj74Qg1tsYxY4+8w555z2fY/ZeMxoVxIBERABRyCU3UzSjCohZONh6cThc845pzHS6IAh7t5www1m+PDh1tDykkVH24nCnXhkkyeCFuEJ/IpgoRQ8DuiwO88yzjFx4kRXDPvpC91syHp7+0I2v59xxhn2XM7rmrL7cb55eXSrk7P/yiuvbL7//e/z1b64cj7CFriEZzplRzAjtVsswh2jTxEIQcBvLyHyGyyPrEc2+xNbDg8D2jALv7opuC6vdkI2bY+XRsQ4vBYYXPITszyuvPJKO+BE2AQ6dy4xtZbwQrzccRxe126Whtvn05/+tI1tib1qVTa3nz6rRyB221h44YXtc4LnAYnwNrfddpvtjDCQ4j8z8mjnCR3sz7OPQR0SIgVihZ/wApowYYLdxLkZcMq2J0JjEbeVdrJ2GpZEA64+QX0XAREoC4HY9h0vaMIbOi9oBt4JXfbb3/7WislF1srJs+++kI1tRrSaNm3agKqgT8UiwSSEsF122WXALDPev84991wbtgAxjt+VRKCMBGK3bdoODjG0cRIOc/fdd5/1fGb2G+sAOb0gj2cRIZtjCQ3HTFacc1ziehmUYsCMxEAZM+P95MfpZ9Zeq9mv/v76LgIiUC8CoexmkmZUCSEb0Yd/iER0wBFvfUO+xhpr2JjQ3CYITSeccIL1Up5VIZt8eBDwIoboRMLDjbjUznOMaTmI29nOdydCNgtyuThW9iT/+w+x3oUbYUqQC63Cz3T8EQBInBsP7KxnJx6h7iHEQ9B/SNkD9Z8IdIFAKMNVtGithGyOpY3S+SIhTNPBc6mdkO32afdJuB5ixWVDDrlZHEyhHTt2bMtZI+RLuSgf0/IQzot0ONuVR7+Vg0DstgEVxOxTTz21MaDrkyJWKoOkzO5pFSeeffOEDn5zQjazFZygwXaX8Oghb55DeO0Rwz6beMbxrCMxm4pZDEoiIAIiUDYCvbDvCF2EQcPWZhMzZaZOnWpnc+atQZBn330hG8/vQw45JJu97XfQzyIhqLt1R/wdEa+Jm81AJjPm/D6bv5++i0A/E+hF20bMxqGN/r3ryztGeEXffffdNmwo71hZhxn2KypkE/uegahsYpY3+gn9Ezyus22X8rHAJJ9Zp55sXvpbBESgfgRC2c0kzagSQjZe0HhWujhte+65p/U8cLcGL1K8KJGIOc10ZmeI2dapRzbHkFzMXb4zBQeBGA8IjDovaW4xBH53qRMhG5GBcmYTsbMRyUmI1Aj1LrFwc1KXCgAAQABJREFUCwK7S0zlm5R6x+GJkRW03T76FIEYBEIZrqJlzROyefGjjRDXjdAi48aNayxyNFQhe//997f50VF0bZTyupXGaY90EPOS/4KZFdnzjtH28hOI3TZ8Ym4xHzokTEfPJu7Z/fbbz4a48n/LEzrYh2cOHtntYnDT0WHwmYXDaB/ZRMgdZlKR/PBd2f30twiIgAj0M4Fe2XeEJEKaEe6DGV/OQ9uxoq/C2kEs+psVo/Lsuy9k58XgHjVqVGMWDmHWsrNtOL8/u5SyZZ1+XBn1KQL9TKBXbRsmzKjDcYbFGAnZk03MxODdLdv+/H5GXoxsFp1ff/31m+wC5zjttNOs7pB12PHPjy7DWkLMTEXMVhIBERABRyCU3UzSjCojZBOX6YILLrCM8LBEBCLNN998Nj4cIjOr7bq4myGEbEIJ4GmAZ5uf2IZ43ip1ImTndd7dCyb5M9rKi6pLvLieffbZdsTVbeOT/RDXmMaHFwXihJIIxCQQynAVLXOekM3xvAASxodFTPA4ZfCLjlxRIZtVw1n4kWtiJW/+Ea7HDZhlhWxsEp5RdBoZOMtL5OEWimwVkiHvOG0vN4HYbaMVLQZ4uP+5rxkcJZY1ogXpscces7MF6Bi55J5DbEOU8JMTsunMsI5Fq0QoE56heR57PLuZaUViltEdd9zRKhttEwEREIG+JtAP9h0RG4EZEWvNNde0dt7NKMVzk7WDmAnmUp5994XsvMH2ZZddthFajZi+hDvIJgZO3bOB540cbbKE9HcZCPRD24aT65Osttpqth/iZmLgoc37k+9YV0TIZlY5s0dbpdNPP90OjOXNpuMYZr+zdpBi4LciqG0iUG8CoexmkmZUGSGbWwIBmY44I/uMUjLtBW8ARCrSiSeeaCZPnmy/hxCyySgrTLMNz3AWN2mVsvu3i5FNHF6m/2WTe8Fke1bIZhtebocffriNK8pCWq0SIViOTFcdzsa2a7WvtolACAKhDFfRsrQTsskDLwY6byQ3+2EwIRsvbqbrZgevbCbef76QjUDIjAg+iXlPrOx2iU7lPPPMY71U8VZVqj6B2G2jCFGEZKaNu8EZBn7wxHHJPYckZDsi+hQBERCBZgL9aN8RtekD8M5DYjYZg4su5dl3CdmOkD5FwAxYK6tfeODQRvtlLR6S78TH3xKyoaAkAiLQKwKh3omSNKNKCdl4W+PFTKLDTcebRQhYVRtxG68xQgmQQgjZeHnjebb00kvbPN1/7RZqiyFku3IgRHDNY8aMsYuquBFa9zseEIj8eGkriUC3CYQyXEXLOZiQTT4sVLLeeutZ+4D9QGx28RyJV+3HB8aDiBjYvCQyEESnjxj1rO7NqtxMxSPmI7EpfSGb8+Bljbd1VgzkNz+RNwusMADFoq1ulom/j75Xj0DstlGUIPejW9iY6akMDLuUJ3Tw+6T/hRaRR7ajpU8REIG6EuhX+87U/yuuuMK+0xDeyR84z7PvErLrehfrulsR6Ne2TVldyFXWwiKeNiFQSRKyLQb9JwIi0CMCoexmkmZUKSEboZaYmkyhYyo0i424eNE33XST9VJ2dRZCyGZRNrdoHNN3EKpcypsKHVPIdmVxn8RC3XLLLQdMA7/mmmvMMccc43bRpwh0jUAow1W0gEWE7LnnntsK1wz64LWAtzXCHSkrZF944YV2Ou7MmTPN5ptvPmAarisTU20322yzJiHbTbNDGHc2wx3jf44cObJxftol7VOp+gRito0FF1zQhtRh4VEGZAZLLu47g8HEMnUpT+jgdwnZjpI+RUAE6k4gpn1nOj8D4Qywv/rqq4OiZ3B9qaWWsrPG3OxVDsqz7xKyB0WqHWpEIGbbpr9CX4XEIozZuPZZ7Mymc2FO8c524UUkZGdJ6W8REIGYBELZzSTNqFJCNpXgPCz5jrck3tik3Xbbzdx33332O/8NVchebLHFrHclHmskPMG//OUvN6ZhP//884YVf1mR20/dFrJdeTgno7Dvvvuuf3r7ncUXiGFHynqO2o36TwS6QCCU4SpatCJCNnkRY56QHyTajAvH4wvZLIJHnGtiSp500knWi8kekPnPzQDJtisncNO5ZOGlvIWNsCGEcyAhiCOaK1WfQMy24cJtIWQTXocQXO3SxIkTzaqrrmpeeOEFu7/bN0/o4HcJ2Y6SPkVABOpOIKZ9x6uaWWGDLSxNneD0Qygz1gq58cYbG6HW+C3PvkvIho6SCPyXQMy2jTPaRRddZE+89957m7vuuqttNbg2zE6bbLJJw3FBQnZbbPpRBESgywRC2c0kzahyQrYvSrl6QAxCIPJHL4ciZBN+4PzzzzcsMEkiFAArA7OAHJ6XTkxutehjt4VsBDm3+CPXvf322zfCqVBWyn755Zc34uK1W3WY/ZVEIBSBUIaraHmKCtnkd+CBB9qBJz9vX8imTbOwybBhw3IXp8NblUVQSFkhe8UVV2zMDrnuuuus57d/Lr6PGDHCLpDEwpHTp083O+64Y3YX/V1RAjHbxvDhw+0CyAzYIDgjVOclPPWYcs6+2ZBZrpOkGNl59LRdBERABOLG0V1//fXN8ccfb7EPJnYxs+yggw6y+7IINYtRu5Rn3yVkO0L6FIG4bRve9N+XWGIJ65jHDArWyWqV8N5mFinOfDghsHaXc2yTkN2KmLaJgAjEIhCqz5ukGVVOyEaovfbaa+0Kvq5CzjzzzMYK2m7bUIRswnMccMABNiseInheO8/J8ePHW08GfuShQcxcN52Hbd0Wsn0xjfOxWjgC3IwZMwwCBg+z5ZZbjp9sOvjgg+3v7m99ikC3CIQyXEXL14mQTeeMRRgXS2dauOQL2Wxzg0R4VR933HF2IVZmXLAwI/GzCSeEPWCx1ayQzfGuPHxnOi/hjghnQkiiVVZZxdoKXlARBulEFgn7QF5K5ScQu20wq2Dttde24PDqOfvss+2zwnWKeFYgiLDgMF57rKfAwAr3tUt5Qge/I5CPHj3aKEa2o6VPERCBuhKIad8ZdL/++uvNvPPOa/sgxMDGqeaZZ56xzjz0kYiNvd1229lZX9QJ7xqI2v5MsTz7LiG7rnexrrsVgZhtm/NvtdVW1nGO78w6Zz0w1rkivCmJ2RUrrbSSmTBhgllggQXsNvorvIu5JCHbkdCnCIhALwiEsptJmlHlhGwqBPF4l112sXXzzjvvmI033ti8/PLLA+pqVoVsvK4ZEZ1jjjlsfkzzOeussxp585J39dVXNx4gxLHaZpttGqOm3RayeUklpiniOt/zEi+seOIhqCmJQAwCoQxX0bI64ZgFTogVN1gaNWqUXVzRzajICtnMwOClkTAjJNoQovPCCy9s/8ZjFZF73LhxLYVsdiJsCLNDXGKBSF48XTgTFo3Efj3yyCNuF33WgEDstsHMgkMPPXTAegkMvBISi4EYf2HgF1980Q7cMhjqpzyhg30kZPuk9F0ERKDOBGLbd/oprBG0zDLLNLAzSPncc8+Z+eefv9F/4cdp06ZZr2zeXfyUZ98lZPuU9L3uBGK3bXijKeCNPfvsszfw0xehT+L6I/xAm2emBWuH+UlCtk9D30VABGITCGU3kzSjSgrZGHKmyBHP9rbbbrPCbraSZlXIxrt7tdVWs9m99NJLVpQi1qif8M5kBNSl8847rxFWoNtCtjsnZdxjjz3sFCRePF167bXXrEiGd2lWmHD76FMEukEglOEqWrZOhWzyxeuUdkPKCtlsY5oeK4HjbeoEbzwhLrnkEuvRzVTedkI2NglPqLFjxw6YNYKIOHXqVIOtIKyIUr0IxG4bji5x2ImZjfCRHfjkWcG6EjzLWi0alid0kLeEbEdYnyIgAnUn0Av7zvsJa/fQH8E7O5vov7DuB30aNxPH3yfPvkvI9inpe90J9KJtwxwxGqe1JZdcstEXcXWBoM3sOWbePfjgg25z41NCdgOFvoiACPSAQCi7maQZlVLI7gHz0p4ScQJhn39MLcTjTkkEekEglOHqRdmz56STyPUQWgQvJ2Z+dJJol3hGLbjgggaPcfLgU6meBHrdNvDCHjlypF07AdGaGQEKbVPPe1FXLQIiEJZAr+37fPPNZ+37IossYp5++mkb0izrgR32ipWbCNSDQK/btuuL8P6GQwzvbk8++WTHfZJ61JauUgREoB8IhLKbSZqRhOx+qFGVQQRqQCCU4aoBKl1izQiobdSswnW5IiACtSEg+16bqtaF1oyA2nbNKlyXKwIiMGQCoexmkmYkIXvI1aEMREAEihAIZbiKnEv7iECZCKhtlKm2VFYREAERKE5A9r04K+0pAmUioLZdptpSWUVABPqBQCi7maQZScjuhxpVGUSgBgRCGa4aoNIl1oyA2kbNKlyXKwIiUBsCsu+1qWpdaM0IqG3XrMJ1uSIgAkMmEMpuJmlGErKHXB3KQAREoAiBUIaryLm0jwiUiYDaRplqS2UVAREQgeIEZN+Ls9KeIlAmAmrbZaotlVUERKAfCISym0makYTsfqhRlUEEakAglOGqASpdYs0IqG3UrMJ1uSIgArUhIPtem6rWhdaMgNp2zSpclysCIjBkAqHsZpJmJCF7yNWhDERABIoQCGW4ipxL+4hAmQiobZSptlRWERABEShOQPa9OCvtKQJlIqC2XabaUllFQAT6gUAou5mkGUnI7ocaVRlEoAYEQhmuGqDSJdaMgNpGzSpclysCIlAbArLvtalqXWjNCKht16zCdbkiIAJDJhDKbiZpRhKyh1wdykAERKAIgVCGq8i5tI8IlImA2kaZaktlFQEREIHiBGTfi7PSniJQJgJq22WqLZVVBESgHwiEsptJmpGE7H6oUZVBBGpAIJThqgEqXWLNCKht1KzCdbkiIAK1ISD7Xpuq1oXWjIDads0qXJcrAiIwZAKh7GaSZiQhe8jVoQxEQASKEAhluIqcS/uIQJkIqG2UqbZUVhEQAREoTkD2vTgr7SkCZSKgtl2m2lJZRUAE+oFAKLuZpBlJyO6HGlUZRKAGBEIZrhqg0iXWjIDaRs0qXJcrAiJQGwKy77Wpal1ozQiobdeswnW5IiACQyYQym4maUYSsodcHcpABESgCIFQhqvIubSPCJSJgNpGmWpLZRUBERCB4gRk34uz0p4iUCYCattlqi2VVQREoB8IhLKbSZqRhOx+qFGVQQRqQCCU4aoBKl1izQiobdSswnW5IiACtSEg+16bqtaF1oyA2nbNKlyXKwIiMGQCoexmkmYkIXvI1aEMREAEihAIZbiKnEv7iECZCKhtlKm2VFYREAERKE5A9r04K+0pAmUioLZdptpSWUVABPqBQCi7maQZScjuhxpVGUSgBgRCGa4aoNIl1oyA2kbNKlyXKwIiUBsCsu+1qWpdaM0IqG3XrMJ1uSIgAkMmEMpuJmlGErKHXB3KQAREoAiBUIaryLm0jwiUiYDaRplqS2UVAREQgeIEZN+Ls9KeIlAmAmrbZaotlVUERKAfCISym0makYTsfqhRlUEEakAglOGqASpdYs0IqG3UrMJ1uSIgArUhIPtem6rWhdaMgNp2zSpclysCIjBkAqHsZpJmJCF7yNWhDERABIoQCGW4ipxL+4hAmQiobZSptlRWERABEShOQPa9OCvtKQJlIqC2XabaUllFQAT6gUAou5mkGUnI7ocaVRlEoAYEQhmuGqDSJdaMgNpGzSpclysCIlAbArLvtalqXWjNCKht16zCdbkiIAJDJhDKbiZpRhKyh1wdykAERKAIgVCGq8i5tI8IlImA2kaZaktlFQEREIHiBGTfi7PSniJQJgJq22WqLZVVBESgHwiEsptJmpGE7H6oUZVBBGpAIJThqgEqXWLNCKht1KzCdbkiIAK1ISD7Xpuq1oXWjIDads0qXJcrAiIwZAKh7GaSZhRUyB7ylSkDERABERABERABERABERABERABERABERABERABERCBShF44oknhnQ9ErKHhE8Hi4AIiIAIiIAIiIAIiIAIiIAIiIAIiIAIiIAIiIAIDEag74TsoRZosAvW7yIgAuUlEGoqSXkJqOQi0JqA2kZrLtoqAiIgAmUnIPte9hpU+UWgNQG17dZctFUEREAE8giEsptJmlHQ0CISsvOqTNtFQARCGS6RFIGqEVDbqFqN6npEQARE4L8EZN91J4hANQmobVezXnVVIiAC3SMQym4maUYSsrtXT8pZBETAIxDKcHlZ6qsIVIKA2kYlqlEXIQIiIAJNBGTfm5BogwhUgoDadiWqURchAiIQkUAou5mkGUnIjlhxOpUI1JlAKMNVZ4a69moSUNuoZr3qqkRABERA9l33gAhUk4DadjXrVVclAiLQPQKh7GaSZiQhu3v1pJxFQAQ8AqEMl5elvopAJQiobVSiGnURIiACItBEQPa9CYk2iEAlCKhtV6IadREiIAIRCYSym0makYTsiBWnU4lAnQmEMlx1ZqhrryYBtY1q1quuSgREQARk33UPiEA1CahtV7NedVUiIALdIxDKbiZpRhKyu1dPylkERMAjEMpweVnqqwhUgoDaRiWqURchAiIgAk0EZN+bkGiDCFSCgNp2JapRFyECIhCRQCi7maQZSciOWHE6lQjUmUAow1Vnhrr2ahJQ26hmveqqREAERED2XfeACFSTgNp2NetVVyUCItA9AqHsZpJmJCG7e/WknEVABDwCoQyXl6W+ikAlCKhtVKIadREiIAIi0ERA9r0JiTaIQCUIqG1Xohp1ESIgAhEJhLKbSZqRhOyIFadTiUCdCYQyXHVmqGuvJgG1jWrWq65KBERABGTfdQ+IQDUJqG1Xs151VSIgAt0jEMpuJmlGErK7V0/KWQREwCMQynB5WeqrCFSCgNpGJapRFyECIiACTQRk35uQaIMIVIKA2nYlqlEXIQIiEJFAKLuZpBlJyI5YcTqVCNSZQCjDVWeGuvZqElDbqGa96qpEQAREQPZd94AIVJOA2nY161VXJQIi0D0CoexmkmYkIbt79aScRUAEPAKhDJeXpb6KQCUIqG1Uohp1ESIgAiLQRED2vQmJNohAJQiobVeiGnURIiACEQmEsptJmpGE7IgVp1OJQJ0JhDJcdWaoa68mAbWNatarrkoEREAEZN91D4hANQmobVezXnVVIiAC3SMQym4maUYSsrtXT8pZBETAIxDKcHlZ6qsIVIKA2kYlqlEXIQIiIAJNBGTfm5BogwhUgoDadiWqURchAiIQkUAou5mkGUnIjlhxOpUI1JlAKMNVZ4a69moSUNuoZr3qqkRABERA9l33gAhUk4DadjXrVVclAiLQPQKh7GaSZiQhu3v1pJxFQAQ8AqEMl5elvopAJQiobVSiGnURIiACItBEQPa9CYk2iEAlCKhtV6IadREiIAIRCYSym0makYTsiBWnU4lAnQmEMlx1ZqhrryYBtY1q1quuSgREQARk33UPiEA1CahtV7NedVUiIALdIxDKbiZpRhKyu1dPylkERMAjEMpweVnqqwhUgoDaRiWqURchAiIgAk0EZN+bkGiDCFSCgNp2JapRFyECIhCRQCi7maQZSciOWHE6lQjUmUAow1Vnhrr2ahJQ26hmveqqREAERED2XfeACFSTgNp2NetVVyUCItA9AqHsZpJmJCG7e/UUNecPfvCD5kMf+pB59tlnB5x3qaWWMsOGDbPbX3nllQG/6Q8RiEkglOGKWWadSwRiEFDbiEFZ5xABERCB+ARk3+Mz1xlFIAYBte0YlHUOERCBKhEIZTeTNCMJ2SW/M5IkMfvuu6/ZaqutDN8Rso844ghz//33279//etfmznmmMMcfvjh5qabbir51ar4ZSYQynD1msFHP/pRs9NOO5kPfOAD5vbbbzfXXXedLdLss89uLr74YvP3v//djB8/vtfF1PlLRKAf2gbPj4UXXtj89a9/NW+88cag9FZYYQWz2267menTp5uJEycOur92EAEREIE6EugH+/7e977XLLTQQub55583b7/99qDVIPs+KCLtIAKmH9o21TDvvPPaPn8Rh7UFFljAfOMb3zDvvPOOOfXUU81f/vIX1aQIiIAIRCMQym4maUalFLK/+c1vmo985COFgf/5z382J510UuH9y7Tj2muv3XRt//73v62g9v73v99ss8029nK++tWvmoceeqhMl6ayVoxAKMNVFMvnP/95s9FGG5n//Oc/5rjjjjPPPffcoIci5B166KF2v+9+97vmkUceaTrmmmuuGWB/br75ZnPUUUeZJZZYwvzgBz8wU6ZMMRMmTGg6ThtEII9A7LbhyvHhD3/YbL/99mb06NFm5MiRhpk97777rnnqqafMjBkz7ODnXXfd5XYf8HnRRReZj3/843bbzjvvbH7/+98P+F1/iIAIiIAImJ6JXdj0sWPHmqWXXtowOxMxGxH7T3/6k/njH/9oLr30UmvrW9WR7HsrKtomAgMJ9Ord7T3veY91YFt55ZXNqFGjzPDhw23BXnrpJdvXnzp1qrnqqqts/2dgiY3Zc889DZoA6ayzzjK0dSUREAERiEUglN1M0oxKKWT/6Ec/si9lRYEj4DqjXfSYsux3wgknmHXXXdc+uBDPNt10U7PjjjvakVl3DQ888ID52te+5v7Upwj0hEAow1W08Nzzu+++u9192rRp1nsUUbtdooxXXHGF3WWPPfYwd99994DdF1tsMTN58mTzhz/8wc5ywCMVwXzmzJlmrrnmMnPPPbf5zne+Y18gBxyoP0SgDYHYbYOiIHKcfPLJ1gs7r2i0l/PPP9+cd955TR2iww47zGyyySZWGPniF78or548iNouAiJQawK9sO+8l2CjcWjJS//4xz/MkUceaZi5mU2y71ki+lsEmgn0om3Tzzj++OPNKqus0lwgb8tvfvMb20+hnftpww03NN/+9rftpgMOOKBl+/f313cREAERCEkglN1M0ozaqzoFSx2qQAVPZyRk/39SCAwIEoQ0uPDCC+0PY8aMsaEPRowYYRCx8UZnuriSCPSSQGw74QvZXPf3vvc9c8kll7RFQBnbCdlf+cpXrLc1oRQmTZpk82KQbNttt7UiNl4QhxxyiHn99dfbnkc/ioBPIHbbWGmllcwZZ5xh10/AQ492wbPiySefNPPMM49Zcsklzbhx4+wn5SR8juv4uHITSme11Vaz3n0vvvii26xPERABERABj0Bs+77ddtuZvffe25bg5Zdfth6XzC4jrMgiiyxiPThxeGFdHQYrjz766EaINFds2XdHQp8ikE8gdtvm/Yy+h5uVTsjQW2+91Tz22GNmttlmszNDN9hgA7PWWmvZQjO7jne5bDih5ZZbzm5jZoaSCIiACMQkEMpuJmlGpReyH330UUMIgHaJ0Ug8KJVEQAR6RyCU4Sp6BVkh+1//+pfZYYcdrPCWlwdlbCdkE4eOcAxM33vttdca2RBfmEVV//nPfza26YsIFCUQu224aePEc2dWAc/RbGIaOt56n/vc52wsRbx4NCCapaS/RUAERKA9gZj2HW9NBh5ZG4d+D7Fw//a3vzUVcP755zdnnnmmWXzxxe070dZbb920jzaIgAi0JxCzbVMSPyzIt771LfOzn/2sZQFZN2u//fazvx144IFW7G65ozaKgAiIQGQCoexmkmZUeiGbkAG77rpr5CpofzpeEHmZJDZ3dhS03ZFzzjmnYREGBAQ84zo5lnyZQshiLsQ5xQsDsY14p50kRnuJE/zmm29a740ii375+ePhwWJ4zzzzTMuXZ39ffa8XgVCGqyi1rJDNcQh2xATOa1uUsZ2QXfTc2k8EOiEQs22wSCkePKSf/OQnNn68/aPFfwsuuKDdh2fSaaedZmdDtdhNm0RABERABHIIxLTvn/nMZ+wCbhSF9T5+/vOf55TKmM9+9rMN+896Oq3WBMk9WD+IgAhEj3/POjzLLLOMjW3PDNG8hHPNj3/8Y1s+QgcRQkRJBERABPqBQKh3oiTNqHZCNnFs8VZw6cQTTzQ33nij+7PxiRcai0q6ROxp3xuNPMiLxIIpxBEdP368jVf9sY99zG5n0cXf/e539kWRKX15aZ111jF4Q7BKuEsIbSzIQozec845J1d4Y//VV1/dLurING8eXi7hbce1/fCHPzQvvPCC29z0yTFMPdpiiy2sCO12YMoh5cd7795773Wbmz4R7vfdd1+z/PLLWyHd7YCQPn36dCuAFFlozx2nz2oSCGW4itJxQjaDMQcffLCducG9Tns9/fTTW2aDdxIvf6Svf/3r9v7P7siAEaFEWOiOBR4ZOHKLJ9FpfPDBB7OHDPibKX28gPLJwBVe3M8++6z5xS9+YW0T7VapXgRitg2mpLJgKYk4i1dffXVb2NznePe98sor5vHHH2/sSwxWYmSz4r3/rGSHgw46yHagiNFIKDAEExYmJqYj7RFPQbwB3XOJNrTTTjvZUCUMhDIIzLODQSUGdZVEQAREoKwEYtr3L33pSwZPTdLmm2/e1n4SPmTFFVe0+2Jz/RBRefadQU03C5Z+DyGp6DvQ/+Cdhr7OHXfcYddVeOutt2zehDnE4WjZZZc1zGp7+OGH7XGT0hAJnTrL2Az1nwj0CYGYbZtLRnvAYY2+hluYPg/FoosuanBGQE+4//77G7vRz8FLm8SsO/cext9oHYQmoc9OODne/zbaaCP77obmQdul3bvFvVl0crPNNjNf+MIX7Dsf74O8u918883mzjvvJEslERABERhAIJTdTNKMaidk4zE8ZcqUBtBjjjmm0alvbEy/sHgVBt4lOuK+kP2rX/2qIWS7FX+JOdcqEdpkyy23HPCS6PZDCGBRlXaJF0VGU3lAZBMiOGIEsbHyEschLPgPMn9fHmi8iOYlQjIwPRFRO5tWXXVVA0M8ufMSIRiOOuooLSiRB6gm20MZrqK4fCGbeHG0IdohAzQs5HjPPfc0ZTWYkE1HjZc7xLZWibZCe77lllta/dxkV7I7IdrtvPPOms2QBVPxv2O2DQZz6AQRIof7lGfDrCSEZwZvEbgRPfyEQDF69GjrzU2Hx3+Wuv14LvLMpM3wDEXgyKZXX33VCiCILEoiIAIiUEYCMe07g+uXX365xXTKKac0vnfKLc++M5B/++232+wYwMSRBvE8mxjcJ5TbJz/5SevM8773vS+7i+2T7LXXXnYGaNOP2iACJSAQs22Dg8Xk11tvPfveRbvj/anT9IlPfMKK0RyHUw1xtF2iPTJrlXcu3g1Ze4tZfH5ipjfvdL/85S/NWWedNcAJz+33zjvvWKEdrURJBERABHwCoexmkmYkITuAkI03JV5ueB/gacaL3tJLL238F7cbbrihqTO/7rrr2hc8J0Ljwc1IJiOhvPwRnsQlQiIQ88pPiMhM93bn4eGCNygPJbwjhg8f3tgdMRkRDy9pP7FQHTG3XOI8CNaMvJIHHqMkvCZ23313M2PGDLerYSQWQcSVk3Aml112mS0/o7hcHyPHJM6P2DErD93GCfWl1ARCGa6iELJCNu2SaXmUAw8E2pMf55p82wnZeCIRigEPB8Q7PE1p7wwUMQsDUQ7xjnZIu8ouovKpT33K0LHEC4p2zoAaYjptjM4gMYjxTGXgCqHdeTMVvV7tV14CsdsGCwDjIU1iBgILoXZ6v+UJHeTphGzEDLyCaDeI5ngGca/TNnnu0Ub4pE25mT94fzM9nlkPJJ5pCCJKIiACIlBGAjHtOwOVCEw47fC+jfB1/fXX2wH8Ttjl2XdfyMY2Y99ZbP6uu+6yg5E4AbmBTUQs+in0aXjO8L7EYpN4cGLjSSw0zPNHSQTKSCBm24aPH/sa5zQGk7L9+sE4FhGycdyj3//EE09YZ7+ZM2fa/g0zVXGCwBEBrQBnOvpCDG6xjZnZ7EOoVN73cAJ8/fXXByuSfhcBEagRgVB2M0kzkpAdQMjm3qOTzjQfDDdpySWXNN///vcbIi8iAS9ueIOSEL4nT57cEKHxPGMU1E3xQSQm3Mg+++xj9+c/Ov+IXCTCeVx11VV2yjd/s5gLxyOqk3iZ5W9fpGaqj+/9jbB2xhln2P35j4cRwrhLvLAS1gRxjoR4t/HGGzeuceWVV7bXyG9cF1OS3PnZxjUSxgFxjtRuYQq7g/6rNIFQhqsopKyQzXHElsPDAFGaRVLcFFyXZzshm84ZL420cbwWHnroIXeY/USAu/LKK60wTdgEOncuMbWWED+83HEcXtfOVrh9Pv3pT9vYlrT9VmVz++mzegRitw3WQeD5hI0mEd7mtttus50RnjG+Hc+jnSd0sL8TsvmOSIFY4Se8gCZMmGA3cW4GSbPtiXBVxG2lnSC6axDUJ6jvIiACZSEQ277jCHPyySc3+he8uxO67Le//a0Vk1st/phlmWfffSEb24xoxVpFfjr22GPtIsFsQwjbZZddBswy4/3r3HPPtWELEOP4XUkEykggdtum7eAQQxsn4QB33333GQaNmP2GM5rTGfJ4FhGyOZbQcMxk9dfa4noZlEJjIDFQhhbhJz9OP7P2Ws1+9ffXdxEQgXoRCGU3kzSj0gvZTF+hI9wurb/++g1D3I3QIrwktpriw8uZvxAlMaTcyGnWE7pVPF4eFAgCxJUjEcuUMCIkRG7CfbjE6sQ8dPzE8QjV7oGHEMDoqItJ56YocQwiAl5v2QcgXt14kyOukTinm1aIyIDYQCJvPLCzXn14n7oHHg9c/4FoD9R/tSEQynAVBdZKyOZY7nPaGwlhmg6eS+2EbLdPu09C6NDOiQ3nD0Ih1FEeFlEdO3ZsY8AqmxflonzYNYTzIh3ObB76u3wEYrcNCCFmn3rqqXbQNUuMWKl42DHjplVIKfbPEzr4jecWA6DMVmC9iWzCo4e8eTbQASOGfTattNJKdiCV7cx2YBaDkgiIgAiUjUAv7Dvv/YRBw9ZmEzNlpk6daq699lrzZM4aBHn23Rey8fw+5JBDstnbvsAJJ5xgtyOou3VH/B1d/4j+G6Hfsn0Pf199F4F+JdCLto2YffTRR9t25vrXjg9e0aytxQKPvGNlHWbYr6iQTchRBqKyiZnXOOvRP0FTyLZdysf5+cw69WTz0t8iIAL1IxDKbiZpRqUXsotUPyEynIDaDSH71ltvbSyc4JdnzTXXtCOnbhsClVsIbuLEiXbKHb/ldfb5jQcBL44khGAn2rPYihOoeXAxvadVQgzjgeeSL0QjfA8bNsz+RMgFt4CL29d9MtrK9EESXqXOi5tFYvCqcIlpg5NSAQOvj6yg7fbRZ30JhDJcRQnmCdm8+HHfsrgqoUVY6NQtcjRUIXv//fe3+dFRZLDJJbfSOG2EDmJe8l8wsyJ73jHaXn4CsduGT8wt5kOHhOdjNnHPMlDqrxHBPnlCB7/xHEDIbheDm44OMxR47tA+somQOwyikhgU0sJBWUL6WwREoAwEemXf6T8w85JwH8z4cmEIHTMEqJ/+9KfWQSYrRuXZd1/IzovBPWrUqMYsHJx2srNtOL/fN6FsmnHjakWfZSLQq7YNI2bU4TjDYoyE7MkmnOx4d8u2P7+fkRcjm0XncQLM2gXOwcztNdZYo8lhxz8/4eRYS4iZqYjZSiIgAiLgCISym0maUemFbIxsqxFHB4tPprl0U8jOM9T+w4Jy8GKIKEDCQwHRjMS0oN12281+L/qfGxFl/3bi2MiRI214D5fvcccdZ+OVEtcabwo/ZYUK95vv0eGHPOAl+eyzz7aju25fPqkPhDymDHIOd83+PvpePwKhDFdRcnlCNsfzAkgoHRYxweOUEDzYkqJCNrHfWfiRayKePP8IoYNnESkrZOP1TTui08i027xEHoh/pFYhGfKO0/ZyE4jdNlrRYoCH+5/7mk4KsazdIOpjjz1mZzHQMXIpT+jgdydk05nhmdMqEcqEcDx5HnvzzTefDbHDscz8ueOOO1plo20iIAIi0NcE+sG+I2IjMNMvwckGO+9mWuK5ecQRR9iZYA5knn33hey8wXZmkbrQasT0JdxBNjFw6p4NPG/k/JIlpL/LQKAf2jacXJ8Exz36Ia7fjqMb70+EHXHJ1ybyhGwWe2T2aKt0+umn24GxvNl0HEOYRdYOUgz8VgS1TQTqTSCU3UzSjEovZBObzQ/fMdit0Q2PbBapYuXebPIfFvzmC9kIwnTUSa0WgrQ/tPnPP56XUOJzt0rZ66WclBcP62xcq1bHZ7cx3XzvvfdubMaj7vDDD7cxTN2ilY0f//eFeKtHpiscZ+PoZffT39UmEMpwFaXUTsgmD7wY6LyRCLHA4NBgQjZe3EzXJSxDu+QL2QiEzFLgk9kMzGpol2jP88wzj/VSzZsl0e54/VY+ArHbRhFCPJ+YNu4GZ7JrKOQJHeQtIbsIYe0jAiJQBwL9aN8RtXkvdw41zCZjcNGlPPsuIdsR0qcIGOvMAodWITh6xQcnM9ova/GQHn744cbi2fztaxMSsiGiJAIiEJNAqHeiJM1IQnbOYo++yEXl4j3geywzEokXJmlWhOzLL7/cLLHEEvb4WfHI9o9ncS5Eu1ZpqaWWsp6n7jdibBNrm9FaPzYwAvWUKVPcbgM+EagJa0JysVMH7JD+gejBVMExY8bYBVzcaLDbD28LvF7x0laqJ4FQhqsovcGEbPJxceKZ1rrttttasdnFc8zGrccGEAObl0QGZ+j0PfXUU9YusCo3U/EYVCPkjy9kcx68rPG2zoqB/OYn8ibkD22OxfguuOAC/2d9ryiB2G2jKEbuRxbspXxMT2WauEt5Qge/T/pfaBF5ZDta+hQBEagrgX6170z9v+KKK+w7TTa8YJ59l5Bd17tY192KQL+2bcrKYvas30X/nTWs3PpYErJb1aS2iYAIxCIQym4maUa1E7L9qftUGFNk6KhnE/Gs3YJw/BZayCZmFFOASO1iZNsdWvznH0+cXx5SrRILbfmhDJzXBd6hLNroYublifGt8iyyjbirW265pRW33f7XXHONOSYdOFCqJ4FQhqsovSJCNiF2EK4ZiMFrAW9rZw+yQvaFF15op+POnDnTbL755gOm4boyMdV2s802axKy3TQ7wpj4dsUd5z79UEC0FdqMUvUJxGwbCy64oA2pw8KjDMgMllzcdwZ7iGXqUp7Qwe8Ssh0lfYqACNSdQEz7znR+BsJxvHn11VcHRc/gOg4vzBrD2cSlPPsuIdsR0qcIxPXIpr/iZnLjAd4qfrVfJ8ymI3QbCe9sF15EQrZPSd9FQARiEwj1TpSkGdVOyKayXLxavl933XVWvOK7n/zFGNkeWsjGs81/aRw/fry55557/CLY7zyEll9+eespetNNN9kQCPyw/fbbm7322quxf1Z0cz+cdNJJNuwHfyNE4DWN8E0izAELwZB4wLGKeKsHIw9PJ3iz2CQxt0h467nEiK+LQ+628UmcPOLlkbJeqnaj/qsNgVCGqyiwIkI2edEG3AKm3McuRI7fpgjRg90gpiRtCi+mVsktjJq9153ATeeShZfyFjb68pe/bMM5kDeCOKK5UvUJxGwb7tmDkM3MI1aeb5fcs/CFF16w+7t984QOfpeQ7SjpUwREoO4EYtp3txB8u7VzXH3wXk8oM9YKufHGGxuh1vg9z75LyHb09CkCcYVsHMRwOiMR4pOZ1O2Sa8Pss8kmmzQcFyRkt6Om30RABLpNINQ7UZJmVEsh23XMqSgEpR133NE88sgjjXrDk/iAAw5o/M2X0EI2i80R4sOJZi+//LLZZpttBnhQbLzxxjb+tCsIQrMLzUGMXkQzJyazCNfWW2894Hi8Rg866CB3uA0dMmHChMbfXJNbbIWNiA+w8RMLwhBXe9iwYXazv7iLL4QjuCGuO5GcnfH6JgSKi8F35513mn322cfPXt9rRCCU4SqKrKiQTX4HHnig2WKLLQZk7QvZtDPCCdEO8hanw1uVGR6krJC94oormnPPPdf+ljd4NmLECDvwQ8ii6dOnW7tkD9B/lScQs20MHz7cXH/99fbZ08rm+7Dx1GPKOc8pf6Ff9nGdJJ49DJD6iXxHjx5tFxb2nzH+Plrs0aeh7yIgAlUlENO+r7/++oYQgqTBxC6/j8DMTRajdinPvkvIdoT0KQJxhWx4u7CihCTFGe7tt99uWQ04oDGLlPWwcEIgxIhzNpOQ3RKZNoqACEQiEOqdKEkzqqWQvcceewwQiXgQIBAT4oOp/YsttpgVhOedd95GlYYWssm4VTnwyn766afNqquuasvhCsA0oqzQtvbaa9sYv04M5zruvfdeG7d39dVXtw8wdzzC2m677TZAaOY3VjNGQHdpxowZ1jMcL71lllnGrLPOOg2xnTyII+wehr5wx/GsTI7YRx6IJTw4EcJdOvjgg+3v7m991otAKMNVlFonQjadMxZhpO275AvZbHMDN3hVI85NnTrVMEOBhRmxD7Ql2iALoGaFbI535eE703mZYUE4E8IdrbLKKja+NnHzEQbpRBYJ+0BeSuUnELtt+DN18Oo5++yzrf12nSLsN4IIs37w2mONAwZ8ua9dyhM6+F1CtqOkTxEQgboTiGnfGXRnoJL+C+/qzB4jfNozzzxjZ1ziYEJs7O22287O+qJueNdA1PZniuXZdwnZdb+bdf0+gZhtm/NutdVWZr/99rNFYI2e0047zeoXbqY0sytWWmklg9PaAgssYPejv8J6JS5JyHYk9CkCItALAqHsZpJmVEshmxcxOu6+yOpXJIIsL394H7vUDSGbF05WDSeOdbuEtzhxSp9//vmm3fDaZkEHXk7zEt7SiGit4uVx3BFHHGHDHeQdz3ZedImx9dJLLzV241jKhcDe7vy8HOPpjXinVF8CoQxXUYJOOGaBE2LFDZZGjRplF1d0sxyyQjYhfnhpJMwIifsa0ZnZESQ8VhG5x40b11LIZp9DDjnEED7EJRaI5MXTDUaxaCQLRvozRNy++qwugdhtg5kFhx566ABPakQPnjEMxPiL9bLALzOUGKD0U57QwT4Ssn1S+i4CIlBnArHtOzM+TzjhBOuM4rgzSPncc8+Z+eef38wxxxxus5k2bZqducm7i5/y7LuEbJ+SvtedQOy2DW+cz/DGnn322Rv46YvQJ3H9EX6gzTPT4oYbbmjsxxcJ2QNw6A8REIHIBELZzSTNqJZCNvXFtBsEXKb84xHp0pQpU2wcajwkEZld6oaQ7fLGcxkxeOmll3ab7CcCNIvDnXrqqdYjbsCP3h94zuEpzVRuPxEDlbi+hDRoJYK7fXkYEjeVmLwsBOYnvNQRoC+77LLcMrBoJd7leJPykusSYUYQ5PBkzYogbh991odAKMNVlFinQjb54nXKvUzKCtlsY5oeA0e0NSd44wlxySWXWI9upvK2E7KJsY0n1NixY81CCy1EljYhIuLhfd5559mwIm67PutBIHbbcFSx+dh+hI/sYCT2m+mrePO0GgTNEzrIW0K2I6xPERCBuhPohX3n/YRQfvRd/Nmlri5wSqF/wMLxbiaO+43PPPsuIdunpO91J9CLtg1zxGgcyZZccslGX8TVBYI2s+eYeffggw+6zY1PCdkNFPoiAiLQAwKh7GaSZlRKITskczrvCLB4oT355JMGD8leJWJJMwWQdOKJJ5rJkyd3VBRWM0Ycw8OTl1S8qJkSXjTBgtFcxGwWvWPaUtZLo11e7njyYBpjO/G8XT76rZoEQhmufqBDJ5HrIbQIXk7vvPNOR8WireAZRVvDY5w8+FSqJ4Fetw2ef4TV4hmEaM0ApELb1PNe1FWLgAiEJdBr+07fAPu+yCKL2NCFhDTr5N0+LA3lJgLVIdDrtu36IrRvHGJ4d0PL6LRPUp0a0ZWIgAj0O4FQdjNJM6q9kN1PlU0oEzzk8KQ+55xzrLcEizQoiUAVCIQyXFVgoWsQAZ+A2oZPQ99FQAREoDoEZN+rU5e6EhHwCaht+zT0XQREQAQGJxDKbiZpRhKyB+cdbQ9iWa233nqNeLmMqG666aZ2xeFohdCJRKBLBEIZri4VT9mKQM8IqG30DL1OLAIiIAJdJSD73lW8ylwEekZAbbtn6HViERCBkhIIZTeTNCMJ2X12EzBNaPz48TaOLkW76KKLzFlnndVnpVRxRKBzAqEMV+dn1hEi0N8E1Db6u35UOhEQARGYVQKy77NKTseJQH8TUNvu7/pR6URABPqPQCi7maQZScjuk/p1C78NGzbM7LbbboYFHEkTJ040kyZNst/1nwiUmUAow1VmBiq7CLQioLbRioq2iYAIiED5Cci+l78OdQUi0IqA2nYrKtomAiIgAvkEQtnNJM1IQnY+56i/sPrwuHHjBpyTxbZ23XVXhRYZQEV/lJVAKMNV1utXuUUgj4DaRh4ZbRcBERCBchOQfS93/an0IpBHQG07j4y2i4AIiEBrAqHsZpJmJCG7NePoW9daay2z4YYbmrnmmssK14899pi58sorzVtvvRW9LDqhCHSDQCjD1Y2yKU8R6CUBtY1e0te5RUAERKB7BGTfu8dWOYtALwmobfeSvs4tAiJQRgKh7GaSZiQhu4x3gMosAiUkEMpwlfDSVWQRaEtAbaMtHv0oAiIgAqUlIPte2qpTwUWgLQG17bZ49KMIiIAINBEIZTeTNCMJ2U14tUEERKAbBEIZrm6UTXmKQC8JqG30kr7OLQIiIALdIyD73j22ylkEeklAbbuX9HVuERCBMhIIZTeTNCMJ2WW8A1RmESghgVCGq4SXriKLQFsCahtt8ehHERABESgtAdn30ladCi4CbQmobbfFox9FQAREoIlAKLuZpBlJyG7Cqw0iIALdIBDKcHWjbMpTBHpJQG2jl/R1bhEQARHoHgHZ9+6xVc4i0EsCatu9pK9zi4AIlJFAKLuZpBlJyC7jHaAyi0AJCYQyXCW8dBVZBNoSUNtoi0c/ioAIiEBpCci+l7bqVHARaEtAbbstHv0oAiIgAk0EQtnNJM1IQnYTXm0QARHoBoFQhqsbZVOeItBLAmobvaSvc4uACIhA9wjIvnePrXIWgV4SUNvuJX2dWwREoIwEQtnNJM1IQnYZ7wCVWQRKSCCU4SrhpavIItCWgNpGWzz6UQREQARKS0D2vbRVp4KLQFsCattt8ehHERABEWgiEMpuJmlGErKb8GqDCIhANwiEMlzdKJvyFIFeElDb6CV9nVsEREAEukdA9r17bJWzCPSSgNp2L+nr3CIgAmUkEMpuJmlGErLLeAeozCJQQgKhDFcJL11FFoG2BNQ22uLRjyIgAiJQWgKy76WtOhVcBNoSUNtui0c/ioAIiEATgVB2M0kzkpDdhFcbREAEukEglOHqRtmUpwj0koDaRi/p69wiIAIi0D0Csu/dY6ucRaCXBNS2e0lf5xaB/9femcDdNpV/fJ8u5V5Tl8s184mMUQiNIkVEUqaESiLKkEiDQqRBgzKPUZSSJpkqUZkyhDKX6CIzme4Nl///fFfWab37PeedznrPe84+3/X5vO85Zw9rr/1dez1779961rMk0IsEctnNWj0jhexevAIsswR6kEAuw9WDp26RJTAkAdvGkHhcKQEJSKBnCWjfe7bqLLgEhiRg2x4SjyslIAEJDCKQy27W6hkpZA/C6wIJSGA8COQyXONRNvOUwEQSsG1MJH2PLQEJSGD8CGjfx4+tOUtgIgnYtieSvseWgAR6kUAuu1mrZ6SQ3YtXgGWWQA8SyGW4evDULbIEhiRg2xgSjyslIAEJ9CwB7XvPVp0Fl8CQBGzbQ+JxpQQkIIFBBHLZzVo9I4XsQXhdIAEJjAeBXIZrPMpmnhKYSAK2jYmk77ElIAEJjB8B7fv4sTVnCUwkAdv2RNL32BKQQC8SyGU3a/WMFLJ78QqwzBLoQQK5DFcPnrpFlsCQBGwbQ+JxpQQkIIGeJaB979mqs+ASGJKAbXtIPK6UgAQkMIhALrtZq2eUVcgeVFIXSEACEpCABCQgAQlIQAISkIAEJCABCUhAAhKQQF8TuPPOO9s6f4XstvC5swQkIAEJSEACEpCABCQgAQlIQAISkIAEJCABCQxHoOuE7HYLNNwJu14CEuhdArmGkvQuAUsugeYEbBvNubhUAhKQQK8T0L73eg1afgk0J2Dbbs7FpRKQgARaEchlN2v1jLKGFlHIblVlLpeABHIZLklKoGoEbBtVq1HPRwISkMB/CWjfvRIkUE0Ctu1q1qtnJQEJjB+BXHazVs9IIXv86smcJSCBhEAuw5Vk6VcJVIKAbaMS1ehJSEACEhhEQPs+CIkLJFAJArbtSlSjJyEBCXSQQC67WatnpJDdwYrzUBLoZwK5DFc/M/Tcq0nAtlHNevWsJCABCWjfvQYkUE0Ctu1q1qtnJQEJjB+BXHazVs9IIXv86smcJSCBhEAuw5Vk6VcJVIKAbaMS1ehJSEACEhhEQPs+CIkLJFAJArbtSlSjJyEBCXSQQC67WatnpJDdwYrzUBLoZwK5DFc/M/Tcq0nAtlHNevWsJCABCWjfvQYkUE0Ctu1q1qtnJQEJjB+BXHazVs9IIXv86smcJSCBhEAuw5Vk6VcJVIKAbaMS1ehJSEACEhhEQPs+CIkLJFAJArbtSlSjJyEBCXSQQC67WatnpJDdwYrzUBLoZwK5DFc/M/Tcq0nAtlHNevWsJCABCWjfvQYkUE0Ctu1q1qtnJQEJjB+BXHazVs9IIXv86smcJSCBhEAuw5Vk6VcJVIKAbaMS1ehJSEACEhhEQPs+CIkLJFAJArbtSlSjJyEBCXSQQC67WatnpJDdwYrzUBLoZwK5DFc/M/Tcq0nAtlHNevWsJCABCWjfvQYkUE0Ctu1q1qtnJQEJjB+BXHazVs9IIXv86smcJSCBhEAuw5Vk6VcJVIKAbaMS1ehJSEACEhhEQPs+CIkLJFAJArbtSlSjJyEBCXSQQC67WatnpJDdwYrzUBLoZwK5DFc/M/Tcq0nAtlHNevWsJCABCWjfvQYkUE0Ctu1q1qtnJQEJjB+BXHazVs9IIXv86smcJSCBhEAuw5Vk6VcJVIKAbaMS1ehJSEACEhhEQPs+CIkLJFAJArbtSlSjJyEBCXSQQC67WatnpJDdwYrzUBLoZwK5DFc/M/Tcq0nAtlHNevWsJCABCWjfvQYkUE0Ctu1q1qtnJQEJjB+BXHazVs9IIXv86smcJSCBhEAuw5Vk6VcJVIKAbaMS1ehJSEACEhhEQPs+CIkLJFAJArbtSlSjJyEBCXSQQC67WatnpJDdwYrzUBLoZwK5DFc/M/Tcq0nAtlHNevWsJCABCWjfvQYkUE0Ctu1q1qtnJQEJjB+BXHazVs9IIXv86smcJSCBhEAuw5Vk6VcJVIKAbaMS1ehJSEACEhhEQPs+CIkLJFAJArbtSlSjJyEBCXSQQC67WatnpJDdwYrzUBLoZwK5DFc/M/Tcq0nAtlHNevWsJCABCWjfvQYkUE0Ctu1q1qtnJQEJjB+BXHazVs9IIXv86smcJSCBhEAuw5Vk6VcJVIKAbaMS1ehJSEACEhhEQPs+CIkLJFAJArbtSlSjJyEBCXSQQC67WatnpJDdwYrzUBLoZwK5DFc/M/Tcq0nAtlHNevWsJCABCWjfvQYkUE0Ctu1q1qtnJQEJjB+BXHazVs9IIXv86qlrc15yySWL17zmNcXFF19cPPXUU11bzqEKNtdccxXTpk0r7r333uL//u9/lzGNY5555ikefPDB4oEHHhgqC9d1mEAuw9XhYns4CYw7AdvGuCP2ABKQgAQmhID2fUKwe1AJjDsB2/a4I/YAEpBAxQjkspu1ekb/UwDbgJSrQG0UIexaq9WKhRdeuJh//vmLf//738Wjjz5azJ49u91sK7X/a1/72uKYY44pYPXYY48Vm266afHss882znH//fcvll566fD72muvLU4++eTGum75stNOOxW77LJLMWnSpOKRRx4pDj300OLSSy8NxfvlL39ZLLroosURRxxRnHHGGd1SZMtRJ9AtdqLdylhiiSUKron274wAACjRSURBVMG55547XHfnnHNOyHKOOeYoTjvttOKJJ54odtttt3YP4/59RKAb2gb3BGwn986ZM2cOS5/O0F133bW48cYbi6OPPnrY7d1AAhKQQD8S6Ab7PueccxaLLLJIcf/99xfPPffcsNWgfR8WkRtIoGveaxZYYIHwXs878XAJneQTn/hE0Ee++c1vBi1guH1cLwEJSCAXgVzPRLV6Rj0vZPNwtsEGGxRbb711seKKKxb8jgmB9o9//GPx05/+tLjqqqvi4r7+/OxnP1tsscUWDQZ77bVXcfnllzd+I8StvPLK4fdvfvObgu27Kb361a8uTjrppAFFwiP7Rz/6UfH4448HYYWVe++9d3HZZZcN2M4fE0sgl+Ea6Vm84x3vCB01XB+HHXZYcd999w27K0Le5z73ubDdd77zneL2228ftM8vfvGLYrHFFmssv/DCC4uDDz64WHbZZYvvf//7xUUXXVR8+tOfbqz3iwSGI9DpthHL8/KXv7zYcccdi1VWWaVYfvnlw2iWF154oZgxY0Zxyy23FOeff35xxRVXxM0HfH73u98tXvWqV4VlO++8c3HDDTcMWO8PCUhAAhKYuE58bPqWW25ZrLDCCsUrX/nK8H6EiP23v/2tuPXWW4OzB7a+WdK+N6PiMgkMJDBRz24veclLive9733FmmuuWay00kphhDIle+ihh4qbb765uPLKK4uzzz57wIjlWPKPf/zjxQc+8IHwE8c22rpJAhKQQKcI5LKbtXpGPS1kIybheRuBtKoAhKzjjz++K72LW5V5vJa/6U1vKr71rW+F7AkrsvHGGxf/+c9/GofrdiEbgfC9731vEFoQq9ddd92CmzLesDHxYL7VVlsVCDKm7iEQ2+mdd97ZkUJ9+MMfLj760Y+GY1133XWhkyMNQ9OsEJTxxz/+cVi1++67F1dfffWAzZZZZpnirLPOKv76178WX/jCF0KeCOb33HNPMe+884bRIF/5ylfCA+SAHf0hgSEIdLptUBREjq9//evBC7tV0WgvdByeeOKJg16IDjjggGLzzTcP3n3vfOc79eppBdHlEpBAXxOYCPvOcwk2+mUve1lL9rwDHHTQQcXvf//7Qdto3wchcYEEBhGYiLbNqPMvf/nLxVprrTWoPOkCHPl4TymHEOW9/4tf/GLYdN99923a/tN8/C4BCUggJ4FcdrNWz6hnhWy8C+hJxKMsTYQSwWiXl7PNr3/962C8n3nmmXSXvvuOFx2ezfCg9zZN3S5kf/WrXy1e97rXFYQQ+cY3vhGKjgc5Q9xf8YpXBE8TtjE+dlqr3fE9l+Ea6dmkQjb7HHnkkcX3vve9IXenjEMJ2XSi0JlCKIVTTz015IVnw/bbbx9EbLwgPvOZzxRPP/30kMdxpQRSAp1uG2ussUbx7W9/u2CuATz0aBd/+ctfirvuuquYOnVqsdxyyxXbbrtt+KSchM+JLz6x3HQerrPOOsHmMieBSQISkIAEBhPotH3fYYcdij333DMU5OGHHw4el4wuI6zI4osvHjw4P/ShDxXzzTdf6KA85JBDgo1PS659T2n4XQLNCXS6bfN8xrtHHBXKqLlLLrmkuOOOO0K4TUaGbrTRRsVb3vKWUGAcu3iWK4cTWnXVVcMyRmaYJCABCXSSQC67Watn1JNCNuFDEFwRs2O67bbbglBFXGfE7IUWWqhYffXVC3obMfwxnXfeecWBBx4Yf/pZItDtQnapuP7sIQK5DNdIT7ksZBNq6IMf/GAQ3lrlQRmHErKJQ0cnGR1ATz75ZCMb4gsjCs6aNauxzC8SGCmBTreNOGyceO50Av79738fVFTus3jrbbjhhuGeihcP8bNNEpCABCQwcgKdtO94a9LxOHny5DByjFi4hN0rJ96RjjrqqIYDyHbbbVfexN8SkMAwBDrZtilKGhbk85//fHHBBRc0LSFhR/bZZ5+wbr/99gtid9MNXSgBCUigwwRy2c1aPaOeFLJTbwPYIyrxENbsJXv69OnB84xeShJDpd///vcPKWbxAs9D3oILLhjyxLs3nRAxZDTCf8Sx4th4RTC5YrPEgyexeQm5MFZvcTwrEOzxuBhrHpRttEL2PPPMUyy55JLBA5rJNUeTYDNt2rTwR7lHuz/Hoo6oq3/+85+jFhFz1vNozrtft81luEbKryxksx+CHTGBy94JMU/KOJSQHbfzUwI5CXSybTBJKR48pJ/97Gchfnz40eQf90+2wVYSkuoHP/hBk61cJAEJSEACrQh00r6/+c1vLpjAjcR8H4y8bJXe/va3N+w/70XN5gRpta/LJSCBzse/Zx4e5gPD05oRoq0SzjXMHYXtIXQQTn0mCUhAAt1AINczUa2eUU8K2T/5yU+KpZdeOtTF888/H+LgXn/99S3rJo0LzUYnnHBCiPlZ3gHBGZH8bW9724C4cohe3AjOOOOM4sYbbyzvFoTqk08+ubGcG8Y//vGPYv/99w8xrIidS0Ko/tKXvtSYFIvh3WwbPcvxJOdB8thjjw0TNTQyfPELXhYxL8pC7NJ3vetdBYIdQjgJof7Pf/5zcdxxxxXNmGy66aYDbmjENk3DIIxEyEbcYJJIZjVHRI4JIZryE/KFicJaJbxaGda4ySabhKGNcTs6JNiPG3WzssftVltttYL4xXBDwCdx3v/617+CBwohR5p1asT9x1rPcX8/x0Ygl+Ea6dGjkD1z5szQFpm8kYc72g6x9ZslwtPw8Ef62Mc+1nSSWGJOEkqEED1cS3TmxMmTeGm86aabmmXdWMaQPh5A+WT2cLy4uXaZXJU2jpesqb8IdLJtMCSVCUtJxFlkMuShEtc53n2PPPJIuK/FbYnBSoxsOmjLkwJ/6lOfCi9QxGhE/EYwWW+99cL9kPZIjHm8AWMIKNrQTjvtFEKVLLHEEqFjknstnUqEOzFJQAIS6FUCnbTvvBPgqUlirpih7CfhQxi5SsIZJA0R1cq+06nJsxSJdxBCUm299dbBdvNMg1MKE60zr0J0qsHZZZdddgkTyfP8zwha9ju1HiKB+4FJAr1KoJNtG0a8IyyyyCKhgypOTN+K3VJLLVXwvo6Gkb5T856DlzaJUXfxOYzf7373u0Nokvvuuy+Ek+P5D92AeNzoD7Rd2n2c3BuHtC222CK8z8OC50Ge3S688MLi8ssvJ0uTBCQggQEEctnNWj2jnhOyU6EJKiMJFYJ4hYcC3rskDHCMrxwW1P+NZGIUhGa80qLHZtwXQTX1VGMoH3FzEXrLiTwQy4lTx0RbzRIPfwjFhElJ0+9+97uGkM3Q8Je+9KXBuzzdJn4nD4SBsocFN6n05rf++usPmAhiOCGbYebEAEZ4aJWYPJIJJi6++OJBm3AjZOLNKN4P2qC+AO934lwTB7uc9thjjyAicvNsle69996COmg2qWA79dzqeC4fGYFchmtkRytCBw+TPfKiRLw4Oo222Wab0OlBR8g111wzKKvUvjQTsnlRI1YwYluzxLXLJEnNrn22p+OIB8dWiZfOnXfeuelQ4Fb7uLz3CXSybXA/pMOFEDlcp4jOY0ncX3bbbbcgcGNX04RAscoqqwRvbu63za555rKgQ5M2w/0MgaOc6BxFAEFkMUlAAhLoRQKdtO90rp955pkBE+858ftoubWy73TkX3rppSE7OjCZswbxvJzo3CeU2+tf//rg9c37SjkhrvFMn044X97G3xLoZgKdbNtwYDL5DTbYIDx30e7GMlqcObIQo0k41eDdHRPtkVGrPHPxbHjKKacUjOJL0wsvvBCe6X77298Gx7VWWgdaA7qFSQISkEBKIJfdrNUz6jkhO062FoEwYdXpp58ef47pkx5HjPqkSZMa+2PYechiIkEmvkrT3nvvHTwO4rKykH3PPfcEoYs88HBYaaWVBtwICG+AJzMhRRCu4jbR25p8yYNezjSlQjZ509tKogcUb2bKgUgRE16e3JDS+HjtCNl4P//qV78K3nkcA89RGN19991BtOc8o8DMjY4JJ1LPaB6A8dbGozomhIo//elPgRf1kJafSfUuuuiiuGnw+MCLLybOD68OBBEeplNxEcbECEtTu/Wc5uX30RPIZbhGeuTUIxshm+sPb3/KgQcC10ca55p8hxKy8UQizAIeDnin0nmFZyntjxEiiHKId1z7dGSVJ1F5wxveEDrQ8ILCY4FrGzEdr2yuX2IQ00HENY3QHr2ZRnq+bte7BDrdNg4//PDgIQ0xRiAwEepor7dWQgd5RiEbMYP7FO0G0RzPIK512ib3W9oIn7QpxGw6b/H+Zng8ox5IjHD4YF0QMUlAAhLoRQKdtO88QyMw8byOyIXwxXM7oxZHk1rZ91TIxjZj33GAueKKK0JnJJ31sWOTd5a11167wLuT+wzPSzjx8G6DjScx0TD3H5MEepFAJ9s2fNLY17x/05nE+/9o0kiEbN7dcQLCIYwRfGgSvN/g4IMTBO/dV111VYEzHO9CdG6xjPd7tpkyZUp43mM0XjrqezTldFsJSKCaBHLZzVo9o9E92bTgmatALbIfsBjvrI985CONZfQeXnnllY3fY/nywx/+sCFW87DHkBtCicTE0DsEWAQoEjcNhtogWJHKQjbLublEERbBmv2XX375sD3/eMDEQ5SHPxITxbENHp8xEeIkFaFTIZttEJKZzAHhi3LjcU6e7BcTMxrjHR1TO0I24hwTTZAQ7xAXEJNjKodwwXObB+qY6J3l+DERjgXv7PiATbxsOhR40CVRr9RvTAxnxLuDxA0csS+NdUwHA3H+YsJ7nHLG1G49x3z8HBuBTtoJSlgWsllGbDk8DBClmSQlDsFlHWkoIZuXM9o11xzX5c033/zfnV78jwBH2COEaTpceLmLiaG1dLjxcMd+eF2n1y7bvfGNbwwjR+gMala2mJef1SPQ6bZBKCrCTxFmhER4mz/84Q/hZYT7SWrXW9FuJXSwfRSy+Y5IgViRprRDmmMzcqLcnqI9p52sVw9LMhbPo/SYfpeABCQwEQQ6bd95TmbEZ/SCpuOd0GU4jSAmp+8VrXi0su+pkI1tRrS67rrrBmRDCEWev0kIYbyzpcfk+YsQjziX8CyfvtMNyMgfEuhyAp1u27QdRlrEd2HCqxJOFH2A0W84ccV36lboRiJksy+h4dAUotbBMs6XTqnodEZH2dlnn82qRkrj9DNqr9no18bGfpGABPqOQC67Watn1HNCNkJS6qlM738a1220VwPiMjFzY2oVPzcVcdkWQZeHQlJZyKb38tBDDw3r4r90UhWWEZ4Er7g04TWahhshvEgaYyoVsrlR8aKfricvBHEENAQ5Ep4Q6bC/doRsRDhuoiS898rDAbmx/fznP2+II9zcuMmR2I/h7DEkCQ++u+6666AbbiqGc4PebLPNGr3NdAjERE9xWQhMY7+yXSqk56jneGw/x0Ygl+Ea6dGbCdnsSwcML18k7AkveDENJWTHbYb6PPjgg0OsONol7TcmhDrKQ5vZcsstB8Ski9vwSbkoHyGIEM7Tl790O79Xi0Cn2wb0ELMJuVUeccQ67ql0smKz8bpplloJHWx76ouhRehIjIJGmgcePeTNPYP7GvNJlBNzSNDRSWK0Q7P5Kcr7+FsCEpBAtxGYCPuO0EUYNGxtOTFSBkcRwvcxKrRZamXfUyEbRxWes8vprW99awgPyHLeaeK8I+l2iNc4JtGRybvPcOJbuq/fJdAtBCaibfM+fcghhxS0sygoRx54RV999dXBGY9nrPJ7MtuNVMgm9n2zEJ3RKYz3E7SNctulfDgD8ll26onl9FMCEuhfArnsZq2eUc8J2XgXI27GhCEvhweI60byWRaoW83cjZflueee28gyFbzLQvaBBx4YYnc3Nq5/SQUyluOdzE0mTXhtphNvlUW2VMi+4447im233TbdvfF9u+22CzGi44I0DnY7QnbMb6hPhAcECBIe6YQHIaU3Tn4368VlOSmK3XxH+EPUG0nihp6KLsTZxkOWlKOeR1IGt2lNIJfhan2EgWtaCdlcJ3gDEdcN20E7ip1haTtFVE6vp4G5N//1yU9+MuTHiyLtMKY40zjeULwgtkppOym3/1b7uLz3CXS6baTE8IpjhBEvJHHy3HQ91ywjf9IwUaxvJXSw7tQXheyhYnDzokPnKCNtaB/llN5zy5265W39LQEJSKBbCUyUfUdIIqQZDj+M+Ioe2pETAhTOJ0z6WxajWtn3VMhuFYObMINxFA7P3uXRNhyfjnrEOBJlc8RNQOG/HiMwUW0bTDhvbbLJJuH5LY5kTvExEoNnt3L7S98zWsXIZsQ3o7vLdoH8mSsMp7Oyw056bMLJEe4Tx7o0JGi6jd8lIIH+JJDLbtbqGfWckB09FmPVM0Q/zp4bl43mkzAi9DqSGD6z7rrrtowVykt5FFkRoeOkiWUhu1m4k2WWWaY466yzGkVjMsI4YUpcSJxQYtnFVBayUiE7PX7cPn4yuzBhSmLC6yEO/cshZE+dOjUMCSRe1gorrBBifTMZBDG+if0dUypkc0PkYTkmvLEZDjWWhODPsfmDK8elXvhMJwxLhewc9TyWsrrP/wjkMlz/y3Hob62EbPbiAZC4bly3iNWMsOCBbaRCNrOGEwaIc+K6i9cgnkWkspCN1zeeUbw0Muy2VeI6xs6QmoVkaLWfy3ubQKfbRjNadPBw/XNd85JCLGtECxIdp9x7eTGKqZXQwfooZPMyc9hhh8VdBnwSyoRwPK089giVRYgdUnleigEZ+UMCEpBAFxPoBvuOiI3AjIjFew52Ps5pw/sEDjip00gr+54K2eV3lFgFzC0UQ6sR05dwB+WUjlLlfjPaORrK+flbAhNBoBvaNucd30nWWWedMMIhjsTAQ5vnp1QnGYmQzWSPjB5tlo444ojQ+dRqNB374ETG3EHGwG9G0GUS6G8CuexmrZ5RzwnZZW9jXpJ5WR5rIgQIkxKSeEmPk5Q0yy8Op2Ed4hcv9qSJELKZGCsVq0NBXvxXDrHBORLuhNSukP2e97ynwOu07Nnx4qEHfKRCNuFgeOiNafPNNx9RHNa4PZ94lzCLMucwkpQK2TnqeSTHdJvWBHIZrtZHGLhmKCGbLfFC5eWNRIgF2vdwQjZe3AzXJSzDUCkVshEICUPE50gmp+Wlks4ivFTxVjVVn0Cn28ZIiCIkM2w8ds7Q8YMnTkythA7WK2RHSn5KQAL9TqAb7Tui9kEHHRSeeagfnuvpXIyplX1XyI6E/JRAEZxZ4NAsBMdE8eFdmfaLox/ptttua0yezW+FbCiYJCCBiSKQ65moVs+o54TsNddcM0xSFeETey2NKx2Xlz+JAxq9qZlBF6GJhDC61VZbhe/EZGaSgmYxpdgg9YjGwzIKsxMhZF944YXFAQccEMpd/ldmRHzea6+9NmzWjpAd4/zG4xGWgTiqxNij15ffURhkm1TI3mCDDRrxslk3Fo/sE088MYSDYH/SvffeGwTCBx54IBybMiAyxpQK2TnqOebr59gI5DJcIz36cEI2+RDihmuTYa3bb799EJtjPMdyaBE8iIiBzUMik+Hx0jdjxowQcgGbwlA8Rj8QmzIVsjlOHM1RFgNZlybyZoKVSZMmBTvHhKim6hPodNsYKVGuR8JoUT6GpzJMPKZWQgfrT30xtIge2ZGWnxKQQL8S6Fb7ztB/5uvBzpc7zlvZd4Xsfr2KPe9mBLq1bVNWJrNnjiy0DcKwMrcUSSE7YPCfBCQwQQRy2c1aPaOeE7IZCoeIG4fNELeTuNYxxm2zOsGzjElNohcx4TsQpEhMIrX77rs3dms1DG7atGnF+eef39gO7028OEkTIWQzVI+yNkvE/MW7IibCesRJ49oRsjl/OJCY5IXQKulsxizHU5yYq6RUyE5vnKwbKkY268tpqaWWGjAzcrPYfOkDNvunQnaOei6Xyd+jI5DLcI30qCMRsplAFOEaG4HXAh0hCHekspB9yimnhOG499xzT+j8SofhxjLRucXog7KQHYfZpSM54j7pZzopaTqSIt3G79Uj0Mm2QQgrQuow/wAdMsOlGPedzh5imcbUSuhgvUJ2pOSnBCTQ7wQ6ad8Zzk9HOO9Gjz766LDo6VznHYZRY4RYi6mVfU+fsw0tEmn52a8EOtm2eV/hXYWEB3iz+NVpPTCaLjr6pWFY0/fxVjGyDS2SkvS7BCSQk0Auu1mrZ9RzQjYgmUAQ4xvT9ddfHzx8y6JqXL/vvvsW22yzTfxZMGFkFKWJs8xLd0yIVccee2z82fgshzRJY3ZOhJDNuSK0XXPNNY0y8gWxHjEZQYz00EMPhckgwo/6v7EK2csuu2xx5plnxmyK3XbbbdCxEUfwVMe7g5QK2SwjZEL0iic+Nh7e5RsxoRsQoOmwYB1esnRS4DWPVzUJQYXe5XJMPUQWYnfFlArZOeo55uvn2AjkMlwjPfpIhGzyYjIkQn6Q8FzgJZCUCtlMgse1zXV5+OGHBy+msFHp39lnn13Q6VIWsqPAzcslEy+1mtiI0D2EcyAhiCOam6pPoJNtI058i5BNeJ3YydmK8tFHH12svfbaBSNf2D6mVkIH67mnYnP1yI60/JSABPqVQCftO+HIGBU23MTS1AXvCzyX8+x+3nnnDRhR2cq+K2T361XseTcj0Mm2jZMY7/ekPffcM4yIblamuCy2YX6n4TwVsiMhPyUggYkgkMtu1uoZ9aSQjTc2Ho70TsbEJGqIUYSXiGnKlClBFErjXhOOAlE0DR8SxSf2ayYQr7jiigUCdxRoH3vssSBGxTwmQsimrJQDsS2GSeFhFNE+FRtSMZl9xipkw5oH3jg5DPwRimOCDR0EKevyseMwp7jPcccdV6ShE3hAZnhjvMCvvvrqhrd82rPM/mVPECaZpP6pi5hSIZtl7dZzzNfPsRGI9dqpWHIjFbI5m3Qy0Hh2qZDN9U1oobnmmqvl5HRpR0pZyF599dWLE044IWR9zjnnDAiBE4/HJKZMkMTEkTfeeGMYLRLX+VltAp1sG4yqYVQSHTYIzgjVrRL2FJvMtky8iA2PKb4kNZtbgnwVsiMpPyUggX4m0En7nk6sPpzYlTqIMAk171ExtbLvCtmRkJ8S6HyMbBzKcCzDGYwRFFGHKNcF7+zoFjjW4IRAiJHo7KeQXablbwlIoJMEcj0T1eoZ9aSQDWzi1fLgxQRqMSFi33TTTUHgBRJ/MZwI2xDDeZ999inw4E4TMaXxwo554Ql86623hll+eRnnLwq47IfHJKE1YpoIIRtPTeLbkRDn8bymnFFsZzkCww477BDW8Zs0ViGbfZl9mAliSHiuXnfddcWVV14Zwo0wUzK8U4/WspDNkCji8eHdGhND2y+//PIw4zL1MHny5LhqgFiNSA/zOeaYI6wnJjHHRvBjgj5mPSff6E3LRmUhu916bhTML2MiwPVB6kYhm5ez008/vVhmmWVCGfmXCtn8pqME7228qplklutv1qxZYWJG7BGjNHiopAOtLGSzfxTW+c5wXkaFEM6EUQprrbVWiK/NAyrtlpfIkYR9IC9T7xPodNtgVMF6660XwDHPAfc/wlXFlyLEbgSRPfbYI9xDGf1CeKbYacqOrYQO1ilkQ8EkAQlIoLNiF+8AdFQusMACQbjimZvwabwn8G7Dew7vDrwbMOqLxLMGonY6UqyVfVfI9oqWwP8IdPrZjZCi6Bgk5uhhAm40jejEx7vyGmusEUauL7zwwmE73lcYHReTQnYk4acEJDARBHLZzVo9o54VsgFPeAliXeMlOVziJZ1Yn63EIUKVsD4Vgst58hB4/PHHD/AiZpuJELIZXoRgloZMScuLIEH4jxtuuCFd3JaQjdiGAMKNsllCCFx55ZXDTZT1ZSGbZYjJX/va1waI2SxPE2L4kUce2YhVHNftuOOOQViJv9NPepoJPRLjgbGuLGSzrJ16Zn/T2AnkMlwjLUEUjpngBI/+4RKdNIwQiDagLGSvttpq4aExdsTw0ofovOiii4as8VhF5CZGfTMhm43oBCN8SExMEEl7ih0wdNAwYeTtt98eN/GzDwh0um1wz2SOg3QEDTb0/vvvD/eVOAcF6AntxEifW265ZUBNtBI62EghewAqf0hAAn1MoNP2fbHFFgvPv4wmjYl3gvvuu69g9GLqMIJDCs/OPLukqZV9V8hOKfm93wl0um3Dm3nB8MaOjl0s412Ed5L4PsIy2jwOf+eeey4/G0khu4HCLxKQwAQQyGU3a/WMelrIhj0w8CzYaKONBnhfx3pBxGJySCZmJCboUGnVVVctiB9KiID0BoGAzUQoeCQT7qKcJkrIJjQHHhW77rpr8AqN5cLLEw+7yy67LC5qfLbjkU0mxN4mRjkPyFHwI8QJQ5jw+qBM9AaTmgnZLOchm4dkvFgR49NEzzJ54SXYLG2yySahjqj36EGPaHjUUUeFfZhML6ZmQjbrxlrPMV8/x0aAOiN1o0d2PKN0UtCykM02DNMjvEI6+gFPCGwDHTkM5R1KyGZkB/Zqyy23DKMQ4nEREfHwPvHEE8Mog7jcz/4g0Om2Ealy/+Ceh02O9jSuYwQTw1fx5mk2aVgroYP9FbIjRT8lIIF+JzAR9p3n87322is8Z+OdXU6M4mTeD56d40icdJtW9l0hO6Xk934nMBFtG+aI0TjfLbfcco138VgXCNq8F+N4xij1clLILhPxtwQk0EkCuexmrZ5RzwvZETzxoBCUeSGfOnVq8C7Auwxvg3S4XNx+qE+G+tOrycMfIi3xpYabEGuo/HKtI0Yv8XNJeGQfc8wxjaynT58eZjPG44Iyj3fiIZkLEY9S+CD2jzbxQLz//vsXm222WXiQXn/99QdN4NgqT+qImMKcb9mTpNU+5eXdWs/lclbldy7D1Q084vVPaBGuwdmzZ4+qWIiGeEbRbulsIw8+Tf1JYKLbBh2KdFISpgnRmhEBrUYv9WcNedYSkIAExkZgou07Yf2w74svvnhx9913h5BmY31uHhsB95JANQlMdNuO7yK0bxxieHa76667Rv1OUs3a8awkIIFuJJDLbtbqGY1efWxCJFeBmmTtooTAUEJ2slnPfKWzgEkjiWOOJ/UZZ5wRPkcrCvbMCfd5QbUTfX4BePotCdg2WqJxhQQkIIGeJqB97+nqs/ASaEnAtt0SjSskIAEJNCWQy27W6hkpZDdF3J0LqyZkE56EUCRpzG0mpGAou6l6BHIZruqR8Yz6nYBto9+vAM9fAhKoKgHte1Vr1vPqdwK27X6/Ajx/CUhgtARy2c1aPSOF7NHSn8DtqyZkR5SEgyG+MGFTnnnmmWLjjTcuiM9qqhaBXIarWlQ8Gwn8d64HOHQqfrzMJSABCUigMwR89ukMZ48igU4TsG13mrjHk4AEep1ALrtZq2ekkN1DV8MFF1zQiJF92mmnFSeccEIPlX5gUZlMk4nzmCiP2F5MzEiIEX5vuOGGTSefGZiDv3qNQC7D1WvnbXklMBwB28ZwhFwvAQlIoDcJaN97s94stQSGI2DbHo6Q6yUgAQkMJJDLbtbqGSlkD2Trrw4RwPsaD/M0MWEk4vxJJ52ULvZ7RQjkMlwVweFpSKBBwLbRQOEXCUhAApUioH2vVHV6MhJoELBtN1D4RQISkMCICOSym7V6RgrZI0LuRrkJ4H293377FdOnTw/e1zNmzCguueSS4oYbbsh9KPPrEgK5DFeXnI7FkEA2AraNbCjNSAISkEBXEdC+d1V1WBgJZCNg286G0owkIIE+IZDLbtbqGSlk98lF42lKYKIJ5DJcE30eHl8CuQnYNnITNT8JSEAC3UFA+94d9WApJJCbgG07N1Hzk4AEqk4gl92s1TNSyK761eL5SaBLCOQyXF1yOhZDAtkI2DayoTQjCUhAAl1FQPveVdVhYSSQjYBtOxtKM5KABPqEQC67WatnpJDdJxeNpymBiSaQy3BN9Hl4fAnkJmDbyE3U/CQgAQl0BwHte3fUg6WQQG4Ctu3cRM1PAhKoOoFcdrNWz0ghu+pXi+cngS4hkMtwdcnpWAwJZCNg28iG0owkIAEJdBUB7XtXVYeFkUA2ArbtbCjNSAIS6BMCuexmrZ6RQnafXDSepgQmmkAuwzXR5+HxJZCbgG0jN1Hzk4AEJNAdBLTv3VEPlkICuQnYtnMTNT8JSKDqBHLZzVo9I4Xsql8tnp8EuoRALsPVJadjMSSQjYBtIxtKM5KABCTQVQS0711VHRZGAtkI2LazoTQjCUigTwjkspu1ekZZhOylllqqmDRpUnH33XcXs2fP7pNq8DQlIIHREMhluEZzTLeVQC8QsG30Qi1ZRglIQAKjJ6B9Hz0z95BALxCwbfdCLVlGCUigWwjMMcccxZJLLlk8//zzxYwZM9oqVq1ugLMI2YssskgxefLk4oEHHihmzpzZVqHcWQISqCYBH/iqWa+eVfsEbBvtMzQHCUhAAt1IQPvejbVimSTQPgHbdvsMzUECEugfAlOmTCmmT59ezJo1q7j//vvbOvFa3QBnEbLnn3/+YoEFFiieeuqp4qGHHmqrUO4sAQlUk4APfNWsV8+qfQK2jfYZmoMEJCCBbiSgfe/GWrFMEmifgG27fYbmIAEJ9A+BhRZaqJhnnnmKRx99tHj88cfbOvFa3QBnEbLnnHPOYokllgiFMbxIW3XizhKoLAEf+CpbtZ5YmwRsG20CdHcJSEACXUpA+96lFWOxJNAmAdt2mwDdXQIS6BsCMawIJ3zPPfcUzz33XFvnXqsb4CxCNqVYeOGFi7nnnluv7LaqxJ0lUF0CPvBVt249s/YI2Dba4+feEpCABLqVgPa9W2vGckmgPQK27fb4ubcEJNA/BKI39tNPP108+OCDbZ94rW6AswnZqVf2I488UjzxxBNtF9AMJCCB6hDwga86demZ5CVg28jL09wkIAEJdAsB7Xu31ITlkEBeArbtvDzNTQISqCaB+eabr1hwwQXDyeXwxiajWt0AZxOyyXDeeectpk2bxtdCMTtg8J8EJPAigbq9Cd/uvPNOmUhAAgkB20YCw68SkIAEKkRA+16hyvRUJJAQsG0nMPwqAQlIoAmBVMR++OGHiyeffLLJVqNfVKsb4KxCNkWIEz/ynckfH3vssWL27Nn8NElAAn1MwAe+Pq58T31IAraNIfG4UgISkEDPEtC+92zVWXAJDEnAtj0kHldKQAJ9TICY2FOnTg2TO4IhxwSPKc5a3QBnF7I5QOqZzW8EbeKhPPvss4raADFJoA8J+MDXh5XuKY+IgG1jRJjcSAISkEDPEdC+91yVWWAJjIiAbXtEmNxIAhLoEwKI1y996UvDvInzzDNP46xzemLHTGt1AzwuQjYHIGY2KjwTQJokIAEJSEACEpCABCQgAQlIQAISkIAEJCABCUigugRwZCY6x3PPPZf9JMdVyI6lRdCeMmVKMXny5KDQT5o0Ka7yUwISkIAEJCABCUhAAhKQgAQkIAEJSEACEpCABHqQwPPPPx8icMyaNauYOXPmuAjYEUtHhOx4MD8lIAEJSEACEpCABCQgAQlIQAISkIAEJCABCUhAAqMloJA9WmJuLwEJSEACEpCABCQgAQlIQAISkIAEJCABCUhAAh0loJDdUdweTAISkIAEJCABCUhAAhKQgAQkIAEJSEACEpCABEZLQCF7tMTcXgISkIAEJCABCUhAAhKQgAQkIAEJSEACEpCABDpKQCG7o7g9mAQkIAEJSEACEpCABCQgAQlIQAISkIAEJCABCYyWgEL2aIm5vQQkIAEJSEACEpCABCQgAQlIQAISkIAEJCABCXSUgEJ2R3F7MAlIQAISkIAEJCABCUhAAhKQgAQkIAEJSEACEhgtAYXs0RJzewlIQAISkIAEJCABCUhAAhKQgAQkIAEJSEACEugoAYXsjuL2YBKQgAQkIAEJSEACEpCABCQgAQlIQAISkIAEJDBaAgrZoyXm9hKQgAQkIAEJSEACEpCABCQgAQlIQAISkIAEJNBRAv8PhYh649K9oKIAAAAASUVORK5CYII=;" vertex="1" parent="1">
          <mxGeometry x="770" y="200" width="1458" height="550" as="geometry" />
        </mxCell>
      </root>
    </mxGraphModel>
  </diagram>
</mxfile>
